<?xml version="1.0" encoding="UTF-8"?>
<svg xmlns="http://www.w3.org/2000/svg" xmlns:xlink="http://www.w3.org/1999/xlink" version="1.2" >
<font id="Futura PT Heavy Oblique">
<font-face  font-family="Futura PT Heavy Italic" units-per-em="1000" ascent="763" descent="-237" font-style="normal" font-weight="400" font-stretch="normal" slope="-7" cap-height="667" x-height="446" underline-position="-75" underline-thickness="50" />
<missing-glyph  horiz-adv-x="233" d="" />
<glyph glyph-name="NULL" d="" />
<glyph glyph-name="CR" unicode="&#xd;" horiz-adv-x="250" d="" />
<glyph glyph-name="space" unicode="&#x20;" horiz-adv-x="233" d="" />
<glyph glyph-name="exclam" unicode="&#x21;" horiz-adv-x="298" d="M249 223 L304 667 L152 667 L97 223 L249 223 Z M64 75 C64 24 104 -16 155 -16 C206 -16 246 24 246 75 C246 126 206 166 155 166 C104 166 64 126 64 75 L64 75 Z " />
<glyph glyph-name="quotedbl" unicode="&#x22;" horiz-adv-x="407" d="M261 667 L121 667 L111 399 L204 399 L261 667 Z M444 667 L304 667 L295 399 L388 399 L444 667 Z " />
<glyph glyph-name="numbersign" unicode="&#x23;" horiz-adv-x="600" d="M504 295 L531 387 L632 387 L662 497 L561 497 L610 667 L482 667 L433 497 L344 497 L393 667 L265 667 L216 497 L116 497 L86 387 L186 387 L159 295 L59 295 L28 184 L129 184 L76 0 L204 0 L257 184 L346 184 L293 0 L421 0 L474 184 L576 184 L606 295 L504 295 Z M376 295 L287 295 L314 387 L403 387 L376 295 Z " />
<glyph glyph-name="dollar" unicode="&#x24;" horiz-adv-x="600" d="M344 775 L332 674 C282 667 239 645 209 615 C182 588 153 542 153 470 C153 431 161 399 184 369 C209 336 245 316 273 302 L306 285 C328 274 351 264 367 249 C381 236 389 222 389 202 C389 176 378 155 363 143 C337 122 292 122 288 122 C256 122 230 132 206 146 C186 158 166 176 150 193 L71 91 C109 50 169 7 249 -4 L234 -112 L324 -112 L339 -2 C411 3 457 38 481 63 C515 99 542 154 542 221 C542 263 532 296 509 325 C485 356 450 376 424 388 L387 405 C351 422 335 431 324 440 C310 452 303 465 303 484 C303 501 310 519 322 530 C336 544 363 550 385 550 C417 550 461 535 495 499 L569 607 C505 663 447 672 422 674 L434 775 L344 775 Z " />
<glyph glyph-name="percent" unicode="&#x25;" horiz-adv-x="830" d="M185 2 L252 -14 L727 663 L659 678 L185 2 Z M655 234 C670 234 688 231 703 217 C713 208 724 192 724 164 C724 141 717 118 698 99 C679 79 658 72 634 72 C607 72 590 83 580 95 C570 107 563 126 563 142 C563 167 573 193 592 211 C610 228 630 234 655 234 L655 234 Z M659 315 C616 315 560 306 518 263 C486 231 468 183 468 136 C468 79 493 46 513 29 C550 -4 596 -9 634 -9 C677 -9 729 -3 772 43 C805 78 820 129 820 173 C820 214 807 248 781 273 C743 311 693 315 659 315 L659 315 Z M284 676 C241 676 185 667 143 624 C111 592 93 544 93 497 C93 440 118 407 138 390 C175 357 221 352 259 352 C302 352 354 358 397 404 C430 439 445 490 445 534 C445 575 432 609 406 634 C368 672 318 676 284 676 L284 676 Z M280 595 C295 595 313 592 328 578 C338 569 349 553 349 525 C349 502 342 479 323 460 C304 440 283 433 259 433 C232 433 215 444 205 456 C195 468 188 487 188 503 C188 528 198 554 217 572 C235 589 255 595 280 595 L280 595 Z " />
<glyph glyph-name="ampersand" unicode="&#x26;" horiz-adv-x="744" d="M637 337 C609 306 577 274 541 244 L459 349 C494 365 530 389 551 411 C588 449 601 493 601 532 C601 582 579 616 559 635 C516 678 458 682 423 682 C368 682 308 669 261 621 C223 582 208 532 208 487 C208 453 220 414 258 371 C208 357 153 327 121 290 C92 257 72 210 72 156 C72 102 95 63 120 38 C166 -8 227 -15 285 -15 C353 -15 388 -4 404 2 C434 13 472 39 498 62 L548 0 L736 0 L613 156 C652 188 685 220 714 252 L637 337 Z M422 162 C407 150 363 118 313 118 C288 118 265 126 251 140 C243 149 234 163 234 185 C234 207 242 230 260 248 C276 264 304 280 325 287 L422 162 Z M398 426 C363 463 354 490 354 512 C354 529 361 546 372 558 C385 571 401 576 419 576 C437 576 451 571 460 563 C470 555 477 540 477 522 C477 495 463 475 450 462 C435 447 414 434 398 426 L398 426 Z " />
<glyph glyph-name="quotesingle" unicode="&#x27;" horiz-adv-x="224" d="M261 667 L121 667 L111 399 L204 399 L261 667 Z " />
<glyph glyph-name="parenleft" unicode="&#x28;" horiz-adv-x="335" d="M273 740 C238 689 202 626 170 548 C103 384 94 260 94 159 C94 41 110 -64 160 -184 L266 -135 C243 -76 215 22 215 170 C215 305 242 414 278 511 C300 572 326 626 363 686 L273 740 Z " />
<glyph glyph-name="parenright" unicode="&#x29;" horiz-adv-x="335" d="M142 691 C186 573 194 485 194 408 C194 234 158 116 131 45 C110 -11 82 -70 45 -130 L135 -184 C177 -122 210 -60 238 8 C308 179 314 297 314 396 C314 501 303 608 248 740 L142 691 Z " />
<glyph glyph-name="asterisk" unicode="&#x2a;" horiz-adv-x="598" d="M238 659 L195 565 L303 539 L220 453 L290 395 L362 492 L411 395 L497 453 L434 540 L548 566 L529 659 L419 615 L442 729 L343 729 L337 615 L238 659 Z " />
<glyph glyph-name="plus" unicode="&#x2b;" horiz-adv-x="500" d="M73 282 L227 282 L227 127 L353 127 L353 282 L507 282 L507 398 L353 398 L353 552 L227 552 L227 398 L73 398 L73 282 Z " />
<glyph glyph-name="comma" unicode="&#x2c;" horiz-adv-x="351" d="M8 -128 L104 -132 L289 147 L153 154 L8 -128 Z " />
<glyph glyph-name="hyphen" unicode="&#x2d;" horiz-adv-x="356" d="M73 190 L329 190 L345 316 L89 316 L73 190 Z " />
<glyph glyph-name="period" unicode="&#x2e;" horiz-adv-x="278" d="M54 75 C54 24 94 -16 145 -16 C196 -16 236 24 236 75 C236 126 196 166 145 166 C94 166 54 126 54 75 L54 75 Z " />
<glyph glyph-name="slash" unicode="&#x2f;" horiz-adv-x="697" d="M-40 -184 L73 -204 L707 729 L594 749 L-40 -184 Z " />
<glyph glyph-name="zero" unicode="0" horiz-adv-x="600" d="M311 -15 C386 -15 440 -1 499 57 C602 159 616 311 616 389 C616 459 605 553 539 619 C485 673 420 682 372 682 C298 682 231 660 172 600 C109 536 56 426 56 280 C56 201 71 112 138 47 C192 -5 251 -15 311 -15 L311 -15 Z M313 117 C295 117 269 124 248 148 C213 187 212 250 212 281 C212 366 236 468 291 519 C316 542 343 550 367 550 C388 550 404 543 417 533 C456 501 460 424 460 391 C460 314 442 205 386 148 C366 127 343 117 313 117 L313 117 Z " />
<glyph glyph-name="one" unicode="1" horiz-adv-x="600" d="M231 0 L385 0 L467 667 L218 667 L202 537 L297 537 L231 0 Z " />
<glyph glyph-name="two" unicode="2" horiz-adv-x="600" d="M38 0 L533 0 L550 130 L339 130 L430 214 C466 247 517 302 539 335 C568 379 583 427 583 479 C583 549 555 595 528 621 C491 657 430 682 350 682 C283 682 216 666 163 609 C123 566 99 504 94 446 L248 446 C250 474 261 509 277 527 C295 547 317 552 340 552 C358 552 382 549 400 533 C415 520 425 498 425 471 C425 419 387 366 364 337 C335 300 297 259 238 200 L38 0 Z " />
<glyph glyph-name="three" unicode="3" horiz-adv-x="600" d="M257 467 C260 488 270 512 285 528 C302 545 324 551 345 551 C370 551 388 544 401 533 C412 524 425 508 425 480 C425 452 412 429 395 416 C374 401 344 398 319 398 L309 398 L295 292 L304 292 C326 292 358 292 381 272 C396 259 407 237 407 210 C407 187 399 161 383 144 C361 120 332 116 309 116 C286 116 256 120 234 145 C218 164 208 196 206 218 L52 218 C57 148 87 88 124 51 C180 -5 252 -16 316 -16 C386 -16 449 -5 502 50 C545 94 565 156 565 216 C565 249 558 275 541 301 C523 329 502 344 485 353 C521 367 540 390 547 399 C570 429 576 463 576 494 C576 555 553 597 524 625 C505 643 455 681 354 681 C304 681 232 673 178 618 C140 580 116 520 109 467 L257 467 Z " />
<glyph glyph-name="four" unicode="4" horiz-adv-x="600" d="M569 667 L389 667 L39 212 L28 124 L354 124 L339 0 L487 0 L502 124 L582 124 L597 246 L517 246 L569 667 Z M205 246 L400 501 L369 246 L205 246 Z " />
<glyph glyph-name="five" unicode="5" horiz-adv-x="600" d="M580 667 L242 667 L123 306 C176 334 221 341 262 341 C290 341 337 338 370 309 C391 291 405 263 405 232 C405 199 390 166 369 148 C345 127 304 117 267 117 C209 117 138 146 87 201 L35 64 C125 -3 209 -15 276 -15 C346 -15 428 -8 494 62 C535 105 563 170 563 250 C563 325 535 370 507 397 C472 431 414 453 344 453 C328 453 314 451 300 449 L332 537 L564 537 L580 667 Z " />
<glyph glyph-name="six" unicode="6" horiz-adv-x="600" d="M385 682 L179 456 C147 421 116 389 90 344 C67 303 54 260 54 206 C54 132 82 76 134 36 C193 -9 263 -15 318 -15 C389 -15 459 -5 520 55 C561 95 592 156 592 241 C592 285 582 342 538 388 C493 435 423 457 351 445 L534 646 L385 682 Z M314 111 C282 111 255 124 237 142 C225 154 208 178 208 217 C208 250 222 279 240 297 C259 316 288 330 323 330 C348 330 384 322 405 301 C423 284 434 256 434 231 C434 201 423 165 400 143 C379 122 346 111 314 111 L314 111 Z " />
<glyph glyph-name="seven" unicode="7" horiz-adv-x="600" d="M52 20 L199 -15 L670 667 L140 667 L124 537 L410 537 L52 20 Z " />
<glyph glyph-name="eight" unicode="8" horiz-adv-x="600" d="M460 346 C488 355 519 372 540 395 C571 429 577 467 577 502 C577 552 566 592 529 627 C483 672 423 682 363 682 C308 682 239 674 187 620 C153 585 136 536 136 489 C136 456 144 428 161 403 C174 384 192 366 216 353 C180 345 143 326 120 304 C91 276 70 229 70 176 C70 136 83 80 138 36 C194 -8 258 -15 321 -15 C384 -15 459 -9 517 49 C550 82 575 132 575 196 C575 241 561 277 531 306 C512 324 488 338 460 346 L460 346 Z M352 410 C321 410 303 423 292 435 C283 445 274 460 274 482 C274 507 284 530 299 545 C314 560 334 568 359 568 C382 568 403 561 416 549 C431 536 439 515 439 496 C439 473 430 449 415 434 C403 422 382 410 352 410 L352 410 Z M319 107 C295 107 269 114 252 130 C238 143 226 164 226 192 C226 227 241 249 250 258 C264 273 288 288 326 288 C362 288 382 273 389 268 C403 257 419 235 419 200 C419 167 405 145 392 133 C373 115 344 107 319 107 L319 107 Z " />
<glyph glyph-name="nine" unicode="9" horiz-adv-x="600" d="M141 21 L290 -14 L482 201 C533 258 561 292 578 322 C602 363 618 414 618 466 C618 546 583 594 555 620 C499 672 421 682 361 682 C291 682 215 669 157 614 C120 579 85 522 85 433 C85 379 97 325 143 281 C188 237 254 217 321 223 L141 21 Z M357 556 C397 556 421 542 435 529 C455 510 466 482 466 454 C466 425 453 391 432 370 C413 351 382 340 351 340 C322 340 290 351 271 370 C253 388 243 417 243 441 C243 468 253 503 273 524 C290 542 319 556 357 556 L357 556 Z " />
<glyph glyph-name="colon" unicode="&#x3a;" horiz-adv-x="278" d="M48 76 C48 25 88 -15 139 -15 C190 -15 230 25 230 76 C230 127 190 167 139 167 C88 167 48 127 48 76 L48 76 Z M85 370 C85 319 125 279 176 279 C227 279 267 319 267 370 C267 421 227 461 176 461 C125 461 85 421 85 370 L85 370 Z " />
<glyph glyph-name="semicolon" unicode="&#x3b;" horiz-adv-x="354" d="M-12 -128 L84 -132 L269 147 L133 154 L-12 -128 Z M130 370 C130 319 170 279 221 279 C272 279 312 319 312 370 C312 421 272 461 221 461 C170 461 130 421 130 370 L130 370 Z " />
<glyph glyph-name="less" unicode="&#x3c;" horiz-adv-x="500" d="M58 388 L58 280 L492 61 L492 185 L191 334 L492 483 L492 607 L58 388 Z " />
<glyph glyph-name="equal" unicode="&#x3d;" horiz-adv-x="500" d="M73 371 L507 371 L507 481 L73 481 L73 371 Z M73 199 L507 199 L507 309 L73 309 L73 199 Z " />
<glyph glyph-name="greater" unicode="&#x3e;" horiz-adv-x="500" d="M522 388 L88 607 L88 483 L389 334 L88 185 L88 61 L522 280 L522 388 Z " />
<glyph glyph-name="question" unicode="&#x3f;" horiz-adv-x="525" d="M339 214 L350 295 C398 295 455 313 490 345 C522 375 545 425 545 488 C545 526 537 579 494 623 C447 671 387 682 331 682 C281 682 217 676 165 625 C129 590 104 535 97 482 L247 482 C248 503 258 527 273 541 C286 553 306 558 326 558 C350 558 365 549 374 540 C379 535 393 520 393 491 C393 456 376 432 361 420 C333 397 292 393 262 393 C245 393 233 394 216 398 L193 214 L339 214 Z M158 75 C158 24 198 -16 249 -16 C300 -16 340 24 340 75 C340 126 300 166 249 166 C198 166 158 126 158 75 L158 75 Z " />
<glyph glyph-name="at" unicode="&#x40;" horiz-adv-x="734" d="M523 445 C497 490 453 497 425 497 C374 497 333 478 301 447 C253 401 229 330 229 273 C229 220 250 190 265 174 C292 147 327 140 359 140 C371 140 406 142 434 157 C452 167 471 185 484 204 C487 189 495 175 505 167 C519 155 542 148 568 148 C610 148 646 160 679 193 C746 260 751 368 751 401 C751 475 724 540 683 585 C641 631 570 673 455 673 C319 673 232 619 179 565 C112 497 70 394 70 282 C70 174 112 105 155 64 C229 -8 325 -17 392 -17 C499 -17 568 5 595 15 L585 91 C510 64 453 58 407 58 C351 58 273 65 216 121 C185 152 153 207 153 289 C153 370 185 454 241 512 C289 562 361 598 449 598 C507 598 569 580 611 544 C648 512 675 462 675 397 C675 348 657 268 615 233 C604 224 589 216 576 216 C569 216 560 218 555 223 C551 227 547 233 547 245 C547 255 552 274 555 284 L620 487 L536 487 L523 445 Z M386 225 C368 225 354 231 344 240 C335 249 326 264 326 288 C326 321 341 359 369 385 C387 402 406 410 429 410 C451 410 464 401 472 393 C485 379 487 361 487 349 C487 314 472 275 442 248 C426 234 408 225 386 225 L386 225 Z " />
<glyph glyph-name="A" unicode="A" horiz-adv-x="677" d="M517 0 L675 0 L496 667 L354 667 L2 0 L168 0 L231 126 L483 126 L517 0 Z M289 244 L401 479 L455 244 L289 244 Z " />
<glyph glyph-name="B" unicode="B" horiz-adv-x="594" d="M70 0 L318 0 C388 0 466 10 519 63 C545 89 573 135 573 206 C573 249 561 282 530 312 C513 328 488 344 454 352 C476 359 502 373 524 403 C544 430 555 464 555 507 C555 559 536 598 512 621 C470 662 410 667 365 667 L152 667 L70 0 Z M291 547 L323 547 C345 547 372 546 391 531 C400 523 412 508 412 481 C412 459 404 435 389 421 C366 399 330 396 304 396 L273 396 L291 547 Z M259 282 L319 282 C333 282 379 281 401 259 C416 244 419 223 419 209 C419 172 404 153 395 145 C371 123 324 120 295 120 L239 120 L259 282 Z " />
<glyph glyph-name="C" unicode="C" horiz-adv-x="605" d="M587 187 C550 157 497 129 431 129 C370 129 320 151 290 181 C260 211 238 262 238 318 C238 371 257 431 298 475 C340 521 392 538 456 538 C545 538 596 498 623 471 L642 634 C618 648 556 682 453 682 C331 682 242 634 186 578 C124 516 80 421 80 305 C80 189 127 117 170 74 C206 39 279 -15 405 -15 C491 -15 545 10 567 21 L587 187 Z " />
<glyph glyph-name="D" unicode="D" horiz-adv-x="685" d="M152 667 L70 0 L275 0 C396 0 501 19 578 92 C612 124 682 207 682 360 C682 465 646 538 602 582 C527 657 416 667 347 667 L152 667 Z M290 537 L337 537 C389 537 444 521 476 490 C505 462 524 415 524 356 C524 277 495 215 457 181 C403 133 332 130 287 130 L240 130 L290 537 Z " />
<glyph glyph-name="E" unicode="E" horiz-adv-x="502" d="M520 667 L152 667 L70 0 L442 0 L458 130 L236 130 L254 278 L464 278 L480 408 L270 408 L286 537 L504 537 L520 667 Z " />
<glyph glyph-name="F" unicode="F" horiz-adv-x="483" d="M523 667 L153 667 L70 0 L224 0 L259 278 L459 278 L475 408 L275 408 L291 537 L507 537 L523 667 Z " />
<glyph glyph-name="G" unicode="G" horiz-adv-x="767" d="M432 241 L593 241 C583 203 560 172 536 155 C503 131 461 125 430 125 C389 125 335 131 293 173 C257 208 238 265 238 316 C238 374 259 440 303 486 C344 529 389 542 443 542 C472 542 510 538 545 514 C573 495 595 465 607 438 L749 513 C724 557 685 604 641 633 C581 672 513 682 453 682 C359 682 264 667 180 579 C126 522 80 436 80 310 C80 239 96 151 165 79 C236 5 325 -15 410 -15 C493 -15 580 0 656 79 C689 113 754 196 759 364 L447 364 L432 241 Z " />
<glyph glyph-name="H" unicode="H" horiz-adv-x="720" d="M306 667 L152 667 L70 0 L224 0 L259 287 L525 287 L490 0 L644 0 L726 667 L572 667 L541 417 L275 417 L306 667 Z " />
<glyph glyph-name="I" unicode="I" horiz-adv-x="306" d="M155 667 L73 0 L227 0 L309 667 L155 667 Z " />
<glyph glyph-name="J" unicode="J" horiz-adv-x="415" d="M267 667 L211 212 C207 176 200 150 183 135 C173 126 161 121 144 121 C125 121 112 128 104 135 C94 144 85 159 80 173 L-25 77 C-8 48 16 24 42 9 C78 -12 113 -15 148 -15 C188 -15 250 -11 297 34 C352 86 359 167 365 214 L421 667 L267 667 Z " />
<glyph glyph-name="K" unicode="K" horiz-adv-x="670" d="M306 667 L152 667 L70 0 L224 0 L261 302 L462 0 L656 0 L409 344 L700 667 L516 667 L272 388 L306 667 Z " />
<glyph glyph-name="L" unicode="L" horiz-adv-x="448" d="M152 667 L70 0 L432 0 L448 130 L240 130 L306 667 L152 667 Z " />
<glyph glyph-name="M" unicode="M" horiz-adv-x="886" d="M196 0 L298 398 L415 0 L473 0 L686 398 L690 0 L844 0 L820 667 L689 667 L473 268 L359 667 L232 667 L42 0 L196 0 Z " />
<glyph glyph-name="N" unicode="N" horiz-adv-x="796" d="M224 0 L277 436 L586 0 L720 0 L802 667 L648 667 L594 233 L287 667 L153 667 L70 0 L224 0 Z " />
<glyph glyph-name="O" unicode="O" horiz-adv-x="810" d="M464 682 C378 682 275 662 190 581 C127 521 80 430 80 313 C80 204 128 127 174 80 C253 0 345 -15 428 -15 C515 -15 620 2 704 88 C774 160 807 263 807 358 C807 456 770 540 713 595 C669 637 592 682 464 682 L464 682 Z M458 540 C499 540 552 531 596 488 C640 445 649 391 649 348 C649 279 623 221 587 184 C538 134 483 127 438 127 C391 127 337 137 292 183 C261 214 238 262 238 323 C238 379 260 435 299 476 C339 518 392 540 458 540 L458 540 Z " />
<glyph glyph-name="P" unicode="P" horiz-adv-x="572" d="M152 667 L70 0 L224 0 L253 234 L341 234 C452 234 509 265 539 293 C579 330 604 394 604 468 C604 536 580 581 550 611 C496 665 424 667 377 667 L152 667 Z M291 541 L337 541 C360 541 400 539 424 516 C442 499 446 477 446 458 C446 441 443 411 420 389 C394 363 356 360 323 360 L268 360 L291 541 Z " />
<glyph glyph-name="Q" unicode="Q" horiz-adv-x="813" d="M639 -39 L777 -18 L691 89 C727 116 755 149 777 199 C796 242 810 295 810 360 C810 442 788 522 723 587 C645 665 543 682 462 682 C374 682 269 662 186 581 C124 520 80 426 80 312 C80 214 115 138 172 81 C243 10 330 -14 425 -14 C485 -14 536 -5 593 21 L639 -39 Z M534 285 L395 267 L503 141 C480 129 462 127 436 127 C384 127 333 138 288 186 C254 223 238 267 238 320 C238 382 261 438 296 476 C320 502 369 540 454 540 C524 540 569 513 594 489 C633 452 652 394 652 344 C652 307 643 247 599 201 L534 285 Z " />
<glyph glyph-name="R" unicode="R" horiz-adv-x="607" d="M152 667 L70 0 L224 0 L256 263 L417 0 L597 0 L425 271 C462 278 502 297 531 325 C564 358 586 408 586 471 C586 540 561 583 538 607 C488 661 425 667 361 667 L152 667 Z M291 547 L314 547 C349 547 378 544 398 531 C425 514 430 487 430 466 C430 438 423 409 396 388 C369 367 331 364 306 364 L268 364 L291 547 Z " />
<glyph glyph-name="S" unicode="S" horiz-adv-x="550" d="M554 616 C484 671 418 682 361 682 C304 682 235 672 181 619 C149 587 121 537 121 468 C121 426 133 388 165 355 C197 322 248 300 259 296 L298 280 C333 266 346 255 351 250 C359 242 370 228 370 204 C370 179 360 156 342 142 C323 128 291 121 268 121 C239 121 211 130 190 143 C170 156 148 177 134 196 L48 86 C72 60 104 33 137 15 C182 -9 221 -15 270 -15 C338 -15 407 -3 461 50 C500 89 528 151 528 221 C528 264 518 295 494 325 C468 357 438 374 406 389 L367 407 C334 422 316 430 302 442 C288 453 279 467 279 487 C279 505 288 524 302 535 C319 549 346 552 365 552 C395 552 435 542 477 504 L554 616 Z " />
<glyph glyph-name="T" unicode="T" horiz-adv-x="460" d="M515 537 L531 667 L87 667 L71 537 L216 537 L150 0 L304 0 L370 537 L515 537 Z " />
<glyph glyph-name="U" unicode="U" horiz-adv-x="710" d="M151 667 L108 313 C105 286 100 238 100 208 C100 146 117 95 159 54 C220 -7 304 -15 370 -15 C425 -15 522 -12 589 57 C649 118 658 199 668 279 L716 667 L562 667 L516 289 C511 251 504 195 471 162 C454 145 423 129 373 129 C332 129 303 142 285 159 C260 184 256 218 256 245 C256 273 258 282 261 303 L305 667 L151 667 Z " />
<glyph glyph-name="V" unicode="V" horiz-adv-x="678" d="M83 667 L283 0 L389 0 L753 667 L581 667 L360 240 L243 667 L83 667 Z " />
<glyph glyph-name="W" unicode="W" horiz-adv-x="1002" d="M83 667 L227 0 L359 0 L548 405 L637 0 L769 0 L1077 667 L913 667 L717 225 L630 667 L524 667 L327 225 L239 667 L83 667 Z " />
<glyph glyph-name="X" unicode="X" horiz-adv-x="686" d="M7 0 L196 0 L373 231 L492 0 L673 0 L472 354 L717 667 L528 667 L395 477 L308 667 L127 667 L296 354 L7 0 Z " />
<glyph glyph-name="Y" unicode="Y" horiz-adv-x="632" d="M236 0 L390 0 L428 311 L711 667 L523 667 L364 460 L255 667 L79 667 L274 311 L236 0 Z " />
<glyph glyph-name="Z" unicode="Z" horiz-adv-x="616" d="M673 667 L153 667 L137 537 L401 537 L19 0 L558 0 L574 130 L292 130 L673 667 Z " />
<glyph glyph-name="bracketleft" unicode="&#x5b;" horiz-adv-x="357" d="M394 631 L407 729 L193 729 L81 -184 L295 -184 L307 -86 L215 -86 L302 631 L394 631 Z " />
<glyph glyph-name="backslash" unicode="&#x5c;" horiz-adv-x="579" d="M584 -184 L178 749 L65 729 L471 -204 L584 -184 Z " />
<glyph glyph-name="bracketright" unicode="&#x5d;" horiz-adv-x="357" d="M119 631 L211 631 L124 -86 L32 -86 L20 -184 L234 -184 L346 729 L132 729 L119 631 Z " />
<glyph glyph-name="asciicircum" unicode="&#x5e;" horiz-adv-x="496" d="M285 570 L397 333 L529 333 L368 667 L203 667 L42 333 L174 333 L285 570 Z " />
<glyph glyph-name="underscore" unicode="&#x5f;" horiz-adv-x="500" d="M0 -184 L500 -184 L500 -66 L0 -66 L0 -184 Z " />
<glyph glyph-name="grave" unicode="&#x60;" horiz-adv-x="500" d="M303 515 L374 563 L271 715 L168 650 L303 515 Z " />
<glyph glyph-name="a" unicode="a" horiz-adv-x="598" d="M444 392 C424 420 400 436 383 444 C354 458 322 461 296 461 C234 461 178 443 132 396 C89 352 60 286 60 204 C60 127 87 75 120 40 C159 -1 203 -15 258 -15 C275 -15 310 -13 341 1 C365 12 388 32 404 51 L393 0 L537 0 L592 446 L448 446 L444 392 Z M327 337 C366 337 389 324 402 312 C421 295 433 267 433 235 C433 202 421 164 395 139 C380 125 354 109 313 109 C284 109 258 117 237 139 C223 154 208 178 208 215 C208 252 222 284 242 304 C264 326 291 337 327 337 L327 337 Z " />
<glyph glyph-name="b" unicode="b" horiz-adv-x="602" d="M295 729 L151 729 L60 0 L204 0 L208 55 C213 48 232 23 262 6 C293 -11 328 -15 356 -15 C419 -15 473 -1 521 48 C568 96 594 168 594 250 C594 299 583 364 530 413 C493 447 449 461 395 461 C365 461 336 456 308 442 C279 427 260 405 253 396 L295 729 Z M344 337 C377 337 400 325 415 310 C435 291 446 264 446 235 C446 203 432 165 408 142 C386 120 353 109 326 109 C297 109 270 121 253 137 C242 147 224 171 224 214 C224 253 240 285 261 306 C277 322 304 337 344 337 L344 337 Z " />
<glyph glyph-name="c" unicode="c" horiz-adv-x="431" d="M445 432 C402 453 360 461 315 461 C227 461 168 429 130 390 C85 344 60 280 60 208 C60 139 84 86 120 47 C166 -2 216 -15 275 -15 C307 -15 346 -12 393 11 L409 143 C388 124 357 107 318 107 C288 107 262 116 240 137 C222 154 208 180 208 216 C208 246 219 281 241 305 C251 315 278 339 328 339 C381 339 416 312 428 301 L445 432 Z " />
<glyph glyph-name="d" unicode="d" horiz-adv-x="602" d="M441 392 C393 453 330 461 297 461 C241 461 184 445 137 398 C85 346 60 271 60 198 C60 127 85 72 121 36 C158 0 202 -15 256 -15 C274 -15 311 -14 342 1 C361 10 383 25 401 51 L393 0 L536 0 L626 729 L482 729 L441 392 Z M326 337 C363 337 388 321 402 307 C415 294 431 270 431 235 C431 204 418 166 396 143 C379 125 351 109 313 109 C277 109 253 122 239 136 C224 150 208 174 208 213 C208 250 222 282 244 304 C258 318 284 337 326 337 L326 337 Z " />
<glyph glyph-name="e" unicode="e" horiz-adv-x="542" d="M218 283 C222 303 232 320 243 332 C255 344 276 359 311 359 C329 359 354 354 370 341 C386 328 397 304 399 283 L218 283 Z M537 195 C543 248 541 345 481 404 C447 437 390 461 314 461 C258 461 191 450 137 399 C100 364 60 299 60 201 C60 141 73 88 116 45 C169 -8 235 -15 290 -15 C331 -15 392 -11 443 27 C475 51 506 93 524 138 L379 150 C373 136 361 119 348 110 C330 98 308 97 291 97 C268 97 241 102 222 128 C210 145 203 173 204 195 L537 195 Z " />
<glyph glyph-name="f" unicode="f" horiz-adv-x="326" d="M360 330 L374 446 L260 446 L270 533 C275 579 291 596 294 599 C303 609 319 616 339 616 C355 616 374 610 390 598 L406 722 C365 737 333 740 311 740 C248 740 209 715 185 691 C140 645 132 582 128 543 L118 446 L66 446 L50 330 L102 330 L62 0 L206 0 L246 330 L360 330 Z " />
<glyph glyph-name="g" unicode="g" horiz-adv-x="595" d="M440 392 C387 457 324 461 293 461 C228 461 176 440 133 396 C87 349 60 281 60 203 C60 124 89 73 120 41 C166 -7 213 -12 258 -12 C298 -12 355 -6 395 51 L389 3 C386 -24 377 -59 359 -80 C348 -93 324 -113 280 -113 C256 -113 233 -108 217 -95 C204 -84 194 -67 190 -51 L36 -51 C43 -99 67 -143 98 -173 C147 -219 211 -229 271 -229 C323 -229 407 -223 466 -164 C513 -117 526 -54 533 -2 L589 446 L445 446 L440 392 Z M320 336 C360 336 383 323 397 309 C414 293 426 264 426 236 C426 203 411 162 389 141 C369 121 337 112 310 112 C285 112 256 122 238 139 C218 158 208 189 208 217 C208 250 221 287 241 307 C255 321 280 336 320 336 L320 336 Z " />
<glyph glyph-name="h" unicode="h" horiz-adv-x="571" d="M150 729 L60 0 L204 0 L230 220 C233 244 239 288 265 314 C284 333 306 338 332 338 C345 338 367 335 383 319 C398 303 401 282 401 265 C401 258 401 239 395 193 L371 0 L515 0 L542 229 C548 277 549 299 549 314 C549 341 546 386 511 420 C477 453 433 458 398 458 C365 458 339 456 307 439 C292 431 272 418 252 397 L294 729 L150 729 Z " />
<glyph glyph-name="i" unicode="i" horiz-adv-x="276" d="M120 446 L65 0 L209 0 L264 446 L120 446 Z M127 636 C127 589 164 552 211 552 C258 552 295 589 295 636 C295 683 258 720 211 720 C164 720 127 683 127 636 L127 636 Z " />
<glyph glyph-name="j" unicode="j" horiz-adv-x="276" d="M120 446 L35 -229 L179 -229 L264 446 L120 446 Z M127 636 C127 589 164 552 211 552 C258 552 295 589 295 636 C295 683 258 720 211 720 C164 720 127 683 127 636 L127 636 Z " />
<glyph glyph-name="k" unicode="k" horiz-adv-x="566" d="M151 729 L60 0 L204 0 L230 196 L394 0 L579 0 L377 241 L596 446 L404 446 L240 282 L295 729 L151 729 Z " />
<glyph glyph-name="l" unicode="l" horiz-adv-x="264" d="M150 729 L60 0 L204 0 L294 729 L150 729 Z " />
<glyph glyph-name="m" unicode="m" horiz-adv-x="843" d="M56 0 L200 0 L226 213 C230 245 235 286 262 314 C279 331 300 337 317 337 C333 337 352 331 363 320 C378 305 379 283 379 269 C379 253 377 238 375 220 L348 0 L492 0 L518 215 C525 272 540 300 555 315 C568 328 587 337 610 337 C628 337 644 330 653 321 C668 306 671 285 671 270 C671 262 670 251 666 215 L640 0 L784 0 L813 240 C820 296 830 364 776 416 C738 452 689 457 657 457 C627 457 593 452 562 433 C529 413 509 384 503 375 C490 411 466 429 457 435 C438 448 411 457 376 457 C337 457 311 445 300 440 C283 431 263 417 247 394 L255 446 L111 446 L56 0 Z " />
<glyph glyph-name="n" unicode="n" horiz-adv-x="567" d="M111 446 L56 0 L200 0 L226 220 C229 244 235 287 261 314 C279 332 301 338 326 338 C341 338 363 335 379 319 C394 303 397 282 397 265 C397 258 397 239 391 193 L367 0 L511 0 L538 229 C544 277 545 299 545 314 C545 341 542 386 507 420 C473 453 428 458 391 458 C360 458 335 456 303 439 C284 429 265 415 248 397 L255 446 L111 446 Z " />
<glyph glyph-name="o" unicode="o" horiz-adv-x="592" d="M337 461 C255 461 181 433 132 385 C84 339 60 274 60 209 C60 143 86 88 121 52 C178 -7 250 -15 307 -15 C372 -15 449 -6 512 58 C559 106 584 176 584 241 C584 306 558 358 524 392 C480 436 409 461 337 461 L337 461 Z M315 107 C276 107 251 122 237 137 C220 155 208 182 208 213 C208 247 221 284 248 308 C271 329 301 339 328 339 C355 339 387 329 406 311 C423 295 436 268 436 234 C436 200 424 163 399 139 C380 121 351 107 315 107 L315 107 Z " />
<glyph glyph-name="p" unicode="p" horiz-adv-x="598" d="M210 55 C228 30 249 14 268 4 C299 -12 333 -15 365 -15 C423 -15 472 1 516 45 C560 89 591 160 591 245 C591 314 568 376 532 412 C508 435 466 461 397 461 C363 461 334 455 305 440 C288 431 267 416 249 394 L257 446 L113 446 L30 -229 L174 -229 L210 55 Z M341 337 C366 337 394 328 412 311 C430 295 443 264 443 236 C443 203 427 162 403 140 C382 120 352 109 323 109 C292 109 265 122 248 140 C226 163 221 192 221 213 C221 247 231 277 257 303 C279 325 306 337 341 337 L341 337 Z " />
<glyph glyph-name="q" unicode="q" horiz-adv-x="598" d="M440 392 C426 412 406 430 380 443 C353 457 330 461 299 461 C238 461 182 448 134 399 C92 356 60 289 60 203 C60 117 92 66 118 40 C144 13 187 -15 256 -15 C285 -15 315 -10 340 2 C362 13 382 29 397 47 L363 -229 L507 -229 L590 446 L446 446 L440 392 Z M328 337 C363 337 386 324 400 310 C416 294 428 268 428 237 C428 198 414 162 388 139 C369 122 341 109 308 109 C279 109 252 120 235 138 C219 155 208 183 208 214 C208 253 224 283 244 303 C269 328 299 337 328 337 L328 337 Z " />
<glyph glyph-name="r" unicode="r" horiz-adv-x="384" d="M56 0 L200 0 L224 190 C230 238 242 280 267 304 C281 317 305 331 341 331 C369 331 390 323 404 316 L432 450 C417 454 397 457 373 457 C357 457 326 454 298 439 C277 427 256 408 242 380 L255 446 L111 446 L56 0 Z " />
<glyph glyph-name="s" unicode="s" horiz-adv-x="434" d="M428 416 C367 458 314 461 281 461 C249 461 180 458 134 413 C110 389 92 352 92 309 C92 266 111 241 122 229 C143 208 173 196 197 189 L229 179 C241 175 255 172 264 166 C271 161 278 153 278 138 C278 124 272 116 260 109 C248 102 234 99 216 99 C185 99 159 111 154 113 C136 121 115 135 99 150 L38 53 C59 34 82 18 107 7 C147 -11 185 -15 223 -15 C262 -15 332 -9 380 41 C399 60 422 96 422 151 C422 186 412 213 389 236 C364 262 334 272 312 278 L279 287 C254 294 247 297 244 299 C233 306 230 315 230 323 C230 331 234 340 240 345 C250 354 269 357 283 357 C318 357 347 342 367 327 L428 416 Z " />
<glyph glyph-name="t" unicode="t" horiz-adv-x="299" d="M334 330 L348 446 L260 446 L278 590 L134 590 L116 446 L64 446 L50 330 L102 330 L61 0 L205 0 L246 330 L334 330 Z " />
<glyph glyph-name="u" unicode="u" horiz-adv-x="570" d="M423 446 L395 212 C389 159 372 138 366 132 C350 115 323 107 300 107 C279 107 254 114 241 126 C231 135 222 151 222 175 C222 186 224 196 227 224 L253 446 L109 446 L82 219 C80 205 77 174 77 156 C77 109 95 64 125 36 C175 -12 254 -15 299 -15 C350 -15 421 -9 474 42 C524 90 533 152 539 205 L567 446 L423 446 Z " />
<glyph glyph-name="v" unicode="v" horiz-adv-x="546" d="M54 446 L226 0 L312 0 L596 446 L436 446 L289 207 L204 446 L54 446 Z " />
<glyph glyph-name="w" unicode="w" horiz-adv-x="852" d="M450 254 L541 0 L631 0 L900 446 L738 446 L605 209 L512 446 L428 446 L287 209 L206 446 L54 446 L213 0 L305 0 L450 254 Z " />
<glyph glyph-name="x" unicode="x" horiz-adv-x="620" d="M632 446 L440 446 L338 331 L261 446 L79 446 L237 241 L3 0 L195 0 L326 144 L428 0 L610 0 L426 241 L632 446 Z " />
<glyph glyph-name="y" unicode="y" horiz-adv-x="583" d="M40 -229 L202 -229 L633 446 L464 446 L314 202 L215 446 L51 446 L224 57 L40 -229 Z " />
<glyph glyph-name="z" unicode="z" horiz-adv-x="499" d="M552 446 L99 446 L81 326 L282 326 L0 0 L477 0 L494 120 L271 120 L552 446 Z " />
<glyph glyph-name="braceleft" unicode="&#x7b;" horiz-adv-x="506" d="M284 272 C328 288 353 340 360 398 L380 559 C385 599 403 618 450 618 L489 618 L502 727 C491 728 459 729 440 729 C404 729 348 727 310 697 C270 665 264 620 260 585 L237 401 C232 361 217 330 173 328 L160 222 C196 222 207 191 207 166 C207 160 207 155 206 149 L183 -40 C181 -52 179 -66 179 -82 C179 -107 186 -137 214 -159 C245 -183 282 -184 316 -184 C345 -184 369 -183 391 -182 L404 -73 L385 -73 C328 -73 308 -63 308 -31 C308 -26 309 -20 310 -14 L329 146 C330 157 331 169 331 182 C331 224 322 252 284 272 L284 272 Z " />
<glyph glyph-name="bar" unicode="&#x7c;" horiz-adv-x="504" d="M226 -250 L352 -250 L352 750 L226 750 L226 -250 Z " />
<glyph glyph-name="braceright" unicode="&#x7d;" horiz-adv-x="506" d="M193 -14 C186 -72 151 -73 102 -73 L83 -73 L70 -182 C86 -183 117 -184 143 -184 C183 -184 227 -181 263 -152 C303 -119 307 -80 312 -40 L336 150 C339 177 347 217 400 223 L413 329 C384 331 366 352 366 383 C366 390 366 396 367 402 L389 585 C391 599 392 613 392 627 C392 723 300 729 255 729 C223 729 193 728 181 727 L168 618 L187 618 C221 618 264 617 264 577 C264 571 264 564 263 559 L244 399 C242 382 241 368 241 355 C241 322 246 291 288 273 C243 259 221 212 213 147 L193 -14 Z " />
<glyph glyph-name="asciitilde" unicode="&#x7e;" horiz-adv-x="500" d="M286 225 C315 214 340 205 373 205 C450 205 495 275 522 329 L526 337 L454 379 C434 342 414 327 383 327 C358 327 337 334 314 343 L269 360 C243 370 222 377 189 377 C152 377 123 365 99 341 C87 329 69 305 43 248 L38 237 L109 194 C129 236 153 255 186 255 C209 255 228 247 250 239 L286 225 Z " />
<glyph glyph-name="uni00A0" unicode="&#xa0;" horiz-adv-x="233" d="" />
<glyph glyph-name="exclamdown" unicode="&#xa1;" horiz-adv-x="298" d="M259 214 L103 214 L49 -230 L205 -230 L259 214 Z M109 362 C109 311 149 271 200 271 C251 271 291 311 291 362 C291 413 251 453 200 453 C149 453 109 413 109 362 L109 362 Z " />
<glyph glyph-name="cent" unicode="&#xa2;" horiz-adv-x="600" d="M532 544 C507 555 481 563 454 566 L465 660 L375 660 L365 570 C302 565 250 536 218 504 C179 465 150 400 150 322 C150 259 170 214 195 182 C214 159 250 125 311 113 L298 13 L388 13 L399 106 C429 109 456 117 481 129 L498 262 C474 241 443 228 408 228 C373 228 344 241 327 258 C310 275 298 301 298 333 C298 366 312 396 333 417 C358 442 388 450 420 450 C441 450 478 445 516 414 L532 544 Z " />
<glyph glyph-name="sterling" unicode="&#xa3;" horiz-adv-x="600" d="M189 248 C191 238 191 229 191 220 C191 191 183 170 174 155 C147 149 111 136 82 97 C65 74 48 35 39 4 L146 -5 C152 18 171 38 205 38 C231 38 263 26 270 23 L311 7 C358 -11 381 -15 414 -15 C450 -15 487 -11 522 26 C548 54 569 100 575 146 L471 156 C468 145 461 132 453 123 C442 111 431 108 415 108 C392 108 373 117 353 125 C332 134 318 139 294 145 C310 169 320 199 320 230 C320 236 320 242 319 248 L465 248 L477 340 L311 340 C291 418 289 439 289 448 C289 477 298 512 321 532 C329 539 347 553 379 553 C409 553 428 541 438 531 C458 510 463 478 463 453 C463 445 463 438 462 432 L607 432 C608 441 608 450 608 459 C608 533 583 586 551 619 C518 654 464 682 383 682 C285 682 231 644 205 618 C164 577 144 519 144 461 C144 424 153 377 165 340 L90 340 L79 248 L189 248 Z " />
<glyph glyph-name="currency" unicode="&#xa4;" horiz-adv-x="667" d="M129 67 L232 169 C255 151 296 125 376 125 C440 125 482 144 514 170 L617 67 L685 135 L582 238 C622 286 626 338 626 376 C626 411 622 464 581 515 L683 618 L615 686 L512 583 C461 623 408 627 373 627 C309 627 266 609 233 583 L129 686 L61 618 L165 514 C128 464 120 413 120 376 C120 302 148 258 164 238 L61 135 L129 67 Z M373 237 C341 237 300 252 274 278 C255 297 236 330 236 376 C236 422 254 455 275 476 C295 497 328 515 373 515 C414 515 448 499 471 476 C490 457 510 426 510 376 C510 338 499 303 470 275 C442 248 406 237 373 237 L373 237 Z " />
<glyph glyph-name="yen" unicode="&#xa5;" horiz-adv-x="600" d="M241 347 L258 312 L255 284 L93 284 L81 187 L243 187 L220 0 L366 0 L389 187 L558 187 L570 284 L401 284 L404 312 L432 347 L578 347 L590 444 L504 444 L669 667 L487 667 L347 455 L256 667 L88 667 L195 444 L113 444 L101 347 L241 347 Z " />
<glyph glyph-name="brokenbar" unicode="&#xa6;" horiz-adv-x="504" d="M226 365 L352 365 L352 750 L226 750 L226 365 Z M226 -250 L352 -250 L352 136 L226 136 L226 -250 Z " />
<glyph glyph-name="section" unicode="&#xa7;" horiz-adv-x="574" d="M80 9 C83 -36 101 -94 135 -130 C158 -154 204 -184 285 -184 C359 -184 405 -159 433 -131 C461 -103 485 -58 485 3 C485 35 477 82 433 120 C465 131 491 150 507 171 C531 201 541 243 541 281 C541 340 520 376 506 393 C493 410 469 432 422 454 L384 472 C354 486 336 496 321 507 C302 521 291 535 291 558 C291 584 304 599 309 604 C318 613 334 622 361 622 C386 622 403 613 413 603 C427 589 432 563 432 545 L562 545 C561 590 544 642 511 676 C489 699 444 729 357 729 C317 729 255 722 210 678 C180 648 161 602 161 548 C161 520 167 469 222 434 C191 421 161 399 139 371 C111 335 105 300 105 263 C105 224 112 183 149 146 C171 124 200 108 225 96 L268 75 C298 60 321 51 338 35 C351 23 357 10 357 -9 C357 -35 345 -49 338 -56 C332 -62 315 -74 284 -74 C258 -74 242 -65 232 -55 C217 -40 210 -13 210 9 L80 9 Z M321 197 C298 197 276 204 262 217 C252 227 241 243 241 269 C241 303 254 324 264 334 C280 351 301 356 323 356 C342 356 366 351 380 339 C391 330 403 313 403 278 C403 262 399 239 381 220 C370 208 350 197 321 197 L321 197 Z " />
<glyph glyph-name="dieresis" unicode="&#xa8;" horiz-adv-x="500" d="M136 599 C136 556 172 520 215 520 C258 520 294 556 294 599 C294 642 258 678 215 678 C172 678 136 642 136 599 L136 599 Z M354 599 C354 556 390 520 433 520 C476 520 512 556 512 599 C512 642 476 678 433 678 C390 678 354 642 354 599 L354 599 Z " />
<glyph glyph-name="copyright" unicode="&#xa9;" horiz-adv-x="762" d="M547 518 C511 535 472 542 440 542 C367 542 313 514 280 480 C245 445 221 393 221 331 C221 270 246 217 279 183 C309 152 359 124 436 124 C471 124 506 131 547 149 L547 269 C530 251 496 220 446 220 C412 220 381 233 361 254 C344 272 333 300 333 332 C333 361 343 395 365 416 C386 436 418 446 445 446 C488 446 524 422 547 396 L547 518 Z M421 620 C485 620 562 590 612 542 C661 494 698 415 698 334 C698 252 661 172 612 125 C562 77 485 47 421 47 C357 47 280 77 230 125 C181 172 144 252 144 334 C144 415 181 494 230 542 C280 590 357 620 421 620 L421 620 Z M768 333 C768 430 730 518 665 583 C606 641 522 682 421 682 C320 682 236 641 177 583 C112 518 74 430 74 333 C74 238 112 149 177 84 C236 26 320 -15 421 -15 C522 -15 606 26 665 84 C730 149 768 238 768 333 L768 333 Z " />
<glyph glyph-name="ordfeminine" unicode="&#xaa;" horiz-adv-x="349" d="M307 659 L304 628 C277 663 240 667 218 667 C180 667 146 657 117 628 C81 591 75 546 75 513 C75 484 81 445 111 416 C136 392 167 386 193 386 C214 386 250 391 280 427 L275 395 L359 395 L391 659 L307 659 Z M233 593 C249 593 267 588 279 577 C288 569 297 555 297 532 C297 506 288 489 277 479 C267 469 250 460 226 460 C205 460 188 467 178 478 C169 487 162 502 162 522 C162 541 169 560 181 573 C191 583 207 593 233 593 L233 593 Z M67 357 L59 291 L345 291 L354 357 L67 357 Z " />
<glyph glyph-name="guillemotleft" unicode="&#xab;" horiz-adv-x="534" d="M186 214 L321 374 L249 439 L68 224 L196 8 L284 55 L186 214 Z M394 214 L529 374 L457 439 L276 224 L404 8 L492 55 L394 214 Z " />
<glyph glyph-name="logicalnot" unicode="&#xac;" horiz-adv-x="500" d="M488 0 L488 267 L52 267 L52 149 L362 149 L362 0 L488 0 Z " />
<glyph glyph-name="uni00AD" unicode="&#xad;" horiz-adv-x="356" d="M73 190 L329 190 L345 316 L89 316 L73 190 Z " />
<glyph glyph-name="registered" unicode="&#xae;" horiz-adv-x="762" d="M268 529 L268 150 L376 150 L376 278 L452 150 L585 150 L478 302 C509 309 526 326 532 332 C549 350 561 376 561 408 C561 441 550 470 530 490 C495 526 444 529 410 529 L268 529 Z M376 449 L390 449 C403 449 427 449 441 439 C453 430 455 416 455 407 C455 391 450 379 436 370 C422 361 407 361 391 361 L376 361 L376 449 Z M421 620 C485 620 562 590 612 542 C661 494 698 415 698 334 C698 252 661 172 612 125 C562 77 485 47 421 47 C357 47 280 77 230 125 C181 172 144 252 144 334 C144 415 181 494 230 542 C280 590 357 620 421 620 L421 620 Z M768 333 C768 430 730 518 665 583 C606 641 522 682 421 682 C320 682 236 641 177 583 C112 518 74 430 74 333 C74 238 112 149 177 84 C236 26 320 -15 421 -15 C522 -15 606 26 665 84 C730 149 768 238 768 333 L768 333 Z " />
<glyph glyph-name="macron" unicode="&#xaf;" horiz-adv-x="500" d="M127 543 L507 543 L518 633 L138 633 L127 543 Z " />
<glyph glyph-name="degree" unicode="&#xb0;" horiz-adv-x="502" d="M235 515 C235 555 269 589 311 589 C353 589 387 555 387 515 C387 475 353 441 311 441 C269 441 235 475 235 515 L235 515 Z M157 515 C157 430 224 363 311 363 C398 363 465 430 465 515 C465 600 398 667 311 667 C224 667 157 600 157 515 L157 515 Z " />
<glyph glyph-name="plusminus" unicode="&#xb1;" horiz-adv-x="500" d="M63 356 L217 356 L217 201 L343 201 L343 356 L497 356 L497 472 L343 472 L343 627 L217 627 L217 472 L63 472 L63 356 Z M63 51 L497 51 L497 167 L63 167 L63 51 Z " />
<glyph glyph-name="twosuperior" unicode="&#xb2;" horiz-adv-x="395" d="M62 275 L366 275 L376 353 L245 353 L298 399 C324 422 351 443 372 477 C392 509 397 537 397 558 C397 593 382 626 355 648 C320 677 277 679 251 679 C213 679 179 670 150 641 C124 616 107 575 101 539 L195 539 C197 555 205 575 216 586 C225 595 236 599 248 599 C262 599 273 595 281 589 C294 579 296 565 296 554 C296 532 289 516 278 499 C259 469 230 443 181 394 L62 275 Z " />
<glyph glyph-name="threesuperior" unicode="&#xb3;" horiz-adv-x="395" d="M77 396 C80 357 97 323 119 301 C154 267 199 262 232 262 C264 262 311 265 348 301 C374 326 388 363 388 400 C388 418 384 439 368 457 C360 466 349 474 335 480 C349 485 364 493 376 511 C388 528 391 543 391 563 C391 591 385 619 361 643 C329 675 286 679 257 679 C226 679 186 674 153 641 C130 618 116 584 111 555 L201 555 C203 565 208 581 216 589 C225 598 240 603 251 603 C262 603 275 598 282 593 C291 586 296 573 296 561 C296 547 290 533 280 525 C266 513 244 513 232 513 L222 513 L214 443 L220 443 C238 443 257 442 271 432 C280 426 289 414 289 396 C289 381 283 365 273 356 C263 347 247 342 230 342 C215 342 200 346 188 358 C179 367 173 381 171 396 L77 396 Z " />
<glyph glyph-name="acute" unicode="&#xb4;" horiz-adv-x="500" d="M405 715 L263 563 L322 515 L491 650 L405 715 Z " />
<glyph glyph-name="&amp;#xb5;" unicode="&#xb5;" horiz-adv-x="570" d="M171 -230 L206 62 C211 43 221 23 233 11 C249 -6 268 -10 288 -10 C315 -10 333 -1 346 9 C349 12 367 26 378 53 L371 0 L512 0 L567 446 L423 446 L396 231 C390 183 384 139 357 114 C345 103 325 94 300 94 C279 94 261 100 247 115 C229 134 227 160 227 181 C227 196 229 215 233 251 L257 446 L113 446 L30 -230 L171 -230 Z " />
<glyph glyph-name="&amp;#x3bc;" unicode="&#x3bc;" horiz-adv-x="570" d="M171 -230 L206 62 C211 43 221 23 233 11 C249 -6 268 -10 288 -10 C315 -10 333 -1 346 9 C349 12 367 26 378 53 L371 0 L512 0 L567 446 L423 446 L396 231 C390 183 384 139 357 114 C345 103 325 94 300 94 C279 94 261 100 247 115 C229 134 227 160 227 181 C227 196 229 215 233 251 L257 446 L113 446 L30 -230 L171 -230 Z " />
<glyph glyph-name="paragraph" unicode="&#xb6;" horiz-adv-x="659" d="M313 -94 L394 570 L477 570 L396 -94 L504 -94 L585 570 L657 570 L669 667 L334 667 C263 667 184 661 133 608 C103 577 83 526 83 469 C83 441 89 400 120 368 C146 341 193 321 248 321 L255 321 L205 -94 L313 -94 Z " />
<glyph glyph-name="periodcentered" unicode="&#xb7;" horiz-adv-x="256" d="M53 334 C53 273 100 226 161 226 C222 226 269 273 269 334 C269 395 222 442 161 442 C100 442 53 395 53 334 L53 334 Z " />
<glyph glyph-name="cedilla" unicode="&#xb8;" horiz-adv-x="500" d="M251 -46 L145 -196 L219 -236 L345 -97 L251 -46 Z " />
<glyph glyph-name="onesuperior" unicode="&#xb9;" horiz-adv-x="395" d="M195 275 L287 275 L335 667 L177 667 L167 589 L233 589 L195 275 Z " />
<glyph glyph-name="ordmasculine" unicode="&#xba;" horiz-adv-x="352" d="M240 667 C175 667 137 644 116 625 C94 605 71 571 71 520 C71 464 98 433 115 419 C149 391 196 386 229 386 C267 386 318 391 356 429 C375 447 396 480 396 529 C396 575 378 604 361 622 C323 662 269 667 240 667 L240 667 Z M236 593 C257 593 273 586 283 577 C295 566 302 548 302 529 C302 507 293 490 282 479 C272 470 256 460 227 460 C213 460 196 463 183 476 C172 486 165 502 165 520 C165 538 172 559 185 573 C193 582 209 593 236 593 L236 593 Z M60 357 L52 291 L352 291 L360 357 L60 357 Z " />
<glyph glyph-name="guillemotright" unicode="&#xbb;" horiz-adv-x="534" d="M196 234 L58 75 L132 8 L314 224 L185 439 L99 394 L196 234 Z M404 234 L266 75 L340 8 L522 224 L393 439 L307 394 L404 234 Z " />
<glyph glyph-name="onequarter" unicode="&#xbc;" horiz-adv-x="860" d="M186 267 L278 267 L327 667 L168 667 L158 589 L225 589 L186 267 Z M174 10 L239 -14 L711 655 L646 678 L174 10 Z M783 400 L677 400 L469 126 L463 76 L655 76 L646 0 L734 0 L743 76 L789 76 L798 150 L752 150 L783 400 Z M570 150 L683 298 L664 150 L570 150 Z " />
<glyph glyph-name="onehalf" unicode="&#xbd;" horiz-adv-x="860" d="M163 275 L255 275 L303 667 L145 667 L135 589 L201 589 L163 275 Z M150 10 L215 -14 L687 655 L622 678 L150 10 Z M477 0 L781 0 L791 78 L660 78 L713 124 C739 147 766 168 787 202 C804 230 812 257 812 283 C812 325 794 351 777 366 C748 392 704 404 666 404 C622 404 589 390 565 366 C539 341 522 300 516 264 L610 264 C612 278 619 295 627 306 C635 317 647 324 663 324 C673 324 687 321 696 314 C709 304 711 290 711 280 C711 258 704 240 693 224 C674 195 645 168 596 119 L477 0 Z " />
<glyph glyph-name="threequarters" unicode="&#xbe;" horiz-adv-x="860" d="M78 399 C78 363 91 329 112 307 C135 283 176 265 232 265 C270 265 311 273 347 308 C378 338 389 376 389 409 C389 427 385 448 369 466 C361 475 350 483 336 489 C352 495 365 504 377 523 C387 539 392 558 392 577 C392 617 371 641 354 654 C317 682 264 682 254 682 C222 682 184 675 154 644 C131 621 117 587 112 558 L202 558 C204 569 209 584 216 592 C222 598 233 606 250 606 C264 606 275 602 283 595 C290 589 297 579 297 565 C297 551 291 538 281 529 C266 516 246 516 233 516 L223 516 L215 446 L226 446 C255 446 268 439 272 436 C283 428 290 415 290 401 C290 387 285 372 273 361 C258 347 238 345 227 345 C205 345 193 353 187 359 C178 368 172 384 172 399 L78 399 Z M224 10 L289 -14 L761 655 L696 678 L224 10 Z M620 150 L733 298 L714 150 L620 150 Z M833 400 L727 400 L519 126 L513 76 L705 76 L696 0 L784 0 L793 76 L839 76 L848 150 L802 150 L833 400 Z " />
<glyph glyph-name="questiondown" unicode="&#xbf;" horiz-adv-x="525" d="M239 224 L229 149 C174 145 128 122 97 91 C75 69 42 24 42 -51 C42 -108 61 -152 95 -185 C143 -232 206 -242 260 -242 C339 -242 389 -218 419 -188 C455 -153 477 -92 481 -43 L331 -43 C330 -63 323 -86 308 -100 C293 -115 274 -118 259 -118 C239 -118 221 -114 207 -99 C192 -83 189 -66 189 -50 C189 -32 193 -6 215 14 C235 33 269 44 312 44 C326 44 346 43 363 41 L385 224 L239 224 Z M238 362 C238 311 278 271 329 271 C380 271 420 311 420 362 C420 413 380 453 329 453 C278 453 238 413 238 362 L238 362 Z " />
<glyph glyph-name="Agrave" unicode="&#xc0;" horiz-adv-x="677" d="M517 0 L675 0 L496 667 L354 667 L2 0 L168 0 L231 126 L483 126 L517 0 Z M289 244 L401 479 L455 244 L289 244 Z M443 724 L514 777 L400 925 L295 853 L443 724 Z " />
<glyph glyph-name="Aacute" unicode="&#xc1;" horiz-adv-x="677" d="M517 0 L675 0 L496 667 L354 667 L2 0 L168 0 L231 126 L483 126 L517 0 Z M289 244 L401 479 L455 244 L289 244 Z M508 925 L355 777 L414 724 L594 853 L508 925 Z " />
<glyph glyph-name="Acircumflex" unicode="&#xc2;" horiz-adv-x="677" d="M517 0 L675 0 L496 667 L354 667 L2 0 L168 0 L231 126 L483 126 L517 0 Z M289 244 L401 479 L455 244 L289 244 Z M318 726 L451 819 L565 726 L631 797 L459 937 L254 797 L318 726 Z " />
<glyph glyph-name="Atilde" unicode="&#xc3;" horiz-adv-x="677" d="M517 0 L675 0 L496 667 L354 667 L2 0 L168 0 L231 126 L483 126 L517 0 Z M289 244 L401 479 L455 244 L289 244 Z M557 867 C543 843 529 829 505 829 C492 829 477 833 454 843 L420 857 C400 865 378 871 357 871 C323 871 296 858 275 837 C261 823 244 798 235 782 L300 732 C315 761 333 771 351 771 C363 771 376 767 403 756 L436 743 C456 735 474 728 498 728 C529 728 553 739 575 759 C591 774 610 797 622 817 L557 867 Z " />
<glyph glyph-name="Adieresis" unicode="&#xc4;" horiz-adv-x="677" d="M517 0 L675 0 L496 667 L354 667 L2 0 L168 0 L231 126 L483 126 L517 0 Z M289 244 L401 479 L455 244 L289 244 Z M252 811 C252 768 288 732 331 732 C374 732 410 768 410 811 C410 854 374 890 331 890 C288 890 252 854 252 811 L252 811 Z M470 811 C470 768 506 732 549 732 C592 732 628 768 628 811 C628 854 592 890 549 890 C506 890 470 854 470 811 L470 811 Z " />
<glyph glyph-name="Aring" unicode="&#xc5;" horiz-adv-x="677" d="M517 0 L675 0 L496 667 L354 667 L2 0 L168 0 L231 126 L483 126 L517 0 Z M289 244 L401 479 L455 244 L289 244 Z M553 827 C553 852 543 876 526 893 C504 914 471 925 437 925 C403 925 370 914 348 893 C331 876 321 852 321 827 C321 802 331 778 348 761 C370 740 403 729 437 729 C471 729 504 740 526 761 C543 778 553 802 553 827 L553 827 Z M437 866 C453 866 464 861 471 854 C479 846 483 836 483 827 C483 818 479 808 471 800 C464 793 453 788 437 788 C421 788 410 793 403 800 C395 808 391 818 391 827 C391 836 395 846 403 854 C410 861 421 866 437 866 L437 866 Z " />
<glyph glyph-name="AE" unicode="&#xc6;" horiz-adv-x="920" d="M526 0 L914 0 L881 130 L649 130 L608 278 L839 278 L805 408 L575 408 L540 537 L772 537 L740 667 L361 667 L6 0 L170 0 L236 129 L491 129 L526 0 Z M295 247 L408 466 L463 247 L295 247 Z " />
<glyph glyph-name="Ccedilla" unicode="&#xc7;" horiz-adv-x="605" d="M587 187 C550 157 497 129 431 129 C370 129 320 151 290 181 C260 211 238 262 238 318 C238 371 257 431 298 475 C340 521 392 538 456 538 C545 538 596 498 623 471 L642 634 C618 648 556 682 453 682 C331 682 242 634 186 578 C124 516 80 421 80 305 C80 189 127 117 170 74 C206 39 279 -15 405 -15 C491 -15 545 10 567 21 L587 187 Z M376 -46 L276 -196 L356 -236 L476 -96 L376 -46 Z " />
<glyph glyph-name="Egrave" unicode="&#xc8;" horiz-adv-x="502" d="M520 667 L152 667 L70 0 L442 0 L458 130 L236 130 L254 278 L464 278 L480 408 L270 408 L286 537 L504 537 L520 667 Z M355 724 L426 777 L312 925 L207 853 L355 724 Z " />
<glyph glyph-name="Eacute" unicode="&#xc9;" horiz-adv-x="502" d="M520 667 L152 667 L70 0 L442 0 L458 130 L236 130 L254 278 L464 278 L480 408 L270 408 L286 537 L504 537 L520 667 Z M420 925 L267 777 L326 724 L506 853 L420 925 Z " />
<glyph glyph-name="Ecircumflex" unicode="&#xca;" horiz-adv-x="502" d="M520 667 L152 667 L70 0 L442 0 L458 130 L236 130 L254 278 L464 278 L480 408 L270 408 L286 537 L504 537 L520 667 Z M216 726 L349 819 L463 726 L529 797 L357 937 L152 797 L216 726 Z " />
<glyph glyph-name="Edieresis" unicode="&#xcb;" horiz-adv-x="502" d="M520 667 L152 667 L70 0 L442 0 L458 130 L236 130 L254 278 L464 278 L480 408 L270 408 L286 537 L504 537 L520 667 Z M159 811 C159 768 195 732 238 732 C281 732 317 768 317 811 C317 854 281 890 238 890 C195 890 159 854 159 811 L159 811 Z M377 811 C377 768 413 732 456 732 C499 732 535 768 535 811 C535 854 499 890 456 890 C413 890 377 854 377 811 L377 811 Z " />
<glyph glyph-name="Igrave" unicode="&#xcc;" horiz-adv-x="306" d="M155 667 L73 0 L227 0 L309 667 L155 667 Z M258 724 L329 777 L215 925 L110 853 L258 724 Z " />
<glyph glyph-name="Iacute" unicode="&#xcd;" horiz-adv-x="306" d="M155 667 L73 0 L227 0 L309 667 L155 667 Z M323 925 L170 777 L229 724 L409 853 L323 925 Z " />
<glyph glyph-name="Icircumflex" unicode="&#xce;" horiz-adv-x="306" d="M155 667 L73 0 L227 0 L309 667 L155 667 Z M122 726 L255 819 L369 726 L435 797 L263 937 L58 797 L122 726 Z " />
<glyph glyph-name="Idieresis" unicode="&#xcf;" horiz-adv-x="306" d="M155 667 L73 0 L227 0 L309 667 L155 667 Z M60 811 C60 768 96 732 139 732 C182 732 218 768 218 811 C218 854 182 890 139 890 C96 890 60 854 60 811 L60 811 Z M278 811 C278 768 314 732 357 732 C400 732 436 768 436 811 C436 854 400 890 357 890 C314 890 278 854 278 811 L278 811 Z " />
<glyph glyph-name="Eth" unicode="&#xd0;" horiz-adv-x="712" d="M148 413 L58 413 L44 303 L134 303 L97 0 L302 0 C423 0 528 19 605 92 C639 124 709 207 709 360 C709 465 673 538 629 582 C554 657 443 667 374 667 L179 667 L148 413 Z M317 537 L364 537 C416 537 471 521 503 490 C532 462 551 415 551 356 C551 277 522 215 484 181 C430 133 359 130 314 130 L267 130 L288 303 L408 303 L422 413 L302 413 L317 537 Z " />
<glyph glyph-name="Ntilde" unicode="&#xd1;" horiz-adv-x="796" d="M224 0 L277 436 L586 0 L720 0 L802 667 L648 667 L594 233 L287 667 L153 667 L70 0 L224 0 Z M642 867 C628 843 614 829 590 829 C577 829 562 833 539 843 L505 857 C485 865 463 871 442 871 C408 871 381 858 360 837 C346 823 329 798 320 782 L385 732 C400 761 418 771 436 771 C448 771 461 767 488 756 L521 743 C541 735 559 728 583 728 C614 728 638 739 660 759 C676 774 695 797 707 817 L642 867 Z " />
<glyph glyph-name="Ograve" unicode="&#xd2;" horiz-adv-x="810" d="M464 682 C378 682 275 662 190 581 C127 521 80 430 80 313 C80 204 128 127 174 80 C253 0 345 -15 428 -15 C515 -15 620 2 704 88 C774 160 807 263 807 358 C807 456 770 540 713 595 C669 637 592 682 464 682 L464 682 Z M458 540 C499 540 552 531 596 488 C640 445 649 391 649 348 C649 279 623 221 587 184 C538 134 483 127 438 127 C391 127 337 137 292 183 C261 214 238 262 238 323 C238 379 260 435 299 476 C339 518 392 540 458 540 L458 540 Z M479 724 L550 777 L436 925 L331 853 L479 724 Z " />
<glyph glyph-name="Oacute" unicode="&#xd3;" horiz-adv-x="810" d="M464 682 C378 682 275 662 190 581 C127 521 80 430 80 313 C80 204 128 127 174 80 C253 0 345 -15 428 -15 C515 -15 620 2 704 88 C774 160 807 263 807 358 C807 456 770 540 713 595 C669 637 592 682 464 682 L464 682 Z M458 540 C499 540 552 531 596 488 C640 445 649 391 649 348 C649 279 623 221 587 184 C538 134 483 127 438 127 C391 127 337 137 292 183 C261 214 238 262 238 323 C238 379 260 435 299 476 C339 518 392 540 458 540 L458 540 Z M574 925 L421 777 L480 724 L660 853 L574 925 Z " />
<glyph glyph-name="Ocircumflex" unicode="&#xd4;" horiz-adv-x="810" d="M464 682 C378 682 275 662 190 581 C127 521 80 430 80 313 C80 204 128 127 174 80 C253 0 345 -15 428 -15 C515 -15 620 2 704 88 C774 160 807 263 807 358 C807 456 770 540 713 595 C669 637 592 682 464 682 L464 682 Z M458 540 C499 540 552 531 596 488 C640 445 649 391 649 348 C649 279 623 221 587 184 C538 134 483 127 438 127 C391 127 337 137 292 183 C261 214 238 262 238 323 C238 379 260 435 299 476 C339 518 392 540 458 540 L458 540 Z M353 726 L486 819 L600 726 L666 797 L494 937 L289 797 L353 726 Z " />
<glyph glyph-name="Otilde" unicode="&#xd5;" horiz-adv-x="810" d="M464 682 C378 682 275 662 190 581 C127 521 80 430 80 313 C80 204 128 127 174 80 C253 0 345 -15 428 -15 C515 -15 620 2 704 88 C774 160 807 263 807 358 C807 456 770 540 713 595 C669 637 592 682 464 682 L464 682 Z M458 540 C499 540 552 531 596 488 C640 445 649 391 649 348 C649 279 623 221 587 184 C538 134 483 127 438 127 C391 127 337 137 292 183 C261 214 238 262 238 323 C238 379 260 435 299 476 C339 518 392 540 458 540 L458 540 Z M607 867 C593 843 579 829 555 829 C542 829 527 833 504 843 L470 857 C450 865 428 871 407 871 C373 871 346 858 325 837 C311 823 294 798 285 782 L350 732 C365 761 383 771 401 771 C413 771 426 767 453 756 L486 743 C506 735 524 728 548 728 C579 728 603 739 625 759 C641 774 660 797 672 817 L607 867 Z " />
<glyph glyph-name="Odieresis" unicode="&#xd6;" horiz-adv-x="810" d="M464 682 C378 682 275 662 190 581 C127 521 80 430 80 313 C80 204 128 127 174 80 C253 0 345 -15 428 -15 C515 -15 620 2 704 88 C774 160 807 263 807 358 C807 456 770 540 713 595 C669 637 592 682 464 682 L464 682 Z M458 540 C499 540 552 531 596 488 C640 445 649 391 649 348 C649 279 623 221 587 184 C538 134 483 127 438 127 C391 127 337 137 292 183 C261 214 238 262 238 323 C238 379 260 435 299 476 C339 518 392 540 458 540 L458 540 Z M297 811 C297 768 333 732 376 732 C419 732 455 768 455 811 C455 854 419 890 376 890 C333 890 297 854 297 811 L297 811 Z M515 811 C515 768 551 732 594 732 C637 732 673 768 673 811 C673 854 637 890 594 890 C551 890 515 854 515 811 L515 811 Z " />
<glyph glyph-name="multiply" unicode="&#xd7;" horiz-adv-x="500" d="M87 218 L170 135 L289 253 L407 134 L494 221 L376 340 L494 458 L410 542 L292 423 L174 542 L87 455 L205 336 L87 218 Z " />
<glyph glyph-name="Oslash" unicode="&#xd8;" horiz-adv-x="842" d="M41 37 L119 -47 L227 49 C293 3 358 -15 445 -15 C533 -15 638 2 722 88 C793 161 825 268 825 359 C825 405 814 469 777 537 L882 630 L803 714 L699 621 C629 666 562 682 482 682 C396 682 293 662 208 581 C144 520 98 429 98 318 C98 244 119 185 150 134 L41 37 Z M272 242 C262 266 256 292 256 323 C256 379 278 435 317 476 C358 519 410 540 476 540 C512 540 544 535 579 515 L272 242 Z M654 427 C665 396 667 368 667 348 C667 291 647 228 605 184 C562 140 513 127 456 127 C417 127 383 134 346 155 L654 427 Z " />
<glyph glyph-name="Ugrave" unicode="&#xd9;" horiz-adv-x="710" d="M151 667 L108 313 C105 286 100 238 100 208 C100 146 117 95 159 54 C220 -7 304 -15 370 -15 C425 -15 522 -12 589 57 C649 118 658 199 668 279 L716 667 L562 667 L516 289 C511 251 504 195 471 162 C454 145 423 129 373 129 C332 129 303 142 285 159 C260 184 256 218 256 245 C256 273 258 282 261 303 L305 667 L151 667 Z M444 724 L515 777 L401 925 L296 853 L444 724 Z " />
<glyph glyph-name="Uacute" unicode="&#xda;" horiz-adv-x="710" d="M151 667 L108 313 C105 286 100 238 100 208 C100 146 117 95 159 54 C220 -7 304 -15 370 -15 C425 -15 522 -12 589 57 C649 118 658 199 668 279 L716 667 L562 667 L516 289 C511 251 504 195 471 162 C454 145 423 129 373 129 C332 129 303 142 285 159 C260 184 256 218 256 245 C256 273 258 282 261 303 L305 667 L151 667 Z M524 925 L371 777 L430 724 L610 853 L524 925 Z " />
<glyph glyph-name="Ucircumflex" unicode="&#xdb;" horiz-adv-x="710" d="M151 667 L108 313 C105 286 100 238 100 208 C100 146 117 95 159 54 C220 -7 304 -15 370 -15 C425 -15 522 -12 589 57 C649 118 658 199 668 279 L716 667 L562 667 L516 289 C511 251 504 195 471 162 C454 145 423 129 373 129 C332 129 303 142 285 159 C260 184 256 218 256 245 C256 273 258 282 261 303 L305 667 L151 667 Z M313 726 L446 819 L560 726 L626 797 L454 937 L249 797 L313 726 Z " />
<glyph glyph-name="Udieresis" unicode="&#xdc;" horiz-adv-x="710" d="M151 667 L108 313 C105 286 100 238 100 208 C100 146 117 95 159 54 C220 -7 304 -15 370 -15 C425 -15 522 -12 589 57 C649 118 658 199 668 279 L716 667 L562 667 L516 289 C511 251 504 195 471 162 C454 145 423 129 373 129 C332 129 303 142 285 159 C260 184 256 218 256 245 C256 273 258 282 261 303 L305 667 L151 667 Z M257 811 C257 768 293 732 336 732 C379 732 415 768 415 811 C415 854 379 890 336 890 C293 890 257 854 257 811 L257 811 Z M475 811 C475 768 511 732 554 732 C597 732 633 768 633 811 C633 854 597 890 554 890 C511 890 475 854 475 811 L475 811 Z " />
<glyph glyph-name="Yacute" unicode="&#xdd;" horiz-adv-x="632" d="M236 0 L390 0 L428 311 L711 667 L523 667 L364 460 L255 667 L79 667 L274 311 L236 0 Z M485 925 L332 777 L391 724 L571 853 L485 925 Z " />
<glyph glyph-name="Thorn" unicode="&#xde;" horiz-adv-x="572" d="M152 667 L70 0 L224 0 L241 142 L330 142 C389 142 481 147 539 201 C579 238 604 302 604 376 C604 444 580 489 550 519 C496 573 428 575 358 575 L295 575 L306 667 L152 667 Z M280 449 L333 449 C362 449 401 447 425 424 C443 407 447 385 447 366 C447 349 444 319 421 297 C392 269 349 268 314 268 L257 268 L280 449 Z " />
<glyph glyph-name="germandbls" unicode="&#xdf;" horiz-adv-x="585" d="M204 0 L267 509 C271 540 276 573 300 596 C314 610 332 616 354 616 C382 616 399 607 409 597 C419 588 430 570 430 543 C430 510 415 490 398 477 C375 460 349 458 325 458 L320 458 L304 336 C329 336 370 331 392 315 C414 299 429 267 429 226 C429 199 418 166 398 145 C368 114 321 110 284 110 L279 110 L263 -14 L269 -14 C369 -14 459 -4 518 53 C556 90 581 149 581 223 C581 265 572 315 528 357 C509 374 486 388 461 396 C494 405 520 423 537 444 C559 471 571 510 571 550 C571 602 553 647 521 680 C471 731 406 740 357 740 C305 740 241 730 191 677 C145 628 129 558 122 502 L60 0 L204 0 Z " />
<glyph glyph-name="agrave" unicode="&#xe0;" horiz-adv-x="598" d="M444 392 C424 420 400 436 383 444 C354 458 322 461 296 461 C234 461 178 443 132 396 C89 352 60 286 60 204 C60 127 87 75 120 40 C159 -1 203 -15 258 -15 C275 -15 310 -13 341 1 C365 12 388 32 404 51 L393 0 L537 0 L592 446 L448 446 L444 392 Z M327 337 C366 337 389 324 402 312 C421 295 433 267 433 235 C433 202 421 164 395 139 C380 125 354 109 313 109 C284 109 258 117 237 139 C223 154 208 178 208 215 C208 252 222 284 242 304 C264 326 291 337 327 337 L327 337 Z M353 515 L424 563 L321 715 L218 650 L353 515 Z " />
<glyph glyph-name="aacute" unicode="&#xe1;" horiz-adv-x="598" d="M444 392 C424 420 400 436 383 444 C354 458 322 461 296 461 C234 461 178 443 132 396 C89 352 60 286 60 204 C60 127 87 75 120 40 C159 -1 203 -15 258 -15 C275 -15 310 -13 341 1 C365 12 388 32 404 51 L393 0 L537 0 L592 446 L448 446 L444 392 Z M327 337 C366 337 389 324 402 312 C421 295 433 267 433 235 C433 202 421 164 395 139 C380 125 354 109 313 109 C284 109 258 117 237 139 C223 154 208 178 208 215 C208 252 222 284 242 304 C264 326 291 337 327 337 L327 337 Z M405 715 L263 563 L322 515 L491 650 L405 715 Z " />
<glyph glyph-name="acircumflex" unicode="&#xe2;" horiz-adv-x="598" d="M444 392 C424 420 400 436 383 444 C354 458 322 461 296 461 C234 461 178 443 132 396 C89 352 60 286 60 204 C60 127 87 75 120 40 C159 -1 203 -15 258 -15 C275 -15 310 -13 341 1 C365 12 388 32 404 51 L393 0 L537 0 L592 446 L448 446 L444 392 Z M327 337 C366 337 389 324 402 312 C421 295 433 267 433 235 C433 202 421 164 395 139 C380 125 354 109 313 109 C284 109 258 117 237 139 C223 154 208 178 208 215 C208 252 222 284 242 304 C264 326 291 337 327 337 L327 337 Z M351 610 L457 515 L525 584 L358 726 L158 584 L220 515 L351 610 Z " />
<glyph glyph-name="atilde" unicode="&#xe3;" horiz-adv-x="598" d="M444 392 C424 420 400 436 383 444 C354 458 322 461 296 461 C234 461 178 443 132 396 C89 352 60 286 60 204 C60 127 87 75 120 40 C159 -1 203 -15 258 -15 C275 -15 310 -13 341 1 C365 12 388 32 404 51 L393 0 L537 0 L592 446 L448 446 L444 392 Z M327 337 C366 337 389 324 402 312 C421 295 433 267 433 235 C433 202 421 164 395 139 C380 125 354 109 313 109 C284 109 258 117 237 139 C223 154 208 178 208 215 C208 252 222 284 242 304 C264 326 291 337 327 337 L327 337 Z M469 657 C464 645 450 619 424 619 C413 619 400 621 372 632 L340 645 C318 654 298 661 272 661 C240 661 215 650 195 630 C178 613 162 586 154 567 L213 523 C228 551 247 561 265 561 C284 561 300 553 315 547 L347 534 C366 526 388 519 410 519 C441 519 465 532 487 553 C512 577 528 607 531 613 L469 657 Z " />
<glyph glyph-name="adieresis" unicode="&#xe4;" horiz-adv-x="598" d="M444 392 C424 420 400 436 383 444 C354 458 322 461 296 461 C234 461 178 443 132 396 C89 352 60 286 60 204 C60 127 87 75 120 40 C159 -1 203 -15 258 -15 C275 -15 310 -13 341 1 C365 12 388 32 404 51 L393 0 L537 0 L592 446 L448 446 L444 392 Z M327 337 C366 337 389 324 402 312 C421 295 433 267 433 235 C433 202 421 164 395 139 C380 125 354 109 313 109 C284 109 258 117 237 139 C223 154 208 178 208 215 C208 252 222 284 242 304 C264 326 291 337 327 337 L327 337 Z M156 599 C156 556 192 520 235 520 C278 520 314 556 314 599 C314 642 278 678 235 678 C192 678 156 642 156 599 L156 599 Z M374 599 C374 556 410 520 453 520 C496 520 532 556 532 599 C532 642 496 678 453 678 C410 678 374 642 374 599 L374 599 Z " />
<glyph glyph-name="aring" unicode="&#xe5;" horiz-adv-x="598" d="M444 392 C424 420 400 436 383 444 C354 458 322 461 296 461 C234 461 178 443 132 396 C89 352 60 286 60 204 C60 127 87 75 120 40 C159 -1 203 -15 258 -15 C275 -15 310 -13 341 1 C365 12 388 32 404 51 L393 0 L537 0 L592 446 L448 446 L444 392 Z M327 337 C366 337 389 324 402 312 C421 295 433 267 433 235 C433 202 421 164 395 139 C380 125 354 109 313 109 C284 109 258 117 237 139 C223 154 208 178 208 215 C208 252 222 284 242 304 C264 326 291 337 327 337 L327 337 Z M330 650 C340 650 353 647 361 641 C368 635 374 625 374 614 C374 603 368 593 361 587 C353 581 340 578 330 578 C320 578 307 581 299 587 C292 593 286 603 286 614 C286 625 292 635 299 641 C307 647 320 650 330 650 L330 650 Z M444 614 C444 644 431 665 417 679 C400 695 371 710 330 710 C289 710 260 695 243 679 C229 665 216 644 216 614 C216 584 229 563 243 549 C260 533 289 518 330 518 C371 518 400 533 417 549 C431 563 444 584 444 614 L444 614 Z " />
<glyph glyph-name="ae" unicode="&#xe6;" horiz-adv-x="840" d="M683 141 C669 112 641 90 598 90 C561 90 538 103 526 117 C508 137 500 173 500 198 L830 198 C832 212 834 227 834 245 C834 324 806 374 775 405 C729 451 670 461 622 461 C522 461 471 412 448 384 C426 426 386 461 286 461 C234 461 191 452 159 443 L146 333 C204 353 242 355 261 355 C291 355 321 349 339 334 C357 320 371 294 365 252 C336 270 303 279 249 279 C211 279 155 276 112 247 C79 225 49 183 49 124 C49 80 68 43 96 21 C136 -11 198 -15 235 -15 C292 -15 323 -6 341 1 C365 11 393 29 416 60 C437 30 463 14 482 5 C511 -8 555 -15 595 -15 C622 -15 681 -12 730 19 C765 42 799 82 817 132 L683 141 Z M268 192 C288 192 317 187 334 172 C342 164 348 155 348 142 C348 127 341 113 330 103 C312 88 284 83 262 83 C231 83 213 92 202 102 C192 111 187 122 187 134 C187 145 191 158 201 168 C216 184 243 192 268 192 L268 192 Z M515 284 C522 305 534 325 549 338 C562 350 584 361 615 361 C641 361 663 352 676 340 C691 326 702 302 706 284 L515 284 Z " />
<glyph glyph-name="ccedilla" unicode="&#xe7;" horiz-adv-x="431" d="M445 432 C402 453 360 461 315 461 C227 461 168 429 130 390 C85 344 60 280 60 208 C60 139 84 86 120 47 C166 -2 216 -15 275 -15 C307 -15 346 -12 393 11 L409 143 C388 124 357 107 318 107 C288 107 262 116 240 137 C222 154 208 180 208 216 C208 246 219 281 241 305 C251 315 278 339 328 339 C381 339 416 312 428 301 L445 432 Z M256 -46 L150 -196 L224 -236 L350 -97 L256 -46 Z " />
<glyph glyph-name="egrave" unicode="&#xe8;" horiz-adv-x="542" d="M218 283 C222 303 232 320 243 332 C255 344 276 359 311 359 C329 359 354 354 370 341 C386 328 397 304 399 283 L218 283 Z M537 195 C543 248 541 345 481 404 C447 437 390 461 314 461 C258 461 191 450 137 399 C100 364 60 299 60 201 C60 141 73 88 116 45 C169 -8 235 -15 290 -15 C331 -15 392 -11 443 27 C475 51 506 93 524 138 L379 150 C373 136 361 119 348 110 C330 98 308 97 291 97 C268 97 241 102 222 128 C210 145 203 173 204 195 L537 195 Z M351 515 L422 563 L319 715 L216 650 L351 515 Z " />
<glyph glyph-name="eacute" unicode="&#xe9;" horiz-adv-x="542" d="M218 283 C222 303 232 320 243 332 C255 344 276 359 311 359 C329 359 354 354 370 341 C386 328 397 304 399 283 L218 283 Z M537 195 C543 248 541 345 481 404 C447 437 390 461 314 461 C258 461 191 450 137 399 C100 364 60 299 60 201 C60 141 73 88 116 45 C169 -8 235 -15 290 -15 C331 -15 392 -11 443 27 C475 51 506 93 524 138 L379 150 C373 136 361 119 348 110 C330 98 308 97 291 97 C268 97 241 102 222 128 C210 145 203 173 204 195 L537 195 Z M423 715 L281 563 L340 515 L509 650 L423 715 Z " />
<glyph glyph-name="ecircumflex" unicode="&#xea;" horiz-adv-x="542" d="M218 283 C222 303 232 320 243 332 C255 344 276 359 311 359 C329 359 354 354 370 341 C386 328 397 304 399 283 L218 283 Z M537 195 C543 248 541 345 481 404 C447 437 390 461 314 461 C258 461 191 450 137 399 C100 364 60 299 60 201 C60 141 73 88 116 45 C169 -8 235 -15 290 -15 C331 -15 392 -11 443 27 C475 51 506 93 524 138 L379 150 C373 136 361 119 348 110 C330 98 308 97 291 97 C268 97 241 102 222 128 C210 145 203 173 204 195 L537 195 Z M341 610 L447 515 L515 584 L348 726 L148 584 L210 515 L341 610 Z " />
<glyph glyph-name="edieresis" unicode="&#xeb;" horiz-adv-x="542" d="M218 283 C222 303 232 320 243 332 C255 344 276 359 311 359 C329 359 354 354 370 341 C386 328 397 304 399 283 L218 283 Z M537 195 C543 248 541 345 481 404 C447 437 390 461 314 461 C258 461 191 450 137 399 C100 364 60 299 60 201 C60 141 73 88 116 45 C169 -8 235 -15 290 -15 C331 -15 392 -11 443 27 C475 51 506 93 524 138 L379 150 C373 136 361 119 348 110 C330 98 308 97 291 97 C268 97 241 102 222 128 C210 145 203 173 204 195 L537 195 Z M147 599 C147 556 183 520 226 520 C269 520 305 556 305 599 C305 642 269 678 226 678 C183 678 147 642 147 599 L147 599 Z M365 599 C365 556 401 520 444 520 C487 520 523 556 523 599 C523 642 487 678 444 678 C401 678 365 642 365 599 L365 599 Z " />
<glyph glyph-name="igrave" unicode="&#xec;" horiz-adv-x="276" d="M120 446 L65 0 L209 0 L264 446 L120 446 Z M201 515 L272 563 L189 715 L85 650 L201 515 Z " />
<glyph glyph-name="iacute" unicode="&#xed;" horiz-adv-x="276" d="M120 446 L65 0 L209 0 L264 446 L120 446 Z M262 715 L140 563 L199 515 L348 650 L262 715 Z " />
<glyph glyph-name="icircumflex" unicode="&#xee;" horiz-adv-x="276" d="M121 446 L66 0 L210 0 L265 446 L121 446 Z M215 602 L297 515 L369 584 L227 726 L51 584 L110 515 L215 602 Z " />
<glyph glyph-name="idieresis" unicode="&#xef;" horiz-adv-x="276" d="M121 446 L66 0 L210 0 L265 446 L121 446 Z M48 599 C48 556 80 520 119 520 C151 520 190 547 190 599 C190 651 151 678 119 678 C80 678 48 642 48 599 L48 599 Z M236 599 C236 547 275 520 307 520 C346 520 378 556 378 599 C378 642 346 678 307 678 C275 678 236 651 236 599 L236 599 Z " />
<glyph glyph-name="eth" unicode="&#xf0;" horiz-adv-x="580" d="M141 596 C183 597 227 592 273 580 L136 529 L163 454 L358 533 C406 504 438 454 444 393 C420 417 380 443 301 443 C238 443 177 425 128 376 C86 333 60 269 60 202 C60 118 100 69 122 48 C174 -3 237 -15 297 -15 C361 -15 431 -4 492 58 C563 130 578 234 578 335 C578 385 573 433 553 482 C535 526 511 558 482 584 L592 623 L563 699 L409 643 C365 663 300 686 192 692 L141 596 Z M319 327 C349 327 373 317 387 303 C403 288 415 263 415 229 C415 196 403 158 377 134 C363 121 339 107 303 107 C271 107 248 120 235 133 C219 149 208 175 208 206 C208 244 223 278 243 298 C259 314 283 327 319 327 L319 327 Z " />
<glyph glyph-name="ntilde" unicode="&#xf1;" horiz-adv-x="567" d="M111 446 L56 0 L200 0 L226 220 C229 244 235 287 261 314 C279 332 301 338 326 338 C341 338 363 335 379 319 C394 303 397 282 397 265 C397 258 397 239 391 193 L367 0 L511 0 L538 229 C544 277 545 299 545 314 C545 341 542 386 507 420 C473 453 428 458 391 458 C360 458 335 456 303 439 C284 429 265 415 248 397 L255 446 L111 446 Z M499 657 C494 645 480 619 454 619 C443 619 430 621 402 632 L370 645 C348 654 328 661 302 661 C270 661 245 650 225 630 C208 613 192 586 184 567 L243 523 C258 551 277 561 295 561 C314 561 330 553 345 547 L377 534 C396 526 418 519 440 519 C471 519 495 532 517 553 C542 577 558 607 561 613 L499 657 Z " />
<glyph glyph-name="ograve" unicode="&#xf2;" horiz-adv-x="592" d="M337 461 C255 461 181 433 132 385 C84 339 60 274 60 209 C60 143 86 88 121 52 C178 -7 250 -15 307 -15 C372 -15 449 -6 512 58 C559 106 584 176 584 241 C584 306 558 358 524 392 C480 436 409 461 337 461 L337 461 Z M315 107 C276 107 251 122 237 137 C220 155 208 182 208 213 C208 247 221 284 248 308 C271 329 301 339 328 339 C355 339 387 329 406 311 C423 295 436 268 436 234 C436 200 424 163 399 139 C380 121 351 107 315 107 L315 107 Z M343 515 L414 563 L311 715 L208 650 L343 515 Z " />
<glyph glyph-name="oacute" unicode="&#xf3;" horiz-adv-x="592" d="M337 461 C255 461 181 433 132 385 C84 339 60 274 60 209 C60 143 86 88 121 52 C178 -7 250 -15 307 -15 C372 -15 449 -6 512 58 C559 106 584 176 584 241 C584 306 558 358 524 392 C480 436 409 461 337 461 L337 461 Z M315 107 C276 107 251 122 237 137 C220 155 208 182 208 213 C208 247 221 284 248 308 C271 329 301 339 328 339 C355 339 387 329 406 311 C423 295 436 268 436 234 C436 200 424 163 399 139 C380 121 351 107 315 107 L315 107 Z M415 715 L273 563 L332 515 L501 650 L415 715 Z " />
<glyph glyph-name="ocircumflex" unicode="&#xf4;" horiz-adv-x="592" d="M337 461 C255 461 181 433 132 385 C84 339 60 274 60 209 C60 143 86 88 121 52 C178 -7 250 -15 307 -15 C372 -15 449 -6 512 58 C559 106 584 176 584 241 C584 306 558 358 524 392 C480 436 409 461 337 461 L337 461 Z M315 107 C276 107 251 122 237 137 C220 155 208 182 208 213 C208 247 221 284 248 308 C271 329 301 339 328 339 C355 339 387 329 406 311 C423 295 436 268 436 234 C436 200 424 163 399 139 C380 121 351 107 315 107 L315 107 Z M361 610 L467 515 L535 584 L368 726 L168 584 L230 515 L361 610 Z " />
<glyph glyph-name="otilde" unicode="&#xf5;" horiz-adv-x="592" d="M337 461 C255 461 181 433 132 385 C84 339 60 274 60 209 C60 143 86 88 121 52 C178 -7 250 -15 307 -15 C372 -15 449 -6 512 58 C559 106 584 176 584 241 C584 306 558 358 524 392 C480 436 409 461 337 461 L337 461 Z M315 107 C276 107 251 122 237 137 C220 155 208 182 208 213 C208 247 221 284 248 308 C271 329 301 339 328 339 C355 339 387 329 406 311 C423 295 436 268 436 234 C436 200 424 163 399 139 C380 121 351 107 315 107 L315 107 Z M479 657 C474 645 460 619 434 619 C423 619 410 621 382 632 L350 645 C328 654 308 661 282 661 C250 661 225 650 205 630 C188 613 172 586 164 567 L223 523 C238 551 257 561 275 561 C294 561 310 553 325 547 L357 534 C376 526 398 519 420 519 C451 519 475 532 497 553 C522 577 538 607 541 613 L479 657 Z " />
<glyph glyph-name="odieresis" unicode="&#xf6;" horiz-adv-x="592" d="M337 461 C255 461 181 433 132 385 C84 339 60 274 60 209 C60 143 86 88 121 52 C178 -7 250 -15 307 -15 C372 -15 449 -6 512 58 C559 106 584 176 584 241 C584 306 558 358 524 392 C480 436 409 461 337 461 L337 461 Z M315 107 C276 107 251 122 237 137 C220 155 208 182 208 213 C208 247 221 284 248 308 C271 329 301 339 328 339 C355 339 387 329 406 311 C423 295 436 268 436 234 C436 200 424 163 399 139 C380 121 351 107 315 107 L315 107 Z M166 599 C166 556 202 520 245 520 C288 520 324 556 324 599 C324 642 288 678 245 678 C202 678 166 642 166 599 L166 599 Z M384 599 C384 556 420 520 463 520 C506 520 542 556 542 599 C542 642 506 678 463 678 C420 678 384 642 384 599 L384 599 Z " />
<glyph glyph-name="divide" unicode="&#xf7;" horiz-adv-x="500" d="M73 282 L507 282 L507 398 L73 398 L73 282 Z M217 510 C217 470 250 437 290 437 C330 437 363 470 363 510 C363 550 330 583 290 583 C250 583 217 550 217 510 L217 510 Z M217 168 C217 128 250 95 290 95 C330 95 363 128 363 168 C363 208 330 241 290 241 C250 241 217 208 217 168 L217 168 Z " />
<glyph glyph-name="oslash" unicode="&#xf8;" horiz-adv-x="612" d="M30 6 L84 -52 L168 23 C218 -7 261 -15 322 -15 C385 -15 458 -7 523 58 C566 101 595 160 595 241 C595 292 580 332 555 368 L636 441 L587 498 L499 420 C451 450 405 461 348 461 C255 461 188 429 143 385 C95 338 71 275 71 209 C71 148 93 105 111 78 L30 6 Z M440 271 C445 257 447 243 447 229 C447 195 433 164 414 143 C400 128 372 107 325 107 C306 107 289 111 272 121 L440 271 Z M226 175 C221 189 219 203 219 216 C219 253 236 287 259 308 C279 327 305 339 340 339 C363 339 379 334 395 324 L226 175 Z " />
<glyph glyph-name="ugrave" unicode="&#xf9;" horiz-adv-x="570" d="M423 446 L395 212 C389 159 372 138 366 132 C350 115 323 107 300 107 C279 107 254 114 241 126 C231 135 222 151 222 175 C222 186 224 196 227 224 L253 446 L109 446 L82 219 C80 205 77 174 77 156 C77 109 95 64 125 36 C175 -12 254 -15 299 -15 C350 -15 421 -9 474 42 C524 90 533 152 539 205 L567 446 L423 446 Z M332 515 L403 563 L300 715 L197 650 L332 515 Z " />
<glyph glyph-name="uacute" unicode="&#xfa;" horiz-adv-x="570" d="M423 446 L395 212 C389 159 372 138 366 132 C350 115 323 107 300 107 C279 107 254 114 241 126 C231 135 222 151 222 175 C222 186 224 196 227 224 L253 446 L109 446 L82 219 C80 205 77 174 77 156 C77 109 95 64 125 36 C175 -12 254 -15 299 -15 C350 -15 421 -9 474 42 C524 90 533 152 539 205 L567 446 L423 446 Z M425 715 L283 563 L342 515 L511 650 L425 715 Z " />
<glyph glyph-name="ucircumflex" unicode="&#xfb;" horiz-adv-x="570" d="M423 446 L395 212 C389 159 372 138 366 132 C350 115 323 107 300 107 C279 107 254 114 241 126 C231 135 222 151 222 175 C222 186 224 196 227 224 L253 446 L109 446 L82 219 C80 205 77 174 77 156 C77 109 95 64 125 36 C175 -12 254 -15 299 -15 C350 -15 421 -9 474 42 C524 90 533 152 539 205 L567 446 L423 446 Z M341 610 L447 515 L515 584 L348 726 L148 584 L210 515 L341 610 Z " />
<glyph glyph-name="udieresis" unicode="&#xfc;" horiz-adv-x="570" d="M423 446 L395 212 C389 159 372 138 366 132 C350 115 323 107 300 107 C279 107 254 114 241 126 C231 135 222 151 222 175 C222 186 224 196 227 224 L253 446 L109 446 L82 219 C80 205 77 174 77 156 C77 109 95 64 125 36 C175 -12 254 -15 299 -15 C350 -15 421 -9 474 42 C524 90 533 152 539 205 L567 446 L423 446 Z M161 599 C161 556 197 520 240 520 C283 520 319 556 319 599 C319 642 283 678 240 678 C197 678 161 642 161 599 L161 599 Z M379 599 C379 556 415 520 458 520 C501 520 537 556 537 599 C537 642 501 678 458 678 C415 678 379 642 379 599 L379 599 Z " />
<glyph glyph-name="yacute" unicode="&#xfd;" horiz-adv-x="583" d="M40 -229 L202 -229 L633 446 L464 446 L314 202 L215 446 L51 446 L224 57 L40 -229 Z M431 715 L289 563 L348 515 L517 650 L431 715 Z " />
<glyph glyph-name="thorn" unicode="&#xfe;" horiz-adv-x="598" d="M210 55 C228 30 249 14 268 4 C299 -12 333 -15 365 -15 C423 -15 472 1 516 45 C560 89 591 160 591 245 C591 314 568 376 532 412 C508 435 466 461 397 461 C363 461 334 455 305 440 C288 431 267 416 249 394 L292 729 L148 729 L30 -229 L174 -229 L210 55 Z M341 337 C366 337 394 328 412 311 C430 295 443 264 443 236 C443 203 427 162 403 140 C382 120 352 109 323 109 C292 109 265 122 248 140 C226 163 221 192 221 213 C221 247 231 277 257 303 C279 325 306 337 341 337 L341 337 Z " />
<glyph glyph-name="ydieresis" unicode="&#xff;" horiz-adv-x="583" d="M40 -229 L202 -229 L633 446 L464 446 L314 202 L215 446 L51 446 L224 57 L40 -229 Z M161 599 C161 556 197 520 240 520 C283 520 319 556 319 599 C319 642 283 678 240 678 C197 678 161 642 161 599 L161 599 Z M379 599 C379 556 415 520 458 520 C501 520 537 556 537 599 C537 642 501 678 458 678 C415 678 379 642 379 599 L379 599 Z " />
<glyph glyph-name="Amacron" unicode="&#x100;" horiz-adv-x="677" d="M517 0 L675 0 L496 667 L354 667 L2 0 L168 0 L231 126 L483 126 L517 0 Z M289 244 L401 479 L455 244 L289 244 Z M228 753 L616 753 L628 845 L240 845 L228 753 Z " />
<glyph glyph-name="amacron" unicode="&#x101;" horiz-adv-x="598" d="M444 392 C424 420 400 436 383 444 C354 458 322 461 296 461 C234 461 178 443 132 396 C89 352 60 286 60 204 C60 127 87 75 120 40 C159 -1 203 -15 258 -15 C275 -15 310 -13 341 1 C365 12 388 32 404 51 L393 0 L537 0 L592 446 L448 446 L444 392 Z M327 337 C366 337 389 324 402 312 C421 295 433 267 433 235 C433 202 421 164 395 139 C380 125 354 109 313 109 C284 109 258 117 237 139 C223 154 208 178 208 215 C208 252 222 284 242 304 C264 326 291 337 327 337 L327 337 Z M167 543 L547 543 L558 633 L178 633 L167 543 Z " />
<glyph glyph-name="Abreve" unicode="&#x102;" horiz-adv-x="677" d="M517 0 L675 0 L496 667 L354 667 L2 0 L168 0 L231 126 L483 126 L517 0 Z M289 244 L401 479 L455 244 L289 244 Z M513 874 C510 857 500 839 489 829 C472 814 451 811 434 811 C420 811 393 813 377 832 C368 843 362 860 361 874 L265 874 C266 834 282 793 308 767 C346 729 403 725 431 725 C490 725 531 742 558 769 C582 793 602 835 609 874 L513 874 Z " />
<glyph glyph-name="abreve" unicode="&#x103;" horiz-adv-x="598" d="M444 392 C424 420 400 436 383 444 C354 458 322 461 296 461 C234 461 178 443 132 396 C89 352 60 286 60 204 C60 127 87 75 120 40 C159 -1 203 -15 258 -15 C275 -15 310 -13 341 1 C365 12 388 32 404 51 L393 0 L537 0 L592 446 L448 446 L444 392 Z M327 337 C366 337 389 324 402 312 C421 295 433 267 433 235 C433 202 421 164 395 139 C380 125 354 109 313 109 C284 109 258 117 237 139 C223 154 208 178 208 215 C208 252 222 284 242 304 C264 326 291 337 327 337 L327 337 Z M427 664 C423 645 413 628 401 619 C390 610 372 603 347 603 C318 603 301 612 292 622 C283 632 277 650 277 664 L183 664 C183 621 199 583 222 559 C257 523 306 517 346 517 C389 517 436 525 472 560 C497 584 516 624 521 664 L427 664 Z " />
<glyph glyph-name="Aogonek" unicode="&#x104;" horiz-adv-x="677" d="M354 667 L2 0 L168 0 L233 131 L482 131 L517 0 C488 -25 471 -49 469 -51 C454 -71 444 -92 444 -118 C444 -148 458 -165 467 -173 C486 -190 511 -193 528 -193 C552 -193 574 -187 594 -176 L621 -99 C609 -106 590 -114 571 -114 C568 -114 553 -113 544 -105 C538 -100 535 -90 535 -82 C535 -66 547 -49 554 -40 C562 -30 579 -11 589 0 L675 0 L496 667 L354 667 Z M292 251 L401 479 L453 251 L292 251 Z " />
<glyph glyph-name="aogonek" unicode="&#x105;" horiz-adv-x="598" d="M444 392 C424 420 400 436 383 444 C354 458 322 461 296 461 C234 461 178 443 132 396 C89 352 60 286 60 204 C60 127 87 75 120 40 C160 -2 205 -15 257 -15 C285 -15 312 -12 342 3 C354 9 380 23 404 51 L393 0 L431 0 C408 -21 393 -40 387 -48 C373 -66 358 -90 358 -120 C358 -142 368 -160 381 -171 C398 -186 420 -189 440 -189 C459 -189 482 -186 508 -172 L535 -95 C510 -108 493 -110 483 -110 C477 -110 466 -109 457 -101 C449 -94 447 -85 447 -79 C447 -72 449 -59 467 -35 C474 -26 487 -10 497 0 L537 0 L592 446 L448 446 L444 392 Z M327 337 C366 337 389 324 402 312 C421 295 433 267 433 235 C433 202 421 164 395 139 C380 125 354 109 313 109 C284 109 258 117 237 139 C223 154 208 178 208 215 C208 252 222 284 242 304 C264 326 291 337 327 337 L327 337 Z " />
<glyph glyph-name="Cacute" unicode="&#x106;" horiz-adv-x="605" d="M587 187 C550 157 497 129 431 129 C370 129 320 151 290 181 C260 211 238 262 238 318 C238 371 257 431 298 475 C340 521 392 538 456 538 C545 538 596 498 623 471 L642 634 C618 648 556 682 453 682 C331 682 242 634 186 578 C124 516 80 421 80 305 C80 189 127 117 170 74 C206 39 279 -15 405 -15 C491 -15 545 10 567 21 L587 187 Z M549 925 L396 777 L455 724 L635 853 L549 925 Z " />
<glyph glyph-name="cacute" unicode="&#x107;" horiz-adv-x="431" d="M445 432 C402 453 360 461 315 461 C227 461 168 429 130 390 C85 344 60 280 60 208 C60 139 84 86 120 47 C166 -2 216 -15 275 -15 C307 -15 346 -12 393 11 L409 143 C388 124 357 107 318 107 C288 107 262 116 240 137 C222 154 208 180 208 216 C208 246 219 281 241 305 C251 315 278 339 328 339 C381 339 416 312 428 301 L445 432 Z M395 715 L253 563 L312 515 L481 650 L395 715 Z " />
<glyph glyph-name="Ccircumflex" unicode="&#x108;" horiz-adv-x="605" d="M587 187 C550 157 497 129 431 129 C370 129 320 151 290 181 C260 211 238 262 238 318 C238 371 257 431 298 475 C340 521 392 538 456 538 C545 538 596 498 623 471 L642 634 C618 648 556 682 453 682 C331 682 242 634 186 578 C124 516 80 421 80 305 C80 189 127 117 170 74 C206 39 279 -15 405 -15 C491 -15 545 10 567 21 L587 187 Z M323 726 L456 819 L570 726 L636 797 L464 937 L259 797 L323 726 Z " />
<glyph glyph-name="ccircumflex" unicode="&#x109;" horiz-adv-x="431" d="M445 432 C402 453 360 461 315 461 C227 461 168 429 130 390 C85 344 60 280 60 208 C60 139 84 86 120 47 C166 -2 216 -15 275 -15 C307 -15 346 -12 393 11 L409 143 C388 124 357 107 318 107 C288 107 262 116 240 137 C222 154 208 180 208 216 C208 246 219 281 241 305 C251 315 278 339 328 339 C381 339 416 312 428 301 L445 432 Z M321 610 L427 515 L495 584 L328 726 L128 584 L190 515 L321 610 Z " />
<glyph glyph-name="Cdotaccent" unicode="&#x10a;" horiz-adv-x="605" d="M587 187 C550 157 497 129 431 129 C370 129 320 151 290 181 C260 211 238 262 238 318 C238 371 257 431 298 475 C340 521 392 538 456 538 C545 538 596 498 623 471 L642 634 C618 648 556 682 453 682 C331 682 242 634 186 578 C124 516 80 421 80 305 C80 189 127 117 170 74 C206 39 279 -15 405 -15 C491 -15 545 10 567 21 L587 187 Z M392 815 C392 767 429 730 477 730 C525 730 562 767 562 815 C562 863 525 900 477 900 C429 900 392 863 392 815 L392 815 Z " />
<glyph glyph-name="cdotaccent" unicode="&#x10b;" horiz-adv-x="431" d="M445 432 C402 453 360 461 315 461 C227 461 168 429 130 390 C85 344 60 280 60 208 C60 139 84 86 120 47 C166 -2 216 -15 275 -15 C307 -15 346 -12 393 11 L409 143 C388 124 357 107 318 107 C288 107 262 116 240 137 C222 154 208 180 208 216 C208 246 219 281 241 305 C251 315 278 339 328 339 C381 339 416 312 428 301 L445 432 Z M265 603 C265 556 301 520 348 520 C395 520 431 556 431 603 C431 650 395 686 348 686 C301 686 265 650 265 603 L265 603 Z " />
<glyph glyph-name="Ccaron" unicode="&#x10c;" horiz-adv-x="605" d="M587 187 C550 157 497 129 431 129 C370 129 320 151 290 181 C260 211 238 262 238 318 C238 371 257 431 298 475 C340 521 392 538 456 538 C545 538 596 498 623 471 L642 634 C618 648 556 682 453 682 C331 682 242 634 186 578 C124 516 80 421 80 305 C80 189 127 117 170 74 C206 39 279 -15 405 -15 C491 -15 545 10 567 21 L587 187 Z M456 844 L341 937 L277 867 L448 726 L654 867 L588 937 L456 844 Z " />
<glyph glyph-name="ccaron" unicode="&#x10d;" horiz-adv-x="431" d="M445 432 C402 453 360 461 315 461 C227 461 168 429 130 390 C85 344 60 280 60 208 C60 139 84 86 120 47 C166 -2 216 -15 275 -15 C307 -15 346 -12 393 11 L409 143 C388 124 357 107 318 107 C288 107 262 116 240 137 C222 154 208 180 208 216 C208 246 219 281 241 305 C251 315 278 339 328 339 C381 339 416 312 428 301 L445 432 Z M307 631 L200 726 L137 658 L302 515 L504 658 L437 726 L307 631 Z " />
<glyph glyph-name="Dcaron" unicode="&#x10e;" horiz-adv-x="685" d="M152 667 L70 0 L275 0 C396 0 501 19 578 92 C612 124 682 207 682 360 C682 465 646 538 602 582 C527 657 416 667 347 667 L152 667 Z M290 537 L337 537 C389 537 444 521 476 490 C505 462 524 415 524 356 C524 277 495 215 457 181 C403 133 332 130 287 130 L240 130 L290 537 Z M370 844 L255 937 L191 867 L362 726 L568 867 L502 937 L370 844 Z " />
<glyph glyph-name="dcaron" unicode="&#x10f;" horiz-adv-x="749" d="M441 392 C393 453 330 461 297 461 C241 461 184 445 137 398 C85 346 60 271 60 198 C60 127 85 72 121 36 C158 0 202 -15 256 -15 C274 -15 311 -14 342 1 C361 10 383 25 401 51 L393 0 L536 0 L626 729 L482 729 L441 392 Z M326 337 C363 337 388 321 402 307 C415 294 431 270 431 235 C431 204 418 166 396 143 C379 125 351 109 313 109 C277 109 253 122 239 136 C224 150 208 174 208 213 C208 250 222 282 244 304 C258 318 284 337 326 337 L326 337 Z M633 492 L721 472 L845 670 L715 700 L633 492 Z " />
<glyph glyph-name="Dcroat" unicode="&#x110;" horiz-adv-x="712" d="M148 413 L58 413 L44 303 L134 303 L97 0 L302 0 C423 0 528 19 605 92 C639 124 709 207 709 360 C709 465 673 538 629 582 C554 657 443 667 374 667 L179 667 L148 413 Z M317 537 L364 537 C416 537 471 521 503 490 C532 462 551 415 551 356 C551 277 522 215 484 181 C430 133 359 130 314 130 L267 130 L288 303 L408 303 L422 413 L302 413 L317 537 Z " />
<glyph glyph-name="dcroat" unicode="&#x111;" horiz-adv-x="608" d="M441 392 C393 453 330 461 297 461 C241 461 184 445 137 398 C85 346 60 271 60 198 C60 127 85 72 121 36 C158 0 202 -15 256 -15 C274 -15 311 -14 342 1 C361 10 383 25 401 51 L393 0 L536 0 L603 542 L683 542 L694 636 L614 636 L626 729 L482 729 L470 636 L278 636 L267 542 L459 542 L441 392 Z M326 337 C363 337 388 321 402 307 C415 294 431 270 431 235 C431 204 418 166 396 143 C379 125 351 109 313 109 C277 109 253 122 239 136 C224 150 208 174 208 213 C208 250 222 282 244 304 C258 318 284 337 326 337 L326 337 Z " />
<glyph glyph-name="Emacron" unicode="&#x112;" horiz-adv-x="502" d="M520 667 L152 667 L70 0 L442 0 L458 130 L236 130 L254 278 L464 278 L480 408 L270 408 L286 537 L504 537 L520 667 Z M145 753 L533 753 L545 845 L157 845 L145 753 Z " />
<glyph glyph-name="emacron" unicode="&#x113;" horiz-adv-x="542" d="M218 283 C222 303 232 320 243 332 C255 344 276 359 311 359 C329 359 354 354 370 341 C386 328 397 304 399 283 L218 283 Z M537 195 C543 248 541 345 481 404 C447 437 390 461 314 461 C258 461 191 450 137 399 C100 364 60 299 60 201 C60 141 73 88 116 45 C169 -8 235 -15 290 -15 C331 -15 392 -11 443 27 C475 51 506 93 524 138 L379 150 C373 136 361 119 348 110 C330 98 308 97 291 97 C268 97 241 102 222 128 C210 145 203 173 204 195 L537 195 Z M142 543 L522 543 L533 633 L153 633 L142 543 Z " />
<glyph glyph-name="Edotaccent" unicode="&#x116;" horiz-adv-x="502" d="M520 667 L152 667 L70 0 L442 0 L458 130 L236 130 L254 278 L464 278 L480 408 L270 408 L286 537 L504 537 L520 667 Z M259 815 C259 767 296 730 344 730 C392 730 429 767 429 815 C429 863 392 900 344 900 C296 900 259 863 259 815 L259 815 Z " />
<glyph glyph-name="edotaccent" unicode="&#x117;" horiz-adv-x="542" d="M218 283 C222 303 232 320 243 332 C255 344 276 359 311 359 C329 359 354 354 370 341 C386 328 397 304 399 283 L218 283 Z M537 195 C543 248 541 345 481 404 C447 437 390 461 314 461 C258 461 191 450 137 399 C100 364 60 299 60 201 C60 141 73 88 116 45 C169 -8 235 -15 290 -15 C331 -15 392 -11 443 27 C475 51 506 93 524 138 L379 150 C373 136 361 119 348 110 C330 98 308 97 291 97 C268 97 241 102 222 128 C210 145 203 173 204 195 L537 195 Z M257 603 C257 556 293 520 340 520 C387 520 423 556 423 603 C423 650 387 686 340 686 C293 686 257 650 257 603 L257 603 Z " />
<glyph glyph-name="Eogonek" unicode="&#x118;" horiz-adv-x="502" d="M520 667 L152 667 L70 0 L330 0 C301 -25 284 -49 282 -51 C267 -71 257 -92 257 -118 C257 -148 271 -165 280 -173 C299 -190 324 -193 341 -193 C365 -193 387 -187 407 -176 L434 -99 C422 -106 403 -114 384 -114 C381 -114 366 -113 357 -105 C351 -100 348 -90 348 -82 C348 -66 360 -49 367 -40 C375 -30 392 -11 402 0 L442 0 L458 130 L236 130 L254 278 L464 278 L480 408 L270 408 L286 537 L504 537 L520 667 Z " />
<glyph glyph-name="eogonek" unicode="&#x119;" horiz-adv-x="542" d="M537 195 C538 207 539 221 539 236 C539 289 528 358 481 404 C447 437 390 461 313 461 C247 461 186 445 137 399 C92 356 60 286 60 196 C60 151 69 92 116 45 C143 18 198 -16 292 -16 C279 -28 262 -46 252 -61 C241 -77 234 -99 234 -120 C234 -142 244 -159 257 -171 C274 -186 296 -189 316 -189 C335 -189 358 -186 384 -172 L411 -95 C392 -108 369 -110 359 -110 C347 -110 338 -106 333 -101 C327 -96 323 -89 323 -79 C323 -69 326 -55 342 -39 C357 -24 376 -15 406 2 C427 13 454 28 478 52 C503 77 518 105 524 138 L379 150 C373 136 361 119 348 110 C330 98 308 97 291 97 C268 97 241 102 222 128 C210 145 204 173 204 195 L537 195 Z M218 283 C222 303 232 320 243 332 C255 344 276 359 311 359 C329 359 354 354 370 341 C386 328 397 304 399 283 L218 283 Z " />
<glyph glyph-name="Ecaron" unicode="&#x11a;" horiz-adv-x="502" d="M520 667 L152 667 L70 0 L442 0 L458 130 L236 130 L254 278 L464 278 L480 408 L270 408 L286 537 L504 537 L520 667 Z M339 844 L224 937 L160 867 L331 726 L537 867 L471 937 L339 844 Z " />
<glyph glyph-name="ecaron" unicode="&#x11b;" horiz-adv-x="542" d="M218 283 C222 303 232 320 243 332 C255 344 276 359 311 359 C329 359 354 354 370 341 C386 328 397 304 399 283 L218 283 Z M537 195 C543 248 541 345 481 404 C447 437 390 461 314 461 C258 461 191 450 137 399 C100 364 60 299 60 201 C60 141 73 88 116 45 C169 -8 235 -15 290 -15 C331 -15 392 -11 443 27 C475 51 506 93 524 138 L379 150 C373 136 361 119 348 110 C330 98 308 97 291 97 C268 97 241 102 222 128 C210 145 203 173 204 195 L537 195 Z M327 631 L220 726 L157 658 L322 515 L524 658 L457 726 L327 631 Z " />
<glyph glyph-name="Gcircumflex" unicode="&#x11c;" horiz-adv-x="767" d="M432 241 L593 241 C583 203 560 172 536 155 C503 131 461 125 430 125 C389 125 335 131 293 173 C257 208 238 265 238 316 C238 374 259 440 303 486 C344 529 389 542 443 542 C472 542 510 538 545 514 C573 495 595 465 607 438 L749 513 C724 557 685 604 641 633 C581 672 513 682 453 682 C359 682 264 667 180 579 C126 522 80 436 80 310 C80 239 96 151 165 79 C236 5 325 -15 410 -15 C493 -15 580 0 656 79 C689 113 754 196 759 364 L447 364 L432 241 Z M313 726 L446 819 L560 726 L626 797 L454 937 L249 797 L313 726 Z " />
<glyph glyph-name="gcircumflex" unicode="&#x11d;" horiz-adv-x="595" d="M440 392 C387 457 324 461 293 461 C228 461 176 440 133 396 C87 349 60 281 60 203 C60 124 89 73 120 41 C166 -7 213 -12 258 -12 C298 -12 355 -6 395 51 L389 3 C386 -24 377 -59 359 -80 C348 -93 324 -113 280 -113 C256 -113 233 -108 217 -95 C204 -84 194 -67 190 -51 L36 -51 C43 -99 67 -143 98 -173 C147 -219 211 -229 271 -229 C323 -229 407 -223 466 -164 C513 -117 526 -54 533 -2 L589 446 L445 446 L440 392 Z M320 336 C360 336 383 323 397 309 C414 293 426 264 426 236 C426 203 411 162 389 141 C369 121 337 112 310 112 C285 112 256 122 238 139 C218 158 208 189 208 217 C208 250 221 287 241 307 C255 321 280 336 320 336 L320 336 Z M361 610 L467 515 L535 584 L368 726 L168 584 L230 515 L361 610 Z " />
<glyph glyph-name="Gbreve" unicode="&#x11e;" horiz-adv-x="767" d="M432 241 L593 241 C583 203 560 172 536 155 C503 131 461 125 430 125 C389 125 335 131 293 173 C257 208 238 265 238 316 C238 374 259 440 303 486 C344 529 389 542 443 542 C472 542 510 538 545 514 C573 495 595 465 607 438 L749 513 C724 557 685 604 641 633 C581 672 513 682 453 682 C359 682 264 667 180 579 C126 522 80 436 80 310 C80 239 96 151 165 79 C236 5 325 -15 410 -15 C493 -15 580 0 656 79 C689 113 754 196 759 364 L447 364 L432 241 Z M543 874 C540 857 530 839 519 829 C502 814 481 811 464 811 C450 811 423 813 407 832 C398 843 392 860 391 874 L295 874 C296 834 312 793 338 767 C376 729 433 725 461 725 C520 725 561 742 588 769 C612 793 632 835 639 874 L543 874 Z " />
<glyph glyph-name="gbreve" unicode="&#x11f;" horiz-adv-x="595" d="M440 392 C387 457 324 461 293 461 C228 461 176 440 133 396 C87 349 60 281 60 203 C60 124 89 73 120 41 C166 -7 213 -12 258 -12 C298 -12 355 -6 395 51 L389 3 C386 -24 377 -59 359 -80 C348 -93 324 -113 280 -113 C256 -113 233 -108 217 -95 C204 -84 194 -67 190 -51 L36 -51 C43 -99 67 -143 98 -173 C147 -219 211 -229 271 -229 C323 -229 407 -223 466 -164 C513 -117 526 -54 533 -2 L589 446 L445 446 L440 392 Z M320 336 C360 336 383 323 397 309 C414 293 426 264 426 236 C426 203 411 162 389 141 C369 121 337 112 310 112 C285 112 256 122 238 139 C218 158 208 189 208 217 C208 250 221 287 241 307 C255 321 280 336 320 336 L320 336 Z M427 664 C423 645 413 628 401 619 C390 610 372 603 347 603 C318 603 301 612 292 622 C283 632 277 650 277 664 L183 664 C183 621 199 583 222 559 C257 523 306 517 346 517 C389 517 436 525 472 560 C497 584 516 624 521 664 L427 664 Z " />
<glyph glyph-name="Gdotaccent" unicode="&#x120;" horiz-adv-x="767" d="M432 241 L593 241 C583 203 560 172 536 155 C503 131 461 125 430 125 C389 125 335 131 293 173 C257 208 238 265 238 316 C238 374 259 440 303 486 C344 529 389 542 443 542 C472 542 510 538 545 514 C573 495 595 465 607 438 L749 513 C724 557 685 604 641 633 C581 672 513 682 453 682 C359 682 264 667 180 579 C126 522 80 436 80 310 C80 239 96 151 165 79 C236 5 325 -15 410 -15 C493 -15 580 0 656 79 C689 113 754 196 759 364 L447 364 L432 241 Z M386 815 C386 767 423 730 471 730 C519 730 556 767 556 815 C556 863 519 900 471 900 C423 900 386 863 386 815 L386 815 Z " />
<glyph glyph-name="gdotaccent" unicode="&#x121;" horiz-adv-x="595" d="M440 392 C387 457 324 461 293 461 C228 461 176 440 133 396 C87 349 60 281 60 203 C60 124 89 73 120 41 C166 -7 213 -12 258 -12 C298 -12 355 -6 395 51 L389 3 C386 -24 377 -59 359 -80 C348 -93 324 -113 280 -113 C256 -113 233 -108 217 -95 C204 -84 194 -67 190 -51 L36 -51 C43 -99 67 -143 98 -173 C147 -219 211 -229 271 -229 C323 -229 407 -223 466 -164 C513 -117 526 -54 533 -2 L589 446 L445 446 L440 392 Z M320 336 C360 336 383 323 397 309 C414 293 426 264 426 236 C426 203 411 162 389 141 C369 121 337 112 310 112 C285 112 256 122 238 139 C218 158 208 189 208 217 C208 250 221 287 241 307 C255 321 280 336 320 336 L320 336 Z M246 603 C246 556 282 520 329 520 C376 520 412 556 412 603 C412 650 376 686 329 686 C282 686 246 650 246 603 L246 603 Z " />
<glyph glyph-name="Gcommaaccent" unicode="&#x122;" horiz-adv-x="767" d="M432 241 L593 241 C583 203 560 172 536 155 C503 131 461 125 430 125 C389 125 335 131 293 173 C257 208 238 265 238 316 C238 374 259 440 303 486 C344 529 389 542 443 542 C472 542 510 538 545 514 C573 495 595 465 607 438 L749 513 C724 557 685 604 641 633 C581 672 513 682 453 682 C359 682 264 667 180 579 C126 522 80 436 80 310 C80 239 96 151 165 79 C236 5 325 -15 410 -15 C493 -15 580 0 656 79 C689 113 754 196 759 364 L447 364 L432 241 Z M295 -248 L387 -260 L495 -66 L361 -50 L295 -248 Z " />
<glyph glyph-name="gcommaaccent" unicode="&#x123;" horiz-adv-x="595" d="M440 392 C387 457 324 461 293 461 C228 461 176 440 133 396 C87 349 60 281 60 203 C60 124 89 73 120 41 C166 -7 213 -12 258 -12 C298 -12 355 -6 395 51 L389 3 C386 -24 377 -59 359 -80 C348 -93 324 -113 280 -113 C256 -113 233 -108 217 -95 C204 -84 194 -67 190 -51 L36 -51 C43 -99 67 -143 98 -173 C147 -219 211 -229 271 -229 C323 -229 407 -223 466 -164 C513 -117 526 -54 533 -2 L589 446 L445 446 L440 392 Z M320 336 C360 336 383 323 397 309 C414 293 426 264 426 236 C426 203 411 162 389 141 C369 121 337 112 310 112 C285 112 256 122 238 139 C218 158 208 189 208 217 C208 250 221 287 241 307 C255 321 280 336 320 336 L320 336 Z M420 686 L328 698 L220 514 L354 498 L420 686 Z " />
<glyph glyph-name="Hcircumflex" unicode="&#x124;" horiz-adv-x="720" d="M306 667 L152 667 L70 0 L224 0 L259 287 L525 287 L490 0 L644 0 L726 667 L572 667 L541 417 L275 417 L306 667 Z M313 726 L446 819 L560 726 L626 797 L454 937 L249 797 L313 726 Z " />
<glyph glyph-name="hcircumflex" unicode="&#x125;" horiz-adv-x="571" d="M150 729 L60 0 L204 0 L230 220 C233 244 239 288 265 314 C284 333 306 338 332 338 C345 338 367 335 383 319 C398 303 401 282 401 265 C401 258 401 239 395 193 L371 0 L515 0 L542 229 C548 277 549 299 549 314 C549 341 546 386 511 420 C477 453 433 458 398 458 C365 458 339 456 307 439 C292 431 272 418 252 397 L294 729 L150 729 Z M234 833 L340 738 L408 807 L241 949 L41 807 L103 738 L234 833 Z " />
<glyph glyph-name="Hbar" unicode="&#x126;" horiz-adv-x="720" d="M306 667 L152 667 L145 614 L85 614 L72 508 L132 508 L70 0 L224 0 L260 287 L526 287 L490 0 L644 0 L706 508 L766 508 L779 614 L719 614 L726 667 L572 667 L565 614 L299 614 L306 667 Z M552 508 L541 416 L275 416 L286 508 L552 508 Z " />
<glyph glyph-name="hbar" unicode="&#x127;" horiz-adv-x="581" d="M70 0 L214 0 L240 220 C243 244 249 287 275 314 C293 332 315 338 340 338 C355 338 377 335 393 319 C408 303 411 282 411 265 C411 258 411 239 405 193 L381 0 L525 0 L552 229 C558 277 559 299 559 314 C559 341 556 386 521 420 C487 453 443 458 408 458 C375 458 349 456 317 439 C302 431 282 418 262 397 L281 542 L473 542 L484 636 L292 636 L304 729 L160 729 L148 636 L68 636 L57 542 L137 542 L70 0 Z " />
<glyph glyph-name="Imacron" unicode="&#x12a;" horiz-adv-x="306" d="M155 667 L73 0 L227 0 L309 667 L155 667 Z M47 753 L435 753 L447 845 L59 845 L47 753 Z " />
<glyph glyph-name="imacron" unicode="&#x12b;" horiz-adv-x="276" d="M120 446 L65 0 L209 0 L264 446 L120 446 Z M66 543 L342 543 L353 633 L77 633 L66 543 Z " />
<glyph glyph-name="Iogonek" unicode="&#x12e;" horiz-adv-x="306" d="M155 667 L73 0 L155 0 C126 -25 109 -49 107 -51 C92 -71 82 -92 82 -118 C82 -148 96 -165 105 -173 C124 -190 149 -193 166 -193 C190 -193 212 -187 232 -176 L259 -99 C247 -106 228 -114 209 -114 C206 -114 191 -113 182 -105 C176 -100 173 -90 173 -82 C173 -66 185 -49 192 -40 C200 -30 217 -11 227 0 L309 667 L155 667 Z " />
<glyph glyph-name="iogonek" unicode="&#x12f;" horiz-adv-x="276" d="M120 446 L65 0 L143 0 C120 -21 105 -40 99 -48 C85 -66 70 -90 70 -120 C70 -142 80 -160 93 -171 C110 -186 132 -189 152 -189 C171 -189 194 -186 220 -172 L247 -95 C222 -108 205 -110 195 -110 C189 -110 178 -109 169 -101 C161 -94 159 -85 159 -79 C159 -72 161 -59 179 -35 C186 -26 199 -10 209 0 L264 446 L120 446 Z M127 636 C127 589 164 552 211 552 C258 552 295 589 295 636 C295 683 258 720 211 720 C164 720 127 683 127 636 L127 636 Z " />
<glyph glyph-name="Idotaccent" unicode="&#x130;" horiz-adv-x="306" d="M155 667 L73 0 L227 0 L309 667 L155 667 Z M155 815 C155 767 192 730 240 730 C288 730 325 767 325 815 C325 863 288 900 240 900 C192 900 155 863 155 815 L155 815 Z " />
<glyph glyph-name="dotlessi" unicode="&#x131;" horiz-adv-x="276" d="M120 446 L65 0 L209 0 L264 446 L120 446 Z " />
<glyph glyph-name="Jcircumflex" unicode="&#x134;" horiz-adv-x="415" d="M267 667 L211 212 C207 176 200 150 183 135 C173 126 161 121 144 121 C125 121 112 128 104 135 C94 144 85 159 80 173 L-25 77 C-8 48 16 24 42 9 C78 -12 113 -15 148 -15 C188 -15 250 -11 297 34 C352 86 359 167 365 214 L421 667 L267 667 Z M228 726 L361 819 L475 726 L541 797 L369 937 L164 797 L228 726 Z " />
<glyph glyph-name="jcircumflex" unicode="&#x135;" horiz-adv-x="276" d="M120 446 L35 -229 L179 -229 L264 446 L120 446 Z M215 602 L297 515 L369 584 L227 726 L51 584 L110 515 L215 602 Z " />
<glyph glyph-name="Kcommaaccent" unicode="&#x136;" horiz-adv-x="670" d="M306 667 L152 667 L70 0 L224 0 L261 302 L462 0 L656 0 L409 344 L700 667 L516 667 L272 388 L306 667 Z M235 -248 L327 -260 L435 -66 L301 -50 L235 -248 Z " />
<glyph glyph-name="kcommaaccent" unicode="&#x137;" horiz-adv-x="566" d="M151 729 L60 0 L204 0 L230 196 L394 0 L579 0 L377 241 L596 446 L404 446 L240 282 L295 729 L151 729 Z M175 -238 L267 -250 L375 -66 L241 -50 L175 -238 Z " />
<glyph glyph-name="Lacute" unicode="&#x139;" horiz-adv-x="448" d="M152 667 L70 0 L432 0 L448 130 L240 130 L306 667 L152 667 Z M339 925 L186 777 L245 724 L425 853 L339 925 Z " />
<glyph glyph-name="lacute" unicode="&#x13a;" horiz-adv-x="264" d="M150 729 L60 0 L204 0 L294 729 L150 729 Z M287 955 L145 803 L204 755 L373 890 L287 955 Z " />
<glyph glyph-name="Lcommaaccent" unicode="&#x13b;" horiz-adv-x="448" d="M152 667 L70 0 L432 0 L448 130 L240 130 L306 667 L152 667 Z M150 -248 L242 -260 L350 -66 L216 -50 L150 -248 Z " />
<glyph glyph-name="lcommaaccent" unicode="&#x13c;" horiz-adv-x="264" d="M150 729 L60 0 L204 0 L294 729 L150 729 Z M10 -238 L102 -250 L210 -66 L76 -50 L10 -238 Z " />
<glyph glyph-name="Lcaron" unicode="&#x13d;" horiz-adv-x="448" d="M152 667 L70 0 L432 0 L448 130 L240 130 L306 667 L152 667 Z M330 472 L418 452 L564 650 L434 680 L330 472 Z " />
<glyph glyph-name="lcaron" unicode="&#x13e;" horiz-adv-x="409" d="M150 729 L60 0 L204 0 L294 729 L150 729 Z M293 492 L381 472 L505 670 L375 700 L293 492 Z " />
<glyph glyph-name="Ldot" unicode="&#x13f;" horiz-adv-x="448" d="M152 667 L70 0 L432 0 L448 130 L240 130 L306 667 L152 667 Z M332 334 C332 286 369 249 417 249 C465 249 502 286 502 334 C502 382 465 419 417 419 C369 419 332 382 332 334 L332 334 Z " />
<glyph glyph-name="ldot" unicode="&#x140;" horiz-adv-x="439" d="M150 729 L60 0 L204 0 L294 729 L150 729 Z M313 364 C313 317 349 281 396 281 C443 281 479 317 479 364 C479 411 443 447 396 447 C349 447 313 411 313 364 L313 364 Z " />
<glyph glyph-name="Lslash" unicode="&#x141;" horiz-adv-x="467" d="M92 0 L453 0 L469 130 L262 130 L285 321 L395 386 L410 506 L300 441 L328 667 L174 667 L138 378 L46 323 L31 203 L124 258 L92 0 Z " />
<glyph glyph-name="lslash" unicode="&#x142;" horiz-adv-x="268" d="M121 449 L34 395 L21 289 L108 343 L66 0 L210 0 L260 410 L347 464 L360 570 L273 516 L300 729 L156 729 L121 449 Z " />
<glyph glyph-name="Nacute" unicode="&#x143;" horiz-adv-x="796" d="M224 0 L277 436 L586 0 L720 0 L802 667 L648 667 L594 233 L287 667 L153 667 L70 0 L224 0 Z M567 925 L414 777 L473 724 L653 853 L567 925 Z " />
<glyph glyph-name="nacute" unicode="&#x144;" horiz-adv-x="567" d="M111 446 L56 0 L200 0 L226 220 C229 244 235 287 261 314 C279 332 301 338 326 338 C341 338 363 335 379 319 C394 303 397 282 397 265 C397 258 397 239 391 193 L367 0 L511 0 L538 229 C544 277 545 299 545 314 C545 341 542 386 507 420 C473 453 428 458 391 458 C360 458 335 456 303 439 C284 429 265 415 248 397 L255 446 L111 446 Z M425 715 L283 563 L342 515 L511 650 L425 715 Z " />
<glyph glyph-name="Ncommaaccent" unicode="&#x145;" horiz-adv-x="796" d="M224 0 L277 436 L586 0 L720 0 L802 667 L648 667 L594 233 L287 667 L153 667 L70 0 L224 0 Z M294 -248 L386 -260 L494 -66 L360 -50 L294 -248 Z " />
<glyph glyph-name="ncommaaccent" unicode="&#x146;" horiz-adv-x="567" d="M111 446 L56 0 L200 0 L226 220 C229 244 235 287 261 314 C279 332 301 338 326 338 C341 338 363 335 379 319 C394 303 397 282 397 265 C397 258 397 239 391 193 L367 0 L511 0 L538 229 C544 277 545 299 545 314 C545 341 542 386 507 420 C473 453 428 458 391 458 C360 458 335 456 303 439 C284 429 265 415 248 397 L255 446 L111 446 Z M165 -238 L257 -250 L365 -66 L231 -50 L165 -238 Z " />
<glyph glyph-name="Ncaron" unicode="&#x147;" horiz-adv-x="796" d="M224 0 L277 436 L586 0 L720 0 L802 667 L648 667 L594 233 L287 667 L153 667 L70 0 L224 0 Z M485 844 L370 937 L306 867 L477 726 L683 867 L617 937 L485 844 Z " />
<glyph glyph-name="ncaron" unicode="&#x148;" horiz-adv-x="567" d="M111 446 L56 0 L200 0 L226 220 C229 244 235 287 261 314 C279 332 301 338 326 338 C341 338 363 335 379 319 C394 303 397 282 397 265 C397 258 397 239 391 193 L367 0 L511 0 L538 229 C544 277 545 299 545 314 C545 341 542 386 507 420 C473 453 428 458 391 458 C360 458 335 456 303 439 C284 429 265 415 248 397 L255 446 L111 446 Z M357 631 L250 726 L187 658 L352 515 L554 658 L487 726 L357 631 Z " />
<glyph glyph-name="Omacron" unicode="&#x14c;" horiz-adv-x="810" d="M464 682 C378 682 275 662 190 581 C127 521 80 430 80 313 C80 204 128 127 174 80 C253 0 345 -15 428 -15 C515 -15 620 2 704 88 C774 160 807 263 807 358 C807 456 770 540 713 595 C669 637 592 682 464 682 L464 682 Z M458 540 C499 540 552 531 596 488 C640 445 649 391 649 348 C649 279 623 221 587 184 C538 134 483 127 438 127 C391 127 337 137 292 183 C261 214 238 262 238 323 C238 379 260 435 299 476 C339 518 392 540 458 540 L458 540 Z M298 753 L686 753 L698 845 L310 845 L298 753 Z " />
<glyph glyph-name="omacron" unicode="&#x14d;" horiz-adv-x="592" d="M337 461 C255 461 181 433 132 385 C84 339 60 274 60 209 C60 143 86 88 121 52 C178 -7 250 -15 307 -15 C372 -15 449 -6 512 58 C559 106 584 176 584 241 C584 306 558 358 524 392 C480 436 409 461 337 461 L337 461 Z M315 107 C276 107 251 122 237 137 C220 155 208 182 208 213 C208 247 221 284 248 308 C271 329 301 339 328 339 C355 339 387 329 406 311 C423 295 436 268 436 234 C436 200 424 163 399 139 C380 121 351 107 315 107 L315 107 Z M167 543 L547 543 L558 633 L178 633 L167 543 Z " />
<glyph glyph-name="Obreve" unicode="&#x14e;" horiz-adv-x="810" d="M464 682 C378 682 275 662 190 581 C127 521 80 430 80 313 C80 204 128 127 174 80 C253 0 345 -15 428 -15 C515 -15 620 2 704 88 C774 160 807 263 807 358 C807 456 770 540 713 595 C669 637 592 682 464 682 L464 682 Z M458 540 C499 540 552 531 596 488 C640 445 649 391 649 348 C649 279 623 221 587 184 C538 134 483 127 438 127 C391 127 337 137 292 183 C261 214 238 262 238 323 C238 379 260 435 299 476 C339 518 392 540 458 540 L458 540 Z M563 874 C560 857 550 839 539 829 C522 814 501 811 484 811 C470 811 443 813 427 832 C418 843 412 860 411 874 L315 874 C316 834 332 793 358 767 C396 729 453 725 481 725 C540 725 581 742 608 769 C632 793 652 835 659 874 L563 874 Z " />
<glyph glyph-name="obreve" unicode="&#x14f;" horiz-adv-x="592" d="M337 461 C255 461 181 433 132 385 C84 339 60 274 60 209 C60 143 86 88 121 52 C178 -7 250 -15 307 -15 C372 -15 449 -6 512 58 C559 106 584 176 584 241 C584 306 558 358 524 392 C480 436 409 461 337 461 L337 461 Z M315 107 C276 107 251 122 237 137 C220 155 208 182 208 213 C208 247 221 284 248 308 C271 329 301 339 328 339 C355 339 387 329 406 311 C423 295 436 268 436 234 C436 200 424 163 399 139 C380 121 351 107 315 107 L315 107 Z M437 664 C433 645 423 628 411 619 C400 610 382 603 357 603 C328 603 311 612 302 622 C293 632 287 650 287 664 L193 664 C193 621 209 583 232 559 C267 523 316 517 356 517 C399 517 446 525 482 560 C507 584 526 624 531 664 L437 664 Z " />
<glyph glyph-name="Ohungarumlaut" unicode="&#x150;" horiz-adv-x="810" d="M464 682 C378 682 275 662 190 581 C127 521 80 430 80 313 C80 204 128 127 174 80 C253 0 345 -15 428 -15 C515 -15 620 2 704 88 C774 160 807 263 807 358 C807 456 770 540 713 595 C669 637 592 682 464 682 L464 682 Z M458 540 C499 540 552 531 596 488 C640 445 649 391 649 348 C649 279 623 221 587 184 C538 134 483 127 438 127 C391 127 337 137 292 183 C261 214 238 262 238 323 C238 379 260 435 299 476 C339 518 392 540 458 540 L458 540 Z M464 925 L336 772 L385 724 L541 859 L464 925 Z M650 925 L522 772 L572 724 L728 859 L650 925 Z " />
<glyph glyph-name="ohungarumlaut" unicode="&#x151;" horiz-adv-x="592" d="M337 461 C255 461 181 433 132 385 C84 339 60 274 60 209 C60 143 86 88 121 52 C178 -7 250 -15 307 -15 C372 -15 449 -6 512 58 C559 106 584 176 584 241 C584 306 558 358 524 392 C480 436 409 461 337 461 L337 461 Z M315 107 C276 107 251 122 237 137 C220 155 208 182 208 213 C208 247 221 284 248 308 C271 329 301 339 328 339 C355 339 387 329 406 311 C423 295 436 268 436 234 C436 200 424 163 399 139 C380 121 351 107 315 107 L315 107 Z M327 710 L204 557 L250 509 L401 644 L327 710 Z M507 709 L384 557 L431 509 L582 644 L507 709 Z " />
<glyph glyph-name="OE" unicode="&#x152;" horiz-adv-x="1032" d="M1050 667 L685 667 L673 571 C650 605 619 632 589 648 C540 675 481 681 438 681 C349 681 265 660 191 587 C127 523 80 421 80 308 C80 203 118 120 174 67 C241 3 323 -14 396 -14 C444 -14 489 -7 532 15 C577 38 607 72 616 83 L606 0 L968 0 L984 130 L761 130 L779 278 L986 278 L1002 406 L795 406 L811 537 L1034 537 L1050 667 Z M430 125 C358 125 314 154 289 181 C255 217 238 266 238 314 C238 377 265 443 304 483 C329 509 376 542 450 542 C511 542 556 517 584 489 C606 466 637 421 637 346 C637 283 615 225 576 185 C554 162 507 125 430 125 L430 125 Z " />
<glyph glyph-name="oe" unicode="&#x153;" horiz-adv-x="903" d="M749 147 C729 103 688 97 666 97 C632 97 605 107 590 123 C574 139 564 168 564 195 L894 195 C898 215 899 234 899 257 C899 297 893 359 843 406 C791 455 717 461 669 461 C584 461 534 431 502 388 C466 429 413 461 321 461 C254 461 196 445 144 398 C93 351 59 282 59 199 C59 125 88 78 114 50 C161 -1 223 -15 288 -15 C337 -15 414 -7 469 67 C491 35 537 -15 658 -15 C719 -15 768 -1 802 23 C837 48 866 93 880 138 L749 147 Z M327 339 C353 339 381 330 399 311 C421 289 424 262 424 243 C424 191 403 159 388 143 C364 117 336 107 302 107 C265 107 244 123 234 133 C216 151 207 177 207 203 C207 237 221 279 246 305 C266 325 294 339 327 339 L327 339 Z M579 283 C585 302 597 321 611 334 C627 349 651 359 681 359 C701 359 727 352 743 339 C759 326 770 304 774 283 L579 283 Z " />
<glyph glyph-name="Racute" unicode="&#x154;" horiz-adv-x="607" d="M152 667 L70 0 L224 0 L256 263 L417 0 L597 0 L425 271 C462 278 502 297 531 325 C564 358 586 408 586 471 C586 540 561 583 538 607 C488 661 425 667 361 667 L152 667 Z M291 547 L314 547 C349 547 378 544 398 531 C425 514 430 487 430 466 C430 438 423 409 396 388 C369 367 331 364 306 364 L268 364 L291 547 Z M463 925 L310 777 L369 724 L549 853 L463 925 Z " />
<glyph glyph-name="racute" unicode="&#x155;" horiz-adv-x="384" d="M56 0 L200 0 L224 190 C230 238 242 280 267 304 C281 317 305 331 341 331 C369 331 390 323 404 316 L432 450 C417 454 397 457 373 457 C357 457 326 454 298 439 C277 427 256 408 242 380 L255 446 L111 446 L56 0 Z M355 715 L213 563 L272 515 L441 650 L355 715 Z " />
<glyph glyph-name="Rcommaaccent" unicode="&#x156;" horiz-adv-x="607" d="M152 667 L70 0 L224 0 L256 263 L417 0 L597 0 L425 271 C462 278 502 297 531 325 C564 358 586 408 586 471 C586 540 561 583 538 607 C488 661 425 667 361 667 L152 667 Z M291 547 L314 547 C349 547 378 544 398 531 C425 514 430 487 430 466 C430 438 423 409 396 388 C369 367 331 364 306 364 L268 364 L291 547 Z M200 -248 L292 -260 L400 -66 L266 -50 L200 -248 Z " />
<glyph glyph-name="rcommaaccent" unicode="&#x157;" horiz-adv-x="384" d="M56 0 L200 0 L224 190 C230 238 242 280 267 304 C281 317 305 331 341 331 C369 331 390 323 404 316 L432 450 C417 454 397 457 373 457 C357 457 326 454 298 439 C277 427 256 408 242 380 L255 446 L111 446 L56 0 Z M70 -238 L162 -250 L270 -66 L136 -50 L70 -238 Z " />
<glyph glyph-name="Rcaron" unicode="&#x158;" horiz-adv-x="607" d="M152 667 L70 0 L224 0 L256 263 L417 0 L597 0 L425 271 C462 278 502 297 531 325 C564 358 586 408 586 471 C586 540 561 583 538 607 C488 661 425 667 361 667 L152 667 Z M291 547 L314 547 C349 547 378 544 398 531 C425 514 430 487 430 466 C430 438 423 409 396 388 C369 367 331 364 306 364 L268 364 L291 547 Z M371 844 L256 937 L192 867 L363 726 L569 867 L503 937 L371 844 Z " />
<glyph glyph-name="rcaron" unicode="&#x159;" horiz-adv-x="384" d="M56 0 L200 0 L224 190 C230 238 242 280 267 304 C281 317 305 331 341 331 C369 331 390 323 404 316 L432 450 C417 454 397 457 373 457 C357 457 326 454 298 439 C277 427 256 408 242 380 L255 446 L111 446 L56 0 Z M267 631 L160 726 L97 658 L262 515 L464 658 L397 726 L267 631 Z " />
<glyph glyph-name="Sacute" unicode="&#x15a;" horiz-adv-x="550" d="M554 616 C484 671 418 682 361 682 C304 682 235 672 181 619 C149 587 121 537 121 468 C121 426 133 388 165 355 C197 322 248 300 259 296 L298 280 C333 266 346 255 351 250 C359 242 370 228 370 204 C370 179 360 156 342 142 C323 128 291 121 268 121 C239 121 211 130 190 143 C170 156 148 177 134 196 L48 86 C72 60 104 33 137 15 C182 -9 221 -15 270 -15 C338 -15 407 -3 461 50 C500 89 528 151 528 221 C528 264 518 295 494 325 C468 357 438 374 406 389 L367 407 C334 422 316 430 302 442 C288 453 279 467 279 487 C279 505 288 524 302 535 C319 549 346 552 365 552 C395 552 435 542 477 504 L554 616 Z M454 925 L301 777 L360 724 L540 853 L454 925 Z " />
<glyph glyph-name="sacute" unicode="&#x15b;" horiz-adv-x="434" d="M428 416 C367 458 314 461 281 461 C249 461 180 458 134 413 C110 389 92 352 92 309 C92 266 111 241 122 229 C143 208 173 196 197 189 L229 179 C241 175 255 172 264 166 C271 161 278 153 278 138 C278 124 272 116 260 109 C248 102 234 99 216 99 C185 99 159 111 154 113 C136 121 115 135 99 150 L38 53 C59 34 82 18 107 7 C147 -11 185 -15 223 -15 C262 -15 332 -9 380 41 C399 60 422 96 422 151 C422 186 412 213 389 236 C364 262 334 272 312 278 L279 287 C254 294 247 297 244 299 C233 306 230 315 230 323 C230 331 234 340 240 345 C250 354 269 357 283 357 C318 357 347 342 367 327 L428 416 Z M355 715 L213 563 L272 515 L441 650 L355 715 Z " />
<glyph glyph-name="Scircumflex" unicode="&#x15c;" horiz-adv-x="550" d="M554 616 C484 671 418 682 361 682 C304 682 235 672 181 619 C149 587 121 537 121 468 C121 426 133 388 165 355 C197 322 248 300 259 296 L298 280 C333 266 346 255 351 250 C359 242 370 228 370 204 C370 179 360 156 342 142 C323 128 291 121 268 121 C239 121 211 130 190 143 C170 156 148 177 134 196 L48 86 C72 60 104 33 137 15 C182 -9 221 -15 270 -15 C338 -15 407 -3 461 50 C500 89 528 151 528 221 C528 264 518 295 494 325 C468 357 438 374 406 389 L367 407 C334 422 316 430 302 442 C288 453 279 467 279 487 C279 505 288 524 302 535 C319 549 346 552 365 552 C395 552 435 542 477 504 L554 616 Z M223 726 L356 819 L470 726 L536 797 L364 937 L159 797 L223 726 Z " />
<glyph glyph-name="scircumflex" unicode="&#x15d;" horiz-adv-x="434" d="M428 416 C367 458 314 461 281 461 C249 461 180 458 134 413 C110 389 92 352 92 309 C92 266 111 241 122 229 C143 208 173 196 197 189 L229 179 C241 175 255 172 264 166 C271 161 278 153 278 138 C278 124 272 116 260 109 C248 102 234 99 216 99 C185 99 159 111 154 113 C136 121 115 135 99 150 L38 53 C59 34 82 18 107 7 C147 -11 185 -15 223 -15 C262 -15 332 -9 380 41 C399 60 422 96 422 151 C422 186 412 213 389 236 C364 262 334 272 312 278 L279 287 C254 294 247 297 244 299 C233 306 230 315 230 323 C230 331 234 340 240 345 C250 354 269 357 283 357 C318 357 347 342 367 327 L428 416 Z M285 610 L391 515 L459 584 L292 726 L92 584 L154 515 L285 610 Z " />
<glyph glyph-name="Scedilla" unicode="&#x15e;" horiz-adv-x="550" d="M554 616 C484 671 418 682 361 682 C304 682 235 672 181 619 C149 587 121 537 121 468 C121 426 133 388 165 355 C197 322 248 300 259 296 L298 280 C333 266 346 255 351 250 C359 242 370 228 370 204 C370 179 360 156 342 142 C323 128 291 121 268 121 C239 121 211 130 190 143 C170 156 148 177 134 196 L48 86 C72 60 104 33 137 15 C182 -9 221 -15 270 -15 C338 -15 407 -3 461 50 C500 89 528 151 528 221 C528 264 518 295 494 325 C468 357 438 374 406 389 L367 407 C334 422 316 430 302 442 C288 453 279 467 279 487 C279 505 288 524 302 535 C319 549 346 552 365 552 C395 552 435 542 477 504 L554 616 Z M245 -46 L145 -196 L225 -236 L345 -96 L245 -46 Z " />
<glyph glyph-name="scedilla" unicode="&#x15f;" horiz-adv-x="434" d="M428 416 C367 458 314 461 281 461 C249 461 180 458 134 413 C110 389 92 352 92 309 C92 266 111 241 122 229 C143 208 173 196 197 189 L229 179 C241 175 255 172 264 166 C271 161 278 153 278 138 C278 124 272 116 260 109 C248 102 234 99 216 99 C185 99 159 111 154 113 C136 121 115 135 99 150 L38 53 C59 34 82 18 107 7 C147 -11 185 -15 223 -15 C262 -15 332 -9 380 41 C399 60 422 96 422 151 C422 186 412 213 389 236 C364 262 334 272 312 278 L279 287 C254 294 247 297 244 299 C233 306 230 315 230 323 C230 331 234 340 240 345 C250 354 269 357 283 357 C318 357 347 342 367 327 L428 416 Z M200 -46 L94 -196 L168 -236 L294 -97 L200 -46 Z " />
<glyph glyph-name="Scaron" unicode="&#x160;" horiz-adv-x="550" d="M554 616 C484 671 418 682 361 682 C304 682 235 672 181 619 C149 587 121 537 121 468 C121 426 133 388 165 355 C197 322 248 300 259 296 L298 280 C333 266 346 255 351 250 C359 242 370 228 370 204 C370 179 360 156 342 142 C323 128 291 121 268 121 C239 121 211 130 190 143 C170 156 148 177 134 196 L48 86 C72 60 104 33 137 15 C182 -9 221 -15 270 -15 C338 -15 407 -3 461 50 C500 89 528 151 528 221 C528 264 518 295 494 325 C468 357 438 374 406 389 L367 407 C334 422 316 430 302 442 C288 453 279 467 279 487 C279 505 288 524 302 535 C319 549 346 552 365 552 C395 552 435 542 477 504 L554 616 Z M362 844 L247 937 L183 867 L354 726 L560 867 L494 937 L362 844 Z " />
<glyph glyph-name="scaron" unicode="&#x161;" horiz-adv-x="434" d="M428 416 C367 458 314 461 281 461 C249 461 180 458 134 413 C110 389 92 352 92 309 C92 266 111 241 122 229 C143 208 173 196 197 189 L229 179 C241 175 255 172 264 166 C271 161 278 153 278 138 C278 124 272 116 260 109 C248 102 234 99 216 99 C185 99 159 111 154 113 C136 121 115 135 99 150 L38 53 C59 34 82 18 107 7 C147 -11 185 -15 223 -15 C262 -15 332 -9 380 41 C399 60 422 96 422 151 C422 186 412 213 389 236 C364 262 334 272 312 278 L279 287 C254 294 247 297 244 299 C233 306 230 315 230 323 C230 331 234 340 240 345 C250 354 269 357 283 357 C318 357 347 342 367 327 L428 416 Z M271 631 L164 726 L101 658 L266 515 L468 658 L401 726 L271 631 Z " />
<glyph glyph-name="Tcedilla" unicode="&#x162;" horiz-adv-x="460" d="M515 537 L531 667 L87 667 L71 537 L216 537 L150 0 L304 0 L370 537 L515 537 Z M197 -46 L97 -196 L177 -236 L297 -96 L197 -46 Z " />
<glyph glyph-name="tcedilla" unicode="&#x163;" horiz-adv-x="299" d="M334 330 L348 446 L260 446 L278 590 L134 590 L116 446 L64 446 L50 330 L102 330 L61 0 L205 0 L246 330 L334 330 Z M106 -46 L0 -196 L74 -236 L200 -97 L106 -46 Z " />
<glyph glyph-name="Tcaron" unicode="&#x164;" horiz-adv-x="460" d="M370 537 L304 0 L150 0 L216 537 L71 537 L87 667 L531 667 L515 537 L370 537 Z M318 844 L203 937 L139 867 L310 726 L516 867 L450 937 L318 844 Z " />
<glyph glyph-name="tcaron" unicode="&#x165;" horiz-adv-x="409" d="M334 330 L348 446 L260 446 L278 590 L134 590 L116 446 L64 446 L50 330 L102 330 L61 0 L205 0 L246 330 L334 330 Z M303 492 L391 472 L515 670 L385 700 L303 492 Z " />
<glyph glyph-name="Utilde" unicode="&#x168;" horiz-adv-x="710" d="M151 667 L108 313 C105 286 100 238 100 208 C100 146 117 95 159 54 C220 -7 304 -15 370 -15 C425 -15 522 -12 589 57 C649 118 658 199 668 279 L716 667 L562 667 L516 289 C511 251 504 195 471 162 C454 145 423 129 373 129 C332 129 303 142 285 159 C260 184 256 218 256 245 C256 273 258 282 261 303 L305 667 L151 667 Z M589 867 C575 843 561 829 537 829 C524 829 509 833 486 843 L452 857 C432 865 410 871 389 871 C355 871 328 858 307 837 C293 823 276 798 267 782 L332 732 C347 761 365 771 383 771 C395 771 408 767 435 756 L468 743 C488 735 506 728 530 728 C561 728 585 739 607 759 C623 774 642 797 654 817 L589 867 Z " />
<glyph glyph-name="utilde" unicode="&#x169;" horiz-adv-x="570" d="M423 446 L395 212 C389 159 372 138 366 132 C350 115 323 107 300 107 C279 107 254 114 241 126 C231 135 222 151 222 175 C222 186 224 196 227 224 L253 446 L109 446 L82 219 C80 205 77 174 77 156 C77 109 95 64 125 36 C175 -12 254 -15 299 -15 C350 -15 421 -9 474 42 C524 90 533 152 539 205 L567 446 L423 446 Z M486 657 C481 645 467 619 441 619 C430 619 417 621 389 632 L357 645 C335 654 315 661 289 661 C257 661 232 650 212 630 C195 613 179 586 171 567 L230 523 C245 551 264 561 282 561 C301 561 317 553 332 547 L364 534 C383 526 405 519 427 519 C458 519 482 532 504 553 C529 577 545 607 548 613 L486 657 Z " />
<glyph glyph-name="Umacron" unicode="&#x16a;" horiz-adv-x="710" d="M151 667 L108 313 C105 286 100 238 100 208 C100 146 117 95 159 54 C220 -7 304 -15 370 -15 C425 -15 522 -12 589 57 C649 118 658 199 668 279 L716 667 L562 667 L516 289 C511 251 504 195 471 162 C454 145 423 129 373 129 C332 129 303 142 285 159 C260 184 256 218 256 245 C256 273 258 282 261 303 L305 667 L151 667 Z M238 753 L626 753 L638 845 L250 845 L238 753 Z " />
<glyph glyph-name="umacron" unicode="&#x16b;" horiz-adv-x="570" d="M423 446 L395 212 C389 159 372 138 366 132 C350 115 323 107 300 107 C279 107 254 114 241 126 C231 135 222 151 222 175 C222 186 224 196 227 224 L253 446 L109 446 L82 219 C80 205 77 174 77 156 C77 109 95 64 125 36 C175 -12 254 -15 299 -15 C350 -15 421 -9 474 42 C524 90 533 152 539 205 L567 446 L423 446 Z M147 543 L527 543 L538 633 L158 633 L147 543 Z " />
<glyph glyph-name="Ubreve" unicode="&#x16c;" horiz-adv-x="710" d="M151 667 L108 313 C105 286 100 238 100 208 C100 146 117 95 159 54 C220 -7 304 -15 370 -15 C425 -15 522 -12 589 57 C649 118 658 199 668 279 L716 667 L562 667 L516 289 C511 251 504 195 471 162 C454 145 423 129 373 129 C332 129 303 142 285 159 C260 184 256 218 256 245 C256 273 258 282 261 303 L305 667 L151 667 Z M523 874 C520 857 510 839 499 829 C482 814 461 811 444 811 C430 811 403 813 387 832 C378 843 372 860 371 874 L275 874 C276 834 292 793 318 767 C356 729 413 725 441 725 C500 725 541 742 568 769 C592 793 612 835 619 874 L523 874 Z " />
<glyph glyph-name="ubreve" unicode="&#x16d;" horiz-adv-x="570" d="M423 446 L395 212 C389 159 372 138 366 132 C350 115 323 107 300 107 C279 107 254 114 241 126 C231 135 222 151 222 175 C222 186 224 196 227 224 L253 446 L109 446 L82 219 C80 205 77 174 77 156 C77 109 95 64 125 36 C175 -12 254 -15 299 -15 C350 -15 421 -9 474 42 C524 90 533 152 539 205 L567 446 L423 446 Z M432 664 C428 645 418 628 406 619 C395 610 377 603 352 603 C323 603 306 612 297 622 C288 632 282 650 282 664 L188 664 C188 621 204 583 227 559 C262 523 311 517 351 517 C394 517 441 525 477 560 C502 584 521 624 526 664 L432 664 Z " />
<glyph glyph-name="Uring" unicode="&#x16e;" horiz-adv-x="710" d="M151 667 L108 313 C105 286 100 238 100 208 C100 146 117 95 159 54 C220 -7 304 -15 370 -15 C425 -15 522 -12 589 57 C649 118 658 199 668 279 L716 667 L562 667 L516 289 C511 251 504 195 471 162 C454 145 423 129 373 129 C332 129 303 142 285 159 C260 184 256 218 256 245 C256 273 258 282 261 303 L305 667 L151 667 Z M568 827 C568 852 558 876 541 893 C519 914 486 925 452 925 C418 925 385 914 363 893 C346 876 336 852 336 827 C336 802 346 778 363 761 C385 740 418 729 452 729 C486 729 519 740 541 761 C558 778 568 802 568 827 L568 827 Z M452 866 C468 866 479 861 486 854 C494 846 498 836 498 827 C498 818 494 808 486 800 C479 793 468 788 452 788 C436 788 425 793 418 800 C410 808 406 818 406 827 C406 836 410 846 418 854 C425 861 436 866 452 866 L452 866 Z " />
<glyph glyph-name="uring" unicode="&#x16f;" horiz-adv-x="570" d="M423 446 L395 212 C389 159 372 138 366 132 C350 115 323 107 300 107 C279 107 254 114 241 126 C231 135 222 151 222 175 C222 186 224 196 227 224 L253 446 L109 446 L82 219 C80 205 77 174 77 156 C77 109 95 64 125 36 C175 -12 254 -15 299 -15 C350 -15 421 -9 474 42 C524 90 533 152 539 205 L567 446 L423 446 Z M355 650 C365 650 378 647 386 641 C393 635 399 625 399 614 C399 603 393 593 386 587 C378 581 365 578 355 578 C345 578 332 581 324 587 C317 593 311 603 311 614 C311 625 317 635 324 641 C332 647 345 650 355 650 L355 650 Z M469 614 C469 644 456 665 442 679 C425 695 396 710 355 710 C314 710 285 695 268 679 C254 665 241 644 241 614 C241 584 254 563 268 549 C285 533 314 518 355 518 C396 518 425 533 442 549 C456 563 469 584 469 614 L469 614 Z " />
<glyph glyph-name="Uhungarumlaut" unicode="&#x170;" horiz-adv-x="710" d="M151 667 L108 313 C105 286 100 238 100 208 C100 146 117 95 159 54 C220 -7 304 -15 370 -15 C425 -15 522 -12 589 57 C649 118 658 199 668 279 L716 667 L562 667 L516 289 C511 251 504 195 471 162 C454 145 423 129 373 129 C332 129 303 142 285 159 C260 184 256 218 256 245 C256 273 258 282 261 303 L305 667 L151 667 Z M420 925 L292 772 L341 724 L497 859 L420 925 Z M606 925 L478 772 L528 724 L684 859 L606 925 Z " />
<glyph glyph-name="uhungarumlaut" unicode="&#x171;" horiz-adv-x="570" d="M423 446 L395 212 C389 159 372 138 366 132 C350 115 323 107 300 107 C279 107 254 114 241 126 C231 135 222 151 222 175 C222 186 224 196 227 224 L253 446 L109 446 L82 219 C80 205 77 174 77 156 C77 109 95 64 125 36 C175 -12 254 -15 299 -15 C350 -15 421 -9 474 42 C524 90 533 152 539 205 L567 446 L423 446 Z M297 710 L174 557 L220 509 L371 644 L297 710 Z M477 709 L354 557 L401 509 L552 644 L477 709 Z " />
<glyph glyph-name="Uogonek" unicode="&#x172;" horiz-adv-x="710" d="M151 667 L108 313 C105 286 100 238 100 208 C100 157 111 101 159 54 C216 -2 298 -15 356 -15 C366 -15 376 -15 384 -14 C371 -26 356 -41 345 -58 C334 -75 325 -95 325 -118 C325 -148 339 -165 348 -173 C367 -190 392 -193 409 -193 C433 -193 455 -187 475 -176 L502 -99 C490 -106 471 -114 452 -114 C449 -114 434 -113 425 -105 C419 -100 416 -90 416 -82 C416 -68 424 -53 431 -44 C448 -22 475 -8 505 8 C537 25 578 47 608 84 C650 136 658 201 668 279 L716 667 L562 667 L516 289 C511 251 504 194 471 162 C449 141 415 129 376 129 C337 129 304 140 285 159 C260 184 256 218 256 245 C256 273 258 282 261 303 L305 667 L151 667 Z " />
<glyph glyph-name="uogonek" unicode="&#x173;" horiz-adv-x="570" d="M423 446 L395 212 C389 159 372 138 366 132 C350 115 323 107 300 107 C279 107 254 114 241 126 C231 135 222 151 222 175 C222 186 224 196 227 224 L253 446 L109 446 L82 219 C80 205 77 174 77 156 C77 109 95 64 125 36 C169 -6 244 -16 292 -16 C279 -28 262 -46 252 -61 C241 -77 234 -99 234 -120 C234 -142 244 -159 257 -171 C274 -186 296 -189 316 -189 C335 -189 358 -186 384 -172 L411 -95 C392 -108 369 -110 359 -110 C347 -110 338 -106 333 -101 C327 -96 323 -89 323 -79 C323 -67 328 -52 342 -39 C370 -11 424 2 470 42 C516 82 529 126 538 199 L567 446 L423 446 Z " />
<glyph glyph-name="Ydieresis" unicode="&#x178;" horiz-adv-x="632" d="M236 0 L390 0 L428 311 L711 667 L523 667 L364 460 L255 667 L79 667 L274 311 L236 0 Z M212 811 C212 768 248 732 291 732 C334 732 370 768 370 811 C370 854 334 890 291 890 C248 890 212 854 212 811 L212 811 Z M430 811 C430 768 466 732 509 732 C552 732 588 768 588 811 C588 854 552 890 509 890 C466 890 430 854 430 811 L430 811 Z " />
<glyph glyph-name="Zacute" unicode="&#x179;" horiz-adv-x="616" d="M673 667 L153 667 L137 537 L401 537 L19 0 L558 0 L574 130 L292 130 L673 667 Z M487 925 L334 777 L393 724 L573 853 L487 925 Z " />
<glyph glyph-name="zacute" unicode="&#x17a;" horiz-adv-x="499" d="M552 446 L99 446 L81 326 L282 326 L0 0 L477 0 L494 120 L271 120 L552 446 Z M399 715 L257 563 L316 515 L485 650 L399 715 Z " />
<glyph glyph-name="Zdotaccent" unicode="&#x17b;" horiz-adv-x="616" d="M673 667 L153 667 L137 537 L401 537 L19 0 L558 0 L574 130 L292 130 L673 667 Z M310 815 C310 767 347 730 395 730 C443 730 480 767 480 815 C480 863 443 900 395 900 C347 900 310 863 310 815 L310 815 Z " />
<glyph glyph-name="zdotaccent" unicode="&#x17c;" horiz-adv-x="499" d="M552 446 L99 446 L81 326 L282 326 L0 0 L477 0 L494 120 L271 120 L552 446 Z M236 603 C236 556 272 520 319 520 C366 520 402 556 402 603 C402 650 366 686 319 686 C272 686 236 650 236 603 L236 603 Z " />
<glyph glyph-name="Zcaron" unicode="&#x17d;" horiz-adv-x="616" d="M673 667 L153 667 L137 537 L401 537 L19 0 L558 0 L574 130 L292 130 L673 667 Z M400 844 L285 937 L221 867 L392 726 L598 867 L532 937 L400 844 Z " />
<glyph glyph-name="zcaron" unicode="&#x17e;" horiz-adv-x="499" d="M552 446 L99 446 L81 326 L282 326 L0 0 L477 0 L494 120 L271 120 L552 446 Z M311 631 L204 726 L141 658 L306 515 L508 658 L441 726 L311 631 Z " />
<glyph glyph-name="uni018F" unicode="&#x18f;" horiz-adv-x="765" d="M83 375 C70 267 103 146 178 71 C243 5 322 -15 413 -15 C495 -15 580 0 655 73 C711 127 762 221 762 357 C762 428 747 522 669 597 C592 671 498 682 425 682 C358 682 296 672 235 633 C191 606 148 562 116 507 L264 456 C283 487 307 506 325 516 C356 534 389 540 423 540 C487 540 528 517 553 489 C579 460 596 415 600 375 L83 375 Z M588 267 C579 222 554 181 523 157 C495 136 457 123 406 123 C350 123 315 141 295 157 C267 179 243 221 237 267 L588 267 Z " />
<glyph glyph-name="florin" unicode="&#x192;" horiz-adv-x="600" d="M209 118 C191 48 178 1 148 -26 C122 -50 91 -54 69 -54 C53 -54 40 -52 28 -49 L-4 -177 C20 -183 39 -184 62 -184 C143 -184 203 -166 251 -116 C295 -70 316 -11 341 88 L409 356 L511 356 L533 446 L431 446 L450 523 C458 556 468 582 484 597 C497 609 512 614 531 614 C554 614 573 606 586 597 L618 720 C579 737 546 740 520 740 C471 740 427 728 389 691 C356 659 331 606 320 561 L291 446 L222 446 L201 356 L269 356 L209 118 Z " />
<glyph glyph-name="uni01CF" unicode="&#x1cf;" horiz-adv-x="306" d="M155 667 L73 0 L227 0 L309 667 L155 667 Z M241 844 L126 937 L62 867 L233 726 L439 867 L373 937 L241 844 Z " />
<glyph glyph-name="uni01D0" unicode="&#x1d0;" horiz-adv-x="276" d="M121 446 L66 0 L210 0 L265 446 L121 446 Z M210 639 L127 726 L60 657 L201 515 L378 657 L314 726 L210 639 Z " />
<glyph glyph-name="uni01DD" unicode="&#x1dd;" horiz-adv-x="547" d="M61 255 C53 147 90 82 125 47 C176 -5 237 -15 292 -15 C347 -15 412 -8 468 49 C512 93 539 159 539 241 C539 279 532 348 477 401 C439 437 380 461 307 461 C249 461 203 447 167 424 C144 410 108 381 82 331 L219 303 C227 317 238 330 249 338 C262 347 279 354 304 354 C345 354 365 335 369 331 C387 313 395 280 395 255 L61 255 Z M385 166 C380 144 367 120 350 107 C328 90 298 89 287 89 C268 89 242 92 222 112 C209 124 199 144 196 166 L385 166 Z " />
<glyph glyph-name="Gcaron" unicode="&#x1e6;" horiz-adv-x="767" d="M432 241 L593 241 C583 203 560 172 536 155 C503 131 461 125 430 125 C389 125 335 131 293 173 C257 208 238 265 238 316 C238 374 259 440 303 486 C344 529 389 542 443 542 C472 542 510 538 545 514 C573 495 595 465 607 438 L749 513 C724 557 685 604 641 633 C581 672 513 682 453 682 C359 682 264 667 180 579 C126 522 80 436 80 310 C80 239 96 151 165 79 C236 5 325 -15 410 -15 C493 -15 580 0 656 79 C689 113 754 196 759 364 L447 364 L432 241 Z M446 844 L331 937 L267 867 L438 726 L644 867 L578 937 L446 844 Z " />
<glyph glyph-name="gcaron" unicode="&#x1e7;" horiz-adv-x="595" d="M440 392 C387 457 324 461 293 461 C228 461 176 440 133 396 C87 349 60 281 60 203 C60 124 89 73 120 41 C166 -7 213 -12 258 -12 C298 -12 355 -6 395 51 L389 3 C386 -24 377 -59 359 -80 C348 -93 324 -113 280 -113 C256 -113 233 -108 217 -95 C204 -84 194 -67 190 -51 L36 -51 C43 -99 67 -143 98 -173 C147 -219 211 -229 271 -229 C323 -229 407 -223 466 -164 C513 -117 526 -54 533 -2 L589 446 L445 446 L440 392 Z M320 336 C360 336 383 323 397 309 C414 293 426 264 426 236 C426 203 411 162 389 141 C369 121 337 112 310 112 C285 112 256 122 238 139 C218 158 208 189 208 217 C208 250 221 287 241 307 C255 321 280 336 320 336 L320 336 Z M327 631 L220 726 L157 658 L322 515 L524 658 L457 726 L327 631 Z " />
<glyph glyph-name="AEacute" unicode="&#x1fc;" horiz-adv-x="920" d="M526 0 L914 0 L881 130 L649 130 L608 278 L839 278 L805 408 L575 408 L540 537 L772 537 L740 667 L361 667 L6 0 L170 0 L236 129 L491 129 L526 0 Z M295 247 L408 466 L463 247 L295 247 Z M629 925 L476 777 L535 724 L715 853 L629 925 Z " />
<glyph glyph-name="aeacute" unicode="&#x1fd;" horiz-adv-x="840" d="M683 141 C669 112 641 90 598 90 C561 90 538 103 526 117 C508 137 500 173 500 198 L830 198 C832 212 834 227 834 245 C834 324 806 374 775 405 C729 451 670 461 622 461 C522 461 471 412 448 384 C426 426 386 461 286 461 C234 461 191 452 159 443 L146 333 C204 353 242 355 261 355 C291 355 321 349 339 334 C357 320 371 294 365 252 C336 270 303 279 249 279 C211 279 155 276 112 247 C79 225 49 183 49 124 C49 80 68 43 96 21 C136 -11 198 -15 235 -15 C292 -15 323 -6 341 1 C365 11 393 29 416 60 C437 30 463 14 482 5 C511 -8 555 -15 595 -15 C622 -15 681 -12 730 19 C765 42 799 82 817 132 L683 141 Z M268 192 C288 192 317 187 334 172 C342 164 348 155 348 142 C348 127 341 113 330 103 C312 88 284 83 262 83 C231 83 213 92 202 102 C192 111 187 122 187 134 C187 145 191 158 201 168 C216 184 243 192 268 192 L268 192 Z M515 284 C522 305 534 325 549 338 C562 350 584 361 615 361 C641 361 663 352 676 340 C691 326 702 302 706 284 L515 284 Z M575 715 L433 563 L492 515 L661 650 L575 715 Z " />
<glyph glyph-name="Scommaaccent" unicode="&#x218;" horiz-adv-x="550" d="M554 616 C484 671 418 682 361 682 C304 682 235 672 181 619 C149 587 121 537 121 468 C121 426 133 388 165 355 C197 322 248 300 259 296 L298 280 C333 266 346 255 351 250 C359 242 370 228 370 204 C370 179 360 156 342 142 C323 128 291 121 268 121 C239 121 211 130 190 143 C170 156 148 177 134 196 L48 86 C72 60 104 33 137 15 C182 -9 221 -15 270 -15 C338 -15 407 -3 461 50 C500 89 528 151 528 221 C528 264 518 295 494 325 C468 357 438 374 406 389 L367 407 C334 422 316 430 302 442 C288 453 279 467 279 487 C279 505 288 524 302 535 C319 549 346 552 365 552 C395 552 435 542 477 504 L554 616 Z M160 -248 L252 -260 L360 -66 L226 -50 L160 -248 Z " />
<glyph glyph-name="scommaaccent" unicode="&#x219;" horiz-adv-x="434" d="M428 416 C367 458 314 461 281 461 C249 461 180 458 134 413 C110 389 92 352 92 309 C92 266 111 241 122 229 C143 208 173 196 197 189 L229 179 C241 175 255 172 264 166 C271 161 278 153 278 138 C278 124 272 116 260 109 C248 102 234 99 216 99 C185 99 159 111 154 113 C136 121 115 135 99 150 L38 53 C59 34 82 18 107 7 C147 -11 185 -15 223 -15 C262 -15 332 -9 380 41 C399 60 422 96 422 151 C422 186 412 213 389 236 C364 262 334 272 312 278 L279 287 C254 294 247 297 244 299 C233 306 230 315 230 323 C230 331 234 340 240 345 C250 354 269 357 283 357 C318 357 347 342 367 327 L428 416 Z M94 -238 L186 -250 L294 -66 L160 -50 L94 -238 Z " />
<glyph glyph-name="Tcommaaccent" unicode="&#x21a;" horiz-adv-x="460" d="M515 537 L531 667 L87 667 L71 537 L216 537 L150 0 L304 0 L370 537 L515 537 Z M90 -248 L182 -260 L290 -66 L156 -50 L90 -248 Z " />
<glyph glyph-name="tcommaaccent" unicode="&#x21b;" horiz-adv-x="299" d="M334 330 L348 446 L260 446 L278 590 L134 590 L116 446 L64 446 L50 330 L102 330 L61 0 L205 0 L246 330 L334 330 Z M0 -238 L92 -250 L200 -66 L66 -50 L0 -238 Z " />
<glyph glyph-name="uni0228" unicode="&#x228;" horiz-adv-x="502" d="M520 667 L152 667 L70 0 L442 0 L458 130 L236 130 L254 278 L464 278 L480 408 L270 408 L286 537 L504 537 L520 667 Z M226 -46 L126 -196 L206 -236 L326 -96 L226 -46 Z " />
<glyph glyph-name="uni0229" unicode="&#x229;" horiz-adv-x="542" d="M218 283 C222 303 232 320 243 332 C255 344 276 359 311 359 C329 359 354 354 370 341 C386 328 397 304 399 283 L218 283 Z M537 195 C543 248 541 345 481 404 C447 437 390 461 314 461 C258 461 191 450 137 399 C100 364 60 299 60 201 C60 141 73 88 116 45 C169 -8 235 -15 290 -15 C331 -15 392 -11 443 27 C475 51 506 93 524 138 L379 150 C373 136 361 119 348 110 C330 98 308 97 291 97 C268 97 241 102 222 128 C210 145 203 173 204 195 L537 195 Z M262 -46 L156 -196 L230 -236 L356 -97 L262 -46 Z " />
<glyph glyph-name="uni0237" unicode="&#x237;" horiz-adv-x="276" d="M120 446 L35 -229 L179 -229 L264 446 L120 446 Z " />
<glyph glyph-name="uni0259" unicode="&#x259;" horiz-adv-x="547" d="M61 255 C53 147 90 82 125 47 C176 -5 237 -15 292 -15 C347 -15 412 -8 468 49 C512 93 539 159 539 241 C539 279 532 348 477 401 C439 437 380 461 307 461 C249 461 203 447 167 424 C144 410 108 381 82 331 L219 303 C227 317 238 330 249 338 C262 347 279 354 304 354 C345 354 365 335 369 331 C387 313 395 280 395 255 L61 255 Z M385 166 C380 144 367 120 350 107 C328 90 298 89 287 89 C268 89 242 92 222 112 C209 124 199 144 196 166 L385 166 Z " />
<glyph glyph-name="afii57929" unicode="&#x2bc;" horiz-adv-x="500" d="M113 492 L201 472 L325 670 L195 700 L113 492 Z " />
<glyph glyph-name="circumflex" unicode="&#x2c6;" horiz-adv-x="500" d="M331 610 L437 515 L505 584 L338 726 L138 584 L200 515 L331 610 Z " />
<glyph glyph-name="caron" unicode="&#x2c7;" horiz-adv-x="500" d="M317 631 L210 726 L147 658 L312 515 L514 658 L447 726 L317 631 Z " />
<glyph glyph-name="uni02C9" unicode="&#x2c9;" horiz-adv-x="500" d="M127 543 L507 543 L518 633 L138 633 L127 543 Z " />
<glyph glyph-name="breve" unicode="&#x2d8;" horiz-adv-x="500" d="M407 664 C403 645 393 628 381 619 C370 610 352 603 327 603 C298 603 281 612 272 622 C263 632 257 650 257 664 L163 664 C163 621 179 583 202 559 C237 523 286 517 326 517 C369 517 416 525 452 560 C477 584 496 624 501 664 L407 664 Z " />
<glyph glyph-name="dotaccent" unicode="&#x2d9;" horiz-adv-x="500" d="M241 603 C241 556 277 520 324 520 C371 520 407 556 407 603 C407 650 371 686 324 686 C277 686 241 650 241 603 L241 603 Z " />
<glyph glyph-name="ring" unicode="&#x2da;" horiz-adv-x="500" d="M325 650 C335 650 348 647 356 641 C363 635 369 625 369 614 C369 603 363 593 356 587 C348 581 335 578 325 578 C315 578 302 581 294 587 C287 593 281 603 281 614 C281 625 287 635 294 641 C302 647 315 650 325 650 L325 650 Z M439 614 C439 644 426 665 412 679 C395 695 366 710 325 710 C284 710 255 695 238 679 C224 665 211 644 211 614 C211 584 224 563 238 549 C255 533 284 518 325 518 C366 518 395 533 412 549 C426 563 439 584 439 614 L439 614 Z " />
<glyph glyph-name="ogonek" unicode="&#x2db;" horiz-adv-x="508" d="M370 -95 C345 -108 328 -110 318 -110 C312 -110 301 -109 292 -101 C284 -94 282 -85 282 -79 C282 -72 284 -59 302 -35 C309 -26 322 -10 332 0 L266 0 C243 -21 228 -40 222 -48 C208 -66 193 -90 193 -120 C193 -142 203 -160 216 -171 C233 -186 255 -189 275 -189 C294 -189 317 -186 343 -172 L370 -95 Z " />
<glyph glyph-name="tilde" unicode="&#x2dc;" horiz-adv-x="500" d="M449 657 C444 645 430 619 404 619 C393 619 380 621 352 632 L320 645 C298 654 278 661 252 661 C220 661 195 650 175 630 C158 613 142 586 134 567 L193 523 C208 551 227 561 245 561 C264 561 280 553 295 547 L327 534 C346 526 368 519 390 519 C421 519 445 532 467 553 C492 577 508 607 511 613 L449 657 Z " />
<glyph glyph-name="hungarumlaut" unicode="&#x2dd;" horiz-adv-x="500" d="M297 710 L174 557 L220 509 L371 644 L297 710 Z M477 709 L354 557 L401 509 L552 644 L477 709 Z " />
<glyph glyph-name="acutecomb" unicode="&#x301;" horiz-adv-x="2" d="M-175 715 L-317 563 L-258 515 L-89 650 L-175 715 Z " />
<glyph glyph-name="&amp;#x394;" unicode="&#x394;" horiz-adv-x="669" d="M667 0 L417 667 L281 667 L34 0 L667 0 Z M350 484 L478 116 L221 116 L350 484 Z " />
<glyph glyph-name="&amp;#x2206;" unicode="&#x2206;" horiz-adv-x="669" d="M667 0 L417 667 L281 667 L34 0 L667 0 Z M350 484 L478 116 L221 116 L350 484 Z " />
<glyph glyph-name="&amp;#x3a9;" unicode="&#x3a9;" horiz-adv-x="688" d="M421 0 L689 0 L689 116 L556 116 C576 127 594 140 612 157 C677 221 692 309 692 365 C692 461 657 542 604 595 C569 630 499 682 384 682 C269 682 199 630 164 595 C111 542 76 461 76 365 C76 309 91 221 156 157 C174 140 192 127 212 116 L79 116 L79 0 L347 0 L347 108 C309 125 275 153 249 202 C223 251 216 303 216 347 C216 434 246 486 275 514 C303 541 344 556 384 556 C424 556 465 541 493 514 C522 486 552 434 552 347 C552 303 545 251 519 202 C493 153 459 125 421 108 L421 0 Z " />
<glyph glyph-name="&amp;#x2126;" unicode="&#x2126;" horiz-adv-x="688" d="M421 0 L689 0 L689 116 L556 116 C576 127 594 140 612 157 C677 221 692 309 692 365 C692 461 657 542 604 595 C569 630 499 682 384 682 C269 682 199 630 164 595 C111 542 76 461 76 365 C76 309 91 221 156 157 C174 140 192 127 212 116 L79 116 L79 0 L347 0 L347 108 C309 125 275 153 249 202 C223 251 216 303 216 347 C216 434 246 486 275 514 C303 541 344 556 384 556 C424 556 465 541 493 514 C522 486 552 434 552 347 C552 303 545 251 519 202 C493 153 459 125 421 108 L421 0 Z " />
<glyph glyph-name="pi" unicode="&#x3c0;" horiz-adv-x="676" d="M286 0 L286 330 L450 330 L450 0 L594 0 L594 330 L670 330 L670 446 L66 446 L66 330 L142 330 L142 0 L286 0 Z " />
<glyph glyph-name="afii10023" unicode="&#x401;" horiz-adv-x="502" d="M171 799 C171 757 204 724 246 724 C288 724 321 757 321 799 C321 841 288 874 246 874 C204 874 171 841 171 799 L171 799 Z M380 799 C380 757 413 724 455 724 C497 724 530 757 530 799 C530 841 497 874 455 874 C413 874 380 841 380 799 L380 799 Z M520 667 L152 667 L70 0 L442 0 L458 130 L236 130 L254 278 L464 278 L480 408 L270 408 L286 537 L504 537 L520 667 Z " />
<glyph glyph-name="afii10051" unicode="&#x402;" horiz-adv-x="686" d="M135 0 L289 0 L321 262 C352 275 388 285 430 285 C448 285 480 283 501 263 C520 245 522 222 522 204 C522 162 505 143 498 136 C478 117 450 115 429 115 C410 115 390 118 371 122 L357 1 C387 -5 414 -7 442 -7 C482 -7 558 -4 612 43 C655 81 680 143 680 207 C680 304 630 354 618 364 C588 391 537 415 450 415 C412 415 378 409 337 392 L355 537 L575 537 L591 667 L87 667 L71 537 L201 537 L135 0 Z " />
<glyph glyph-name="afii10052" unicode="&#x403;" horiz-adv-x="473" d="M533 667 L152 667 L70 0 L224 0 L290 537 L517 537 L533 667 Z M444 925 L291 777 L350 724 L530 853 L444 925 Z " />
<glyph glyph-name="afii10053" unicode="&#x404;" horiz-adv-x="623" d="M599 192 C540 135 480 125 432 125 C392 125 330 131 285 177 C260 203 244 240 239 275 L512 275 L527 399 L253 399 C268 449 297 481 324 502 C364 533 406 542 457 542 C506 542 571 531 633 472 L653 634 C576 674 521 681 463 681 C367 681 272 662 192 585 C126 522 80 422 80 298 C80 197 115 123 171 69 C235 7 315 -14 403 -14 C501 -14 547 8 578 29 L599 192 Z " />
<glyph glyph-name="afii10054" unicode="&#x405;" horiz-adv-x="550" d="M554 616 C484 671 418 682 361 682 C304 682 235 672 181 619 C149 587 121 537 121 468 C121 426 133 388 165 355 C197 322 248 300 259 296 L298 280 C333 266 346 255 351 250 C359 242 370 228 370 204 C370 179 360 156 342 142 C323 128 291 121 268 121 C239 121 211 130 190 143 C170 156 148 177 134 196 L48 86 C72 60 104 33 137 15 C182 -9 221 -15 270 -15 C338 -15 407 -3 461 50 C500 89 528 151 528 221 C528 264 518 295 494 325 C468 357 438 374 406 389 L367 407 C334 422 316 430 302 442 C288 453 279 467 279 487 C279 505 288 524 302 535 C319 549 346 552 365 552 C395 552 435 542 477 504 L554 616 Z " />
<glyph glyph-name="afii10055" unicode="&#x406;" horiz-adv-x="306" d="M155 667 L73 0 L227 0 L309 667 L155 667 Z " />
<glyph glyph-name="afii10056" unicode="&#x407;" horiz-adv-x="337" d="M166 667 L84 0 L238 0 L320 667 L166 667 Z M101 811 C101 768 133 732 171 732 C209 732 241 768 241 811 C241 854 209 890 171 890 C133 890 101 854 101 811 L101 811 Z M275 811 C275 768 307 732 345 732 C383 732 415 768 415 811 C415 854 383 890 345 890 C307 890 275 854 275 811 L275 811 Z " />
<glyph glyph-name="afii10057" unicode="&#x408;" horiz-adv-x="415" d="M267 667 L211 212 C207 176 200 150 183 135 C173 126 161 121 144 121 C125 121 112 128 104 135 C94 144 85 159 80 173 L-25 77 C-8 48 16 24 42 9 C78 -12 113 -15 148 -15 C188 -15 250 -11 297 34 C352 86 359 167 365 214 L421 667 L267 667 Z " />
<glyph glyph-name="afii10058" unicode="&#x409;" horiz-adv-x="984" d="M468 0 L701 0 C787 0 865 12 917 61 C946 88 978 139 978 221 C978 256 972 310 929 351 C894 385 835 406 766 406 L671 406 L703 667 L215 667 L169 294 C156 192 136 164 127 155 C116 144 95 132 62 132 C44 132 29 136 19 140 L2 2 C27 -6 46 -8 76 -8 C128 -8 187 -3 239 51 C282 96 306 164 319 269 L352 537 L533 537 L468 0 Z M656 283 L716 283 C747 283 774 281 793 268 C805 260 822 243 822 210 C822 171 802 148 785 138 C782 136 758 123 700 123 L636 123 L656 283 Z " />
<glyph glyph-name="afii10059" unicode="&#x40a;" horiz-adv-x="1005" d="M489 0 L722 0 C808 0 886 12 938 61 C967 88 999 139 999 221 C999 256 993 310 950 351 C915 385 856 406 787 406 L692 406 L724 667 L572 667 L540 406 L275 406 L306 667 L152 667 L70 0 L224 0 L260 283 L524 283 L489 0 Z M677 283 L737 283 C768 283 795 281 814 268 C826 260 843 243 843 210 C843 171 823 148 806 138 C803 136 779 123 721 123 L657 123 L677 283 Z " />
<glyph glyph-name="afii10060" unicode="&#x40b;" horiz-adv-x="722" d="M135 0 L289 0 L323 277 C336 279 379 285 410 285 C442 285 480 280 502 267 C544 242 540 200 535 163 L515 0 L669 0 L693 190 C693 192 698 227 698 242 C698 286 683 334 640 367 C593 404 517 415 453 415 C415 415 374 411 339 405 L355 537 L575 537 L591 667 L87 667 L71 537 L201 537 L135 0 Z " />
<glyph glyph-name="afii10061" unicode="&#x40c;" horiz-adv-x="670" d="M306 667 L152 667 L70 0 L224 0 L261 302 L462 0 L656 0 L409 344 L700 667 L516 667 L272 388 L306 667 Z M504 925 L351 777 L410 724 L590 853 L504 925 Z " />
<glyph glyph-name="afii10062" unicode="&#x40e;" horiz-adv-x="622" d="M82 667 L258 196 L141 0 L307 0 L694 667 L524 667 L352 359 L250 667 L82 667 Z M482 886 C476 870 465 852 452 841 C432 824 408 822 390 822 C372 822 349 825 329 840 C315 851 304 868 299 886 L188 840 C203 803 229 773 258 754 C298 728 342 724 385 724 C481 724 554 757 593 840 L482 886 Z " />
<glyph glyph-name="afii10145" unicode="&#x40f;" horiz-adv-x="701" d="M70 0 L279 0 L259 -166 L397 -166 L417 0 L625 0 L707 667 L553 667 L487 130 L240 130 L306 667 L152 667 L70 0 Z " />
<glyph glyph-name="afii10017" unicode="&#x410;" horiz-adv-x="677" d="M517 0 L675 0 L496 667 L354 667 L2 0 L168 0 L231 126 L483 126 L517 0 Z M289 244 L401 479 L455 244 L289 244 Z " />
<glyph glyph-name="afii10018" unicode="&#x411;" horiz-adv-x="597" d="M70 0 L306 0 C430 0 490 38 517 64 C557 102 577 162 577 222 C577 285 554 324 532 347 C482 398 406 404 356 404 L273 404 L289 537 L547 537 L563 667 L151 667 L70 0 Z M258 281 L311 281 C335 281 372 278 391 266 C403 259 419 242 419 208 C419 176 405 158 395 149 C372 128 329 123 296 123 L239 123 L258 281 Z " />
<glyph glyph-name="afii10019" unicode="&#x412;" horiz-adv-x="594" d="M70 0 L318 0 C388 0 466 10 519 63 C545 89 573 135 573 206 C573 249 561 282 530 312 C513 328 488 344 454 352 C476 359 502 373 524 403 C544 430 555 464 555 507 C555 559 536 598 512 621 C470 662 410 667 365 667 L152 667 L70 0 Z M291 547 L323 547 C345 547 372 546 391 531 C400 523 412 508 412 481 C412 459 404 435 389 421 C366 399 330 396 304 396 L273 396 L291 547 Z M259 282 L319 282 C333 282 379 281 401 259 C416 244 419 223 419 209 C419 172 404 153 395 145 C371 123 324 120 295 120 L239 120 L259 282 Z " />
<glyph glyph-name="afii10020" unicode="&#x413;" horiz-adv-x="473" d="M533 667 L152 667 L70 0 L224 0 L290 537 L517 537 L533 667 Z " />
<glyph glyph-name="afii10021" unicode="&#x414;" horiz-adv-x="701" d="M221 667 L184 376 C176 311 167 224 115 173 C92 151 60 134 23 128 L-12 -150 L126 -150 L145 0 L554 0 L536 -150 L674 -150 L707 128 L632 128 L698 667 L221 667 Z M351 539 L529 539 L480 128 L236 128 C260 148 286 178 303 223 C317 260 323 306 331 371 L351 539 Z " />
<glyph glyph-name="afii10022" unicode="&#x415;" horiz-adv-x="502" d="M520 667 L152 667 L70 0 L442 0 L458 130 L236 130 L254 278 L464 278 L480 408 L270 408 L286 537 L504 537 L520 667 Z " />
<glyph glyph-name="afii10024" unicode="&#x416;" horiz-adv-x="941" d="M390 0 L544 0 L581 299 L746 0 L928 0 L725 339 L999 667 L823 667 L591 381 L626 667 L472 667 L437 381 L275 667 L103 667 L293 354 L3 0 L189 0 L427 299 L390 0 Z " />
<glyph glyph-name="afii10025" unicode="&#x417;" horiz-adv-x="590" d="M188 492 C204 505 228 521 248 530 C271 541 296 546 323 546 C330 546 366 546 387 532 C401 523 415 505 415 481 C415 460 408 436 377 421 C356 410 321 405 292 405 L254 405 L239 281 L281 281 C306 281 347 278 368 267 C394 254 405 233 405 207 C405 179 395 159 377 145 C361 132 335 121 292 121 C256 121 226 129 197 146 C174 160 147 184 129 205 L40 93 C71 59 109 32 143 16 C200 -11 261 -15 308 -15 C374 -15 445 -7 505 53 C547 95 569 153 569 210 C569 243 561 279 534 309 C507 339 471 351 463 354 C495 366 521 387 538 409 C563 441 570 475 570 510 C570 550 560 592 526 626 C498 654 447 682 356 682 C329 682 274 679 219 658 C188 646 155 628 127 607 L188 492 Z " />
<glyph glyph-name="afii10026" unicode="&#x418;" horiz-adv-x="743" d="M152 667 L70 0 L207 0 L567 433 L513 0 L667 0 L749 667 L613 667 L252 235 L306 667 L152 667 Z " />
<glyph glyph-name="afii10027" unicode="&#x419;" horiz-adv-x="743" d="M152 667 L70 0 L207 0 L567 433 L513 0 L667 0 L749 667 L613 667 L252 235 L306 667 L152 667 Z M569 886 C563 870 552 852 539 841 C519 824 495 822 477 822 C459 822 436 825 416 840 C402 851 391 868 386 886 L275 840 C290 803 316 773 345 754 C385 728 429 724 472 724 C568 724 641 757 680 840 L569 886 Z " />
<glyph glyph-name="afii10028" unicode="&#x41a;" horiz-adv-x="670" d="M306 667 L152 667 L70 0 L224 0 L261 302 L462 0 L656 0 L409 344 L700 667 L516 667 L272 388 L306 667 Z " />
<glyph glyph-name="afii10029" unicode="&#x41b;" horiz-adv-x="697" d="M215 667 L169 294 C156 192 136 164 127 155 C116 144 95 132 62 132 C44 132 29 136 19 140 L2 2 C27 -6 46 -8 76 -8 C128 -8 187 -3 239 51 C282 96 306 164 319 269 L352 537 L533 537 L467 0 L621 0 L703 667 L215 667 Z " />
<glyph glyph-name="afii10030" unicode="&#x41c;" horiz-adv-x="886" d="M196 0 L298 398 L415 0 L473 0 L686 398 L690 0 L844 0 L820 667 L689 667 L473 268 L359 667 L232 667 L42 0 L196 0 Z " />
<glyph glyph-name="afii10031" unicode="&#x41d;" horiz-adv-x="720" d="M306 667 L152 667 L70 0 L224 0 L259 287 L525 287 L490 0 L644 0 L726 667 L572 667 L541 417 L275 417 L306 667 Z " />
<glyph glyph-name="afii10032" unicode="&#x41e;" horiz-adv-x="810" d="M464 682 C378 682 275 662 190 581 C127 521 80 430 80 313 C80 204 128 127 174 80 C253 0 345 -15 428 -15 C515 -15 620 2 704 88 C774 160 807 263 807 358 C807 456 770 540 713 595 C669 637 592 682 464 682 L464 682 Z M458 540 C499 540 552 531 596 488 C640 445 649 391 649 348 C649 279 623 221 587 184 C538 134 483 127 438 127 C391 127 337 137 292 183 C261 214 238 262 238 323 C238 379 260 435 299 476 C339 518 392 540 458 540 L458 540 Z " />
<glyph glyph-name="afii10033" unicode="&#x41f;" horiz-adv-x="707" d="M70 0 L224 0 L291 537 L544 537 L477 0 L631 0 L713 667 L152 667 L70 0 Z " />
<glyph glyph-name="afii10034" unicode="&#x420;" horiz-adv-x="572" d="M152 667 L70 0 L224 0 L253 234 L341 234 C452 234 509 265 539 293 C579 330 604 394 604 468 C604 536 580 581 550 611 C496 665 424 667 377 667 L152 667 Z M291 541 L337 541 C360 541 400 539 424 516 C442 499 446 477 446 458 C446 441 443 411 420 389 C394 363 356 360 323 360 L268 360 L291 541 Z " />
<glyph glyph-name="afii10035" unicode="&#x421;" horiz-adv-x="605" d="M587 187 C550 157 497 129 431 129 C370 129 320 151 290 181 C260 211 238 262 238 318 C238 371 257 431 298 475 C340 521 392 538 456 538 C545 538 596 498 623 471 L642 634 C618 648 556 682 453 682 C331 682 242 634 186 578 C124 516 80 421 80 305 C80 189 127 117 170 74 C206 39 279 -15 405 -15 C491 -15 545 10 567 21 L587 187 Z " />
<glyph glyph-name="afii10036" unicode="&#x422;" horiz-adv-x="460" d="M515 537 L531 667 L87 667 L71 537 L216 537 L150 0 L304 0 L370 537 L515 537 Z " />
<glyph glyph-name="afii10037" unicode="&#x423;" horiz-adv-x="622" d="M82 667 L258 196 L141 0 L307 0 L694 667 L524 667 L352 359 L250 667 L82 667 Z " />
<glyph glyph-name="afii10038" unicode="&#x424;" horiz-adv-x="852" d="M343 0 L497 0 L509 93 L515 93 C627 93 717 114 776 171 C837 230 849 306 849 371 C849 421 839 491 786 545 C740 592 661 622 578 622 L574 622 L586 714 L432 714 L421 622 L416 622 C315 622 225 604 161 544 C113 498 80 429 80 343 C80 259 112 198 153 160 C181 134 241 93 355 93 L343 0 Z M376 217 C323 217 291 233 271 251 C254 267 234 296 234 342 C234 382 247 425 277 455 C317 495 364 498 405 498 L411 498 L376 217 Z M553 498 L558 498 C613 498 643 481 658 467 C691 437 695 393 695 371 C695 311 671 275 649 256 C620 230 573 217 522 217 L518 217 L553 498 Z " />
<glyph glyph-name="afii10039" unicode="&#x425;" horiz-adv-x="686" d="M7 0 L196 0 L373 231 L492 0 L673 0 L472 354 L717 667 L528 667 L395 477 L308 667 L127 667 L296 354 L7 0 Z " />
<glyph glyph-name="afii10040" unicode="&#x426;" horiz-adv-x="728" d="M70 0 L577 0 L559 -150 L697 -150 L731 130 L641 130 L707 667 L553 667 L487 130 L240 130 L306 667 L152 667 L70 0 Z " />
<glyph glyph-name="afii10041" unicode="&#x427;" horiz-adv-x="646" d="M416 0 L570 0 L652 667 L498 667 L464 399 C435 394 403 390 378 390 C351 390 313 393 291 407 C261 425 258 453 258 472 C258 488 261 507 264 532 L281 667 L127 667 L108 517 C101 464 98 443 98 420 C98 367 118 327 158 298 C181 282 229 256 331 256 C382 256 424 262 449 266 L416 0 Z " />
<glyph glyph-name="afii10042" unicode="&#x428;" horiz-adv-x="986" d="M70 0 L910 0 L992 667 L838 667 L772 130 L583 130 L649 667 L495 667 L429 130 L240 130 L306 667 L152 667 L70 0 Z " />
<glyph glyph-name="afii10043" unicode="&#x429;" horiz-adv-x="1013" d="M865 0 L847 -150 L985 -150 L1019 130 L926 130 L992 667 L838 667 L772 130 L583 130 L649 667 L495 667 L429 130 L240 130 L306 667 L152 667 L70 0 L865 0 Z " />
<glyph glyph-name="afii10044" unicode="&#x42a;" horiz-adv-x="660" d="M142 0 L377 0 C463 0 541 12 593 61 C621 88 654 138 654 222 C654 255 648 310 605 351 C570 385 511 406 442 406 L345 406 L377 667 L84 667 L68 537 L208 537 L142 0 Z M330 283 L392 283 C423 283 450 281 469 268 C479 261 498 243 498 207 C498 171 480 149 461 138 C458 136 434 123 376 123 L310 123 L330 283 Z " />
<glyph glyph-name="afii10045" unicode="&#x42b;" horiz-adv-x="847" d="M70 0 L299 0 C381 0 461 7 515 59 C543 86 576 136 576 221 C576 256 570 310 527 351 C492 385 433 406 364 406 L273 406 L305 667 L153 667 L70 0 Z M258 283 L318 283 C349 283 376 281 395 268 C407 260 424 243 424 210 C424 171 404 148 387 138 C384 136 360 123 302 123 L238 123 L258 283 Z M696 667 L614 0 L768 0 L850 667 L696 667 Z " />
<glyph glyph-name="afii10046" unicode="&#x42c;" horiz-adv-x="586" d="M70 0 L303 0 C389 0 467 12 519 61 C548 88 580 139 580 221 C580 256 574 310 531 351 C496 385 437 406 368 406 L273 406 L305 667 L153 667 L70 0 Z M258 283 L318 283 C349 283 376 281 395 268 C407 260 424 243 424 210 C424 171 404 148 387 138 C384 136 360 123 302 123 L238 123 L258 283 Z " />
<glyph glyph-name="afii10047" unicode="&#x42d;" horiz-adv-x="623" d="M45 32 C134 -11 202 -15 258 -15 C341 -15 432 -7 516 78 C571 134 620 224 620 365 C620 428 609 523 539 595 C500 635 428 682 308 682 C256 682 195 674 118 638 L98 473 C115 485 151 509 171 519 C202 534 240 542 280 542 C314 542 361 536 398 506 C425 484 449 447 456 399 L193 399 L177 275 L445 275 C436 224 408 185 377 162 C330 127 268 125 252 125 C199 125 126 141 64 194 L45 32 Z " />
<glyph glyph-name="afii10048" unicode="&#x42e;" horiz-adv-x="1058" d="M275 417 L306 667 L152 667 L70 0 L224 0 L259 287 L347 287 C354 182 403 114 435 80 C511 -1 600 -15 684 -15 C788 -15 874 8 952 86 C1024 159 1055 249 1055 353 C1055 423 1038 515 960 590 C913 635 831 682 699 682 C591 682 512 650 447 581 C411 543 376 489 359 417 L275 417 Z M706 540 C773 540 817 513 842 488 C872 458 897 410 897 348 C897 292 877 227 835 184 C806 155 760 127 691 127 C620 127 575 157 549 183 C518 215 495 264 495 324 C495 389 521 445 558 482 C584 507 630 540 706 540 L706 540 Z " />
<glyph glyph-name="afii10049" unicode="&#x42f;" horiz-adv-x="602" d="M608 667 L380 667 C320 667 242 660 181 602 C139 562 112 497 112 426 C112 397 118 351 150 314 C172 289 205 271 239 263 L12 0 L197 0 L386 243 L402 243 L372 0 L526 0 L608 667 Z M440 541 L416 361 L380 361 C358 361 321 364 299 380 C282 392 270 414 270 443 C270 468 280 496 300 514 C327 539 364 541 395 541 L440 541 Z " />
<glyph glyph-name="afii10065" unicode="&#x430;" horiz-adv-x="598" d="M444 392 C424 420 400 436 383 444 C354 458 322 461 296 461 C234 461 178 443 132 396 C89 352 60 286 60 204 C60 127 87 75 120 40 C159 -1 203 -15 258 -15 C275 -15 310 -13 341 1 C365 12 388 32 404 51 L393 0 L537 0 L592 446 L448 446 L444 392 Z M327 337 C366 337 389 324 402 312 C421 295 433 267 433 235 C433 202 421 164 395 139 C380 125 354 109 313 109 C284 109 258 117 237 139 C223 154 208 178 208 215 C208 252 222 284 242 304 C264 326 291 337 327 337 L327 337 Z " />
<glyph glyph-name="afii10066" unicode="&#x431;" horiz-adv-x="601" d="M501 730 C496 703 481 693 459 684 C427 671 396 666 355 658 C305 648 243 631 191 582 C101 497 72 328 72 234 C72 165 89 105 136 55 C191 -3 253 -15 321 -15 C380 -15 459 -7 523 58 C557 93 593 151 593 246 C593 286 585 348 541 395 C505 433 442 460 367 460 C314 460 255 445 216 393 L212 393 C224 444 253 473 261 480 C281 498 314 519 381 538 L452 558 C495 570 540 587 571 615 C597 639 622 679 630 730 L501 730 Z M322 109 C296 109 269 116 248 139 C235 153 221 177 221 214 C221 255 237 290 258 309 C273 323 299 338 341 338 C363 338 392 334 415 311 C433 293 445 264 445 233 C445 201 434 167 409 142 C385 118 356 109 322 109 L322 109 Z " />
<glyph glyph-name="afii10067" unicode="&#x432;" horiz-adv-x="502" d="M111 446 L56 0 L325 0 C358 0 415 2 454 40 C474 59 490 89 490 133 C490 156 485 182 464 203 C449 217 426 227 406 231 C428 235 444 246 455 257 C477 279 481 307 481 330 C481 362 473 396 438 421 C407 443 365 446 335 446 L111 446 Z M235 268 L245 350 L290 350 C313 350 324 346 329 343 C335 339 345 330 345 311 C345 297 340 286 333 280 C321 269 303 268 284 268 L235 268 Z M214 96 L224 186 L279 186 C295 186 311 186 323 178 C331 173 340 162 340 145 C340 132 335 117 321 107 C306 97 287 96 276 96 L214 96 Z " />
<glyph glyph-name="afii10068" unicode="&#x433;" horiz-adv-x="366" d="M56 0 L200 0 L241 328 L397 328 L411 446 L111 446 L56 0 Z " />
<glyph glyph-name="afii10069" unicode="&#x434;" horiz-adv-x="573" d="M158 446 L136 273 C131 235 124 181 90 146 C74 129 48 115 17 110 L-12 -126 L116 -126 L132 0 L438 0 L423 -126 L551 -126 L579 110 L514 110 L556 446 L158 446 Z M370 110 L205 110 C224 125 236 142 246 162 C261 193 266 223 269 252 L278 336 L398 336 L370 110 Z " />
<glyph glyph-name="afii10070" unicode="&#x435;" horiz-adv-x="542" d="M218 283 C222 303 232 320 243 332 C255 344 276 359 311 359 C329 359 354 354 370 341 C386 328 397 304 399 283 L218 283 Z M537 195 C543 248 541 345 481 404 C447 437 390 461 314 461 C258 461 191 450 137 399 C100 364 60 299 60 201 C60 141 73 88 116 45 C169 -8 235 -15 290 -15 C331 -15 392 -11 443 27 C475 51 506 93 524 138 L379 150 C373 136 361 119 348 110 C330 98 308 97 291 97 C268 97 241 102 222 128 C210 145 203 173 204 195 L537 195 Z " />
<glyph glyph-name="afii10072" unicode="&#x436;" horiz-adv-x="762" d="M366 446 L344 267 L239 446 L80 446 L208 239 L-3 0 L178 0 L335 193 L311 0 L451 0 L475 193 L584 0 L755 0 L614 233 L802 446 L633 446 L484 267 L506 446 L366 446 Z " />
<glyph glyph-name="afii10073" unicode="&#x437;" horiz-adv-x="463" d="M129 311 C153 328 174 337 180 340 C201 349 220 353 245 353 C271 353 284 348 291 344 C302 338 309 330 309 316 C309 306 304 291 285 284 C279 281 266 278 233 278 L187 278 L175 180 L223 180 C238 180 264 177 275 173 C298 164 299 145 299 139 C299 127 293 114 278 106 C264 98 242 97 228 97 C199 97 177 102 151 114 C125 126 106 141 93 152 L26 59 C50 39 82 18 113 6 C155 -11 198 -15 246 -15 C292 -15 351 -11 395 20 C432 46 451 83 451 135 C451 161 447 182 424 204 C411 216 394 227 373 232 C391 238 408 248 419 259 C434 274 449 298 449 334 C449 389 418 418 395 433 C383 440 346 461 270 461 C245 461 203 459 160 445 C133 436 105 422 82 407 L129 311 Z " />
<glyph glyph-name="afii10074" unicode="&#x438;" horiz-adv-x="580" d="M111 446 L56 0 L190 0 L410 257 L378 0 L522 0 L577 446 L443 446 L224 193 L255 446 L111 446 Z " />
<glyph glyph-name="afii10075" unicode="&#x439;" horiz-adv-x="580" d="M111 446 L56 0 L190 0 L410 257 L378 0 L522 0 L577 446 L443 446 L224 193 L255 446 L111 446 Z M444 662 C439 644 427 626 414 616 C397 603 377 601 362 601 C342 601 326 604 309 618 C297 628 286 643 281 662 L180 626 C193 583 219 557 241 542 C280 516 321 513 356 513 C393 513 437 517 475 540 C499 554 529 581 545 626 L444 662 Z " />
<glyph glyph-name="afii10076" unicode="&#x43a;" horiz-adv-x="540" d="M56 0 L200 0 L224 198 L352 0 L538 0 L367 233 L580 446 L401 446 L233 269 L255 446 L111 446 L56 0 Z " />
<glyph glyph-name="afii10077" unicode="&#x43b;" horiz-adv-x="548" d="M545 446 L148 446 L118 202 C115 181 109 149 94 134 C81 121 64 118 50 118 C39 118 30 119 19 123 L3 1 C25 -4 44 -6 65 -6 C109 -6 159 2 198 44 C233 81 246 135 254 197 L271 330 L387 330 L346 0 L490 0 L545 446 Z " />
<glyph glyph-name="afii10078" unicode="&#x43c;" horiz-adv-x="664" d="M24 0 L162 0 L227 237 L307 0 L355 0 L495 237 L502 0 L640 0 L617 446 L499 446 L352 198 L267 446 L157 446 L24 0 Z " />
<glyph glyph-name="afii10079" unicode="&#x43d;" horiz-adv-x="561" d="M56 0 L200 0 L221 176 L382 176 L360 0 L504 0 L558 446 L414 446 L395 292 L235 292 L254 446 L110 446 L56 0 Z " />
<glyph glyph-name="afii10080" unicode="&#x43e;" horiz-adv-x="592" d="M337 461 C255 461 181 433 132 385 C84 339 60 274 60 209 C60 143 86 88 121 52 C178 -7 250 -15 307 -15 C372 -15 449 -6 512 58 C559 106 584 176 584 241 C584 306 558 358 524 392 C480 436 409 461 337 461 L337 461 Z M315 107 C276 107 251 122 237 137 C220 155 208 182 208 213 C208 247 221 284 248 308 C271 329 301 339 328 339 C355 339 387 329 406 311 C423 295 436 268 436 234 C436 200 424 163 399 139 C380 121 351 107 315 107 L315 107 Z " />
<glyph glyph-name="afii10081" unicode="&#x43f;" horiz-adv-x="555" d="M56 0 L200 0 L240 330 L395 330 L354 0 L498 0 L552 446 L110 446 L56 0 Z " />
<glyph glyph-name="afii10082" unicode="&#x440;" horiz-adv-x="598" d="M210 55 C228 30 249 14 268 4 C299 -12 333 -15 365 -15 C423 -15 472 1 516 45 C560 89 591 160 591 245 C591 314 568 376 532 412 C508 435 466 461 397 461 C363 461 334 455 305 440 C288 431 267 416 249 394 L257 446 L113 446 L30 -229 L174 -229 L210 55 Z M341 337 C366 337 394 328 412 311 C430 295 443 264 443 236 C443 203 427 162 403 140 C382 120 352 109 323 109 C292 109 265 122 248 140 C226 163 221 192 221 213 C221 247 231 277 257 303 C279 325 306 337 341 337 L341 337 Z " />
<glyph glyph-name="afii10083" unicode="&#x441;" horiz-adv-x="431" d="M445 432 C402 453 360 461 315 461 C227 461 168 429 130 390 C85 344 60 280 60 208 C60 139 84 86 120 47 C166 -2 216 -15 275 -15 C307 -15 346 -12 393 11 L409 143 C388 124 357 107 318 107 C288 107 262 116 240 137 C222 154 208 180 208 216 C208 246 219 281 241 305 C251 315 278 339 328 339 C381 339 416 312 428 301 L445 432 Z " />
<glyph glyph-name="afii10084" unicode="&#x442;" horiz-adv-x="400" d="M432 330 L446 446 L62 446 L48 330 L168 330 L127 0 L271 0 L312 330 L432 330 Z " />
<glyph glyph-name="afii10085" unicode="&#x443;" horiz-adv-x="583" d="M40 -229 L202 -229 L633 446 L464 446 L314 202 L215 446 L51 446 L224 57 L40 -229 Z " />
<glyph glyph-name="afii10086" unicode="&#x444;" horiz-adv-x="718" d="M400 -229 L429 -7 L440 -7 C541 -7 606 24 646 65 C688 108 710 170 710 238 C710 316 679 363 652 389 C609 431 541 453 485 456 L512 667 L368 667 L341 456 C276 459 174 444 111 362 C78 319 60 263 60 208 C60 154 79 98 115 60 C148 25 208 -8 285 -7 L256 -229 L400 -229 Z M333 337 L306 109 C282 111 253 120 234 137 C219 150 202 173 202 211 C202 252 219 285 241 305 C265 326 299 337 333 337 L333 337 Z M463 337 C490 336 520 326 539 308 C552 295 568 272 568 233 C568 178 540 150 532 142 C507 120 469 109 436 109 L463 337 Z " />
<glyph glyph-name="afii10087" unicode="&#x445;" horiz-adv-x="620" d="M632 446 L440 446 L338 331 L261 446 L79 446 L237 241 L3 0 L195 0 L326 144 L428 0 L610 0 L426 241 L632 446 Z " />
<glyph glyph-name="afii10088" unicode="&#x446;" horiz-adv-x="575" d="M56 0 L441 0 L426 -126 L554 -126 L583 116 L510 116 L551 446 L407 446 L366 116 L214 116 L255 446 L111 446 L56 0 Z " />
<glyph glyph-name="afii10089" unicode="&#x447;" horiz-adv-x="518" d="M316 0 L460 0 L515 446 L371 446 L349 269 C333 263 313 259 289 259 C274 259 252 261 236 274 C216 290 218 313 221 339 L235 446 L95 446 L81 329 C78 306 76 289 76 274 C76 247 81 213 109 185 C142 153 196 143 245 143 C276 143 303 146 335 156 L316 0 Z " />
<glyph glyph-name="afii10090" unicode="&#x448;" horiz-adv-x="804" d="M56 0 L746 0 L801 446 L657 446 L616 116 L487 116 L528 446 L384 446 L343 116 L214 116 L255 446 L111 446 L56 0 Z " />
<glyph glyph-name="afii10091" unicode="&#x449;" horiz-adv-x="827" d="M693 0 L678 -126 L806 -126 L835 116 L762 116 L803 446 L659 446 L618 116 L488 116 L529 446 L385 446 L344 116 L214 116 L255 446 L111 446 L56 0 L693 0 Z " />
<glyph glyph-name="afii10092" unicode="&#x44a;" horiz-adv-x="552" d="M68 446 L54 329 L163 329 L122 0 L355 0 C445 0 486 24 506 42 C532 67 548 110 548 156 C548 182 544 220 513 251 C476 289 426 293 385 293 L301 293 L320 446 L68 446 Z M278 102 L289 191 L338 191 C360 191 377 189 388 181 C400 172 402 159 402 150 C402 127 390 116 382 111 C371 104 349 102 335 102 L278 102 Z " />
<glyph glyph-name="afii10093" unicode="&#x44b;" horiz-adv-x="703" d="M111 446 L56 0 L280 0 C370 0 411 24 431 42 C457 67 473 110 473 156 C473 182 469 220 438 251 C401 289 351 293 310 293 L236 293 L255 446 L111 446 Z M213 102 L224 191 L269 191 C291 191 308 189 319 181 C331 172 333 159 333 150 C333 127 321 116 313 111 C302 104 280 102 266 102 L213 102 Z M556 446 L501 0 L645 0 L700 446 L556 446 Z " />
<glyph glyph-name="afii10094" unicode="&#x44c;" horiz-adv-x="487" d="M111 446 L56 0 L290 0 C380 0 421 24 441 42 C467 67 483 110 483 156 C483 182 479 220 448 251 C411 289 361 293 320 293 L236 293 L255 446 L111 446 Z M213 102 L224 191 L273 191 C295 191 312 189 323 181 C335 172 337 159 337 150 C337 127 325 116 317 111 C306 104 284 102 270 102 L213 102 Z " />
<glyph glyph-name="afii10095" unicode="&#x44d;" horiz-adv-x="460" d="M40 19 C95 -9 144 -15 194 -15 C254 -15 325 -9 384 49 C448 111 456 194 456 243 C456 286 450 347 400 398 C347 452 276 461 226 461 C188 461 144 455 91 434 L75 302 C127 340 169 345 199 345 C221 345 248 342 272 326 C287 316 303 300 312 274 L150 274 L137 177 L303 177 C295 148 277 130 261 120 C250 113 226 101 186 101 C128 101 83 126 56 147 L40 19 Z " />
<glyph glyph-name="afii10096" unicode="&#x44e;" horiz-adv-x="789" d="M233 292 L252 446 L110 446 L56 0 L198 0 L219 176 L275 176 C281 115 310 67 341 39 C393 -8 462 -15 515 -15 C571 -15 646 -8 709 54 C751 95 781 160 781 238 C781 308 755 358 721 392 C666 448 595 461 536 461 C449 461 395 433 363 408 C338 388 303 352 287 292 L233 292 Z M516 107 C487 107 463 116 443 136 C426 154 414 181 414 213 C414 241 425 281 448 306 C463 323 489 339 531 339 C570 339 593 323 605 311 C621 295 633 268 633 234 C633 198 621 161 596 137 C569 111 538 107 516 107 L516 107 Z " />
<glyph glyph-name="afii10097" unicode="&#x44f;" horiz-adv-x="492" d="M12 0 L177 0 L298 149 L308 149 L290 0 L434 0 L489 446 L279 446 C208 446 145 436 103 387 C81 360 68 326 68 282 C68 256 73 222 99 196 C114 181 138 169 160 163 L12 0 Z M319 243 L283 243 C250 243 236 250 232 253 C226 257 212 267 212 289 C212 304 218 319 227 328 C244 345 268 344 284 344 L331 344 L319 243 Z " />
<glyph glyph-name="afii10071" unicode="&#x451;" horiz-adv-x="542" d="M218 283 C222 303 232 320 243 332 C255 344 276 359 311 359 C329 359 354 354 370 341 C386 328 397 304 399 283 L218 283 Z M537 195 C538 207 539 221 539 236 C539 289 528 358 481 404 C447 437 390 461 314 461 C258 461 191 450 137 399 C100 364 60 299 60 201 C60 141 73 88 116 45 C169 -8 235 -15 290 -15 C331 -15 392 -11 443 27 C475 51 506 93 524 138 L379 150 C373 136 361 119 348 110 C330 98 308 97 291 97 C268 97 241 102 222 128 C210 145 203 173 204 195 L537 195 Z M352 600 C352 556 386 522 430 522 C474 522 508 556 508 600 C508 644 474 678 430 678 C386 678 352 644 352 600 L352 600 Z M138 600 C138 556 172 522 216 522 C260 522 294 556 294 600 C294 644 260 678 216 678 C172 678 138 644 138 600 L138 600 Z " />
<glyph glyph-name="afii10099" unicode="&#x452;" horiz-adv-x="571" d="M60 0 L204 0 L226 180 C230 213 238 251 260 274 C278 292 300 298 325 298 C340 298 362 295 378 279 C393 263 396 242 396 225 C396 204 392 168 390 153 L368 -22 C365 -47 358 -80 342 -95 C327 -110 307 -111 295 -111 C282 -111 271 -109 259 -105 L245 -219 C271 -226 297 -229 325 -229 C359 -229 416 -225 455 -187 C493 -150 504 -90 509 -50 L538 189 C544 241 545 265 545 274 C545 311 538 349 506 380 C472 413 428 418 393 418 C361 418 333 416 302 399 C281 388 262 372 248 357 L266 502 L458 502 L469 596 L277 596 L294 729 L150 729 L133 596 L53 596 L42 502 L122 502 L60 0 Z " />
<glyph glyph-name="afii10100" unicode="&#x453;" horiz-adv-x="366" d="M56 0 L200 0 L241 328 L397 328 L411 446 L111 446 L56 0 Z M345 715 L203 563 L262 515 L431 650 L345 715 Z " />
<glyph glyph-name="afii10101" unicode="&#x454;" horiz-adv-x="456" d="M471 428 C412 457 363 461 327 461 C262 461 187 449 129 390 C91 351 60 289 60 207 C60 127 91 77 119 49 C147 20 199 -15 287 -15 C323 -15 374 -8 421 15 L436 142 C393 106 356 101 320 101 C293 101 268 105 245 121 C230 131 214 148 206 176 L370 176 L382 274 L215 274 C221 288 233 309 258 325 C282 341 306 345 332 345 C358 345 405 342 455 299 L471 428 Z " />
<glyph glyph-name="afii10102" unicode="&#x455;" horiz-adv-x="434" d="M428 416 C367 458 314 461 281 461 C249 461 180 458 134 413 C110 389 92 352 92 309 C92 266 111 241 122 229 C143 208 173 196 197 189 L229 179 C241 175 255 172 264 166 C271 161 278 153 278 138 C278 124 272 116 260 109 C248 102 234 99 216 99 C185 99 159 111 154 113 C136 121 115 135 99 150 L38 53 C59 34 82 18 107 7 C147 -11 185 -15 223 -15 C262 -15 332 -9 380 41 C399 60 422 96 422 151 C422 186 412 213 389 236 C364 262 334 272 312 278 L279 287 C254 294 247 297 244 299 C233 306 230 315 230 323 C230 331 234 340 240 345 C250 354 269 357 283 357 C318 357 347 342 367 327 L428 416 Z " />
<glyph glyph-name="afii10103" unicode="&#x456;" horiz-adv-x="276" d="M120 446 L65 0 L209 0 L264 446 L120 446 Z M127 636 C127 589 164 552 211 552 C258 552 295 589 295 636 C295 683 258 720 211 720 C164 720 127 683 127 636 L127 636 Z " />
<glyph glyph-name="afii10104" unicode="&#x457;" horiz-adv-x="332" d="M141 446 L86 0 L230 0 L285 446 L141 446 Z M322 720 C283 720 248 687 248 637 C248 592 277 562 314 562 C353 562 388 595 388 645 C388 690 359 720 322 720 L322 720 Z M152 720 C113 720 78 687 78 637 C78 592 107 562 144 562 C183 562 218 595 218 645 C218 690 189 720 152 720 L152 720 Z " />
<glyph glyph-name="afii10105" unicode="&#x458;" horiz-adv-x="276" d="M120 446 L35 -229 L179 -229 L264 446 L120 446 Z M127 636 C127 589 164 552 211 552 C258 552 295 589 295 636 C295 683 258 720 211 720 C164 720 127 683 127 636 L127 636 Z " />
<glyph glyph-name="afii10106" unicode="&#x459;" horiz-adv-x="777" d="M526 293 L545 446 L148 446 L118 202 C115 181 109 149 94 134 C81 121 64 118 50 118 C39 118 30 119 19 123 L3 1 C25 -4 44 -6 65 -6 C109 -6 159 2 198 44 C233 81 246 135 254 197 L271 330 L387 330 L346 0 L580 0 C670 0 711 24 731 42 C757 67 773 110 773 156 C773 182 769 220 738 251 C701 289 651 293 610 293 L526 293 Z M503 102 L514 191 L563 191 C585 191 602 189 613 181 C625 172 627 159 627 150 C627 127 615 116 607 111 C596 104 574 102 560 102 L503 102 Z " />
<glyph glyph-name="afii10107" unicode="&#x45a;" horiz-adv-x="790" d="M539 293 L558 446 L414 446 L395 293 L235 293 L254 446 L110 446 L56 0 L200 0 L223 191 L383 191 L359 0 L593 0 C683 0 724 24 744 42 C770 67 786 110 786 156 C786 182 782 220 751 251 C714 289 664 293 623 293 L539 293 Z M516 102 L527 191 L576 191 C598 191 615 189 626 181 C638 172 640 159 640 150 C640 127 628 116 620 111 C609 104 587 102 573 102 L516 102 Z " />
<glyph glyph-name="afii10108" unicode="&#x45b;" horiz-adv-x="571" d="M60 0 L204 0 L226 180 C230 213 238 251 260 274 C278 292 300 298 325 298 C340 298 362 295 378 279 C393 263 396 242 396 225 C396 218 396 199 390 153 L371 0 L515 0 L538 189 C544 241 545 265 545 274 C545 311 538 349 506 380 C472 413 428 418 393 418 C361 418 333 416 302 399 C281 388 262 372 248 357 L266 502 L458 502 L469 596 L277 596 L294 729 L150 729 L133 596 L53 596 L42 502 L122 502 L60 0 Z " />
<glyph glyph-name="afii10109" unicode="&#x45c;" horiz-adv-x="540" d="M56 0 L200 0 L224 198 L352 0 L538 0 L367 233 L580 446 L401 446 L233 269 L255 446 L111 446 L56 0 Z M419 715 L277 563 L336 515 L505 650 L419 715 Z " />
<glyph glyph-name="afii10110" unicode="&#x45e;" horiz-adv-x="583" d="M40 -229 L202 -229 L633 446 L464 446 L314 202 L215 446 L51 446 L224 57 L40 -229 Z M438 662 C433 644 421 626 408 616 C391 603 371 601 356 601 C336 601 320 604 303 618 C291 628 280 643 275 662 L174 626 C187 583 213 557 235 542 C274 516 315 513 350 513 C387 513 431 517 469 540 C493 554 523 581 539 626 L438 662 Z " />
<glyph glyph-name="afii10193" unicode="&#x45f;" horiz-adv-x="552" d="M56 0 L212 0 L195 -136 L323 -136 L340 0 L496 0 L551 446 L407 446 L366 116 L214 116 L255 446 L111 446 L56 0 Z " />
<glyph glyph-name="afii10146" unicode="&#x462;" horiz-adv-x="641" d="M123 0 L358 0 C444 0 522 12 574 61 C603 88 635 139 635 221 C635 256 629 310 586 351 C551 385 492 406 423 406 L328 406 L336 481 L502 481 L517 601 L351 601 L365 714 L211 714 L197 601 L77 601 L62 481 L182 481 L123 0 Z M312 283 L373 283 C404 283 431 281 450 268 C462 260 479 243 479 210 C479 171 459 148 442 138 C439 136 415 123 357 123 L293 123 L312 283 Z " />
<glyph glyph-name="afii10194" unicode="&#x463;" horiz-adv-x="533" d="M289 353 L443 353 L455 447 L301 447 L328 668 L184 668 L157 447 L62 447 L50 353 L145 353 L102 0 L336 0 C426 0 467 24 487 42 C513 67 529 110 529 156 C529 182 525 220 494 251 C457 289 407 293 366 293 L282 293 L289 353 Z M259 102 L270 191 L319 191 C341 191 358 189 369 181 C381 172 383 159 383 150 C383 127 371 116 363 111 C352 104 330 102 316 102 L259 102 Z " />
<glyph glyph-name="afii10147" unicode="&#x472;" horiz-adv-x="810" d="M464 682 C378 682 275 662 190 581 C127 521 80 430 80 313 C80 204 128 127 174 80 C253 0 345 -15 428 -15 C515 -15 620 2 704 88 C774 160 807 263 807 358 C807 456 770 540 713 595 C669 637 592 682 464 682 L464 682 Z M255 399 C268 441 293 475 321 497 C362 530 410 540 456 540 C501 540 545 532 582 503 C628 468 639 423 642 399 L255 399 Z M637 269 C624 221 595 183 563 161 C529 137 483 127 435 127 C383 127 341 141 312 163 C284 184 257 220 247 269 L637 269 Z " />
<glyph glyph-name="afii10195" unicode="&#x473;" horiz-adv-x="592" d="M337 461 C255 461 181 433 132 385 C84 339 60 274 60 209 C60 143 86 88 121 52 C178 -7 250 -15 307 -15 C372 -15 449 -6 512 58 C559 106 584 176 584 241 C584 306 558 358 524 392 C480 436 409 461 337 461 L337 461 Z M220 266 C227 289 240 306 253 318 C275 338 300 345 328 345 C351 345 379 339 398 323 C414 309 426 285 431 266 L220 266 Z M428 188 C421 162 406 137 386 122 C367 108 340 101 317 101 C289 101 262 111 244 127 C229 140 215 161 210 188 L428 188 Z " />
<glyph glyph-name="afii10148" unicode="&#x474;" horiz-adv-x="678" d="M83 667 L283 0 L389 0 L753 667 L581 667 L360 240 L243 667 L83 667 Z " />
<glyph glyph-name="afii10196" unicode="&#x475;" horiz-adv-x="546" d="M54 446 L226 0 L312 0 L596 446 L436 446 L289 207 L204 446 L54 446 Z " />
<glyph glyph-name="afii10050" unicode="&#x490;" horiz-adv-x="482" d="M152 667 L70 0 L224 0 L290 537 L530 537 L530 538 L564 817 L431 817 L413 667 L152 667 Z " />
<glyph glyph-name="afii10098" unicode="&#x491;" horiz-adv-x="411" d="M56 0 L200 0 L240 328 L436 328 L466 572 L338 572 L323 446 L111 446 L56 0 Z " />
<glyph glyph-name="uni0492" unicode="&#x492;" horiz-adv-x="501" d="M553 667 L179 667 L147 408 L49 408 L34 284 L132 284 L97 0 L251 0 L286 284 L448 284 L463 408 L301 408 L317 537 L537 537 L553 667 Z " />
<glyph glyph-name="uni0493" unicode="&#x493;" horiz-adv-x="388" d="M78 0 L222 0 L239 142 L346 142 L358 238 L251 238 L262 328 L418 328 L433 446 L133 446 L107 238 L34 238 L22 142 L95 142 L78 0 Z " />
<glyph glyph-name="uni0494" unicode="&#x494;" horiz-adv-x="621" d="M546 667 L152 667 L70 0 L224 0 L256 262 C292 278 329 285 366 285 C383 285 414 283 436 263 C455 245 457 222 457 204 C457 162 440 143 433 136 C413 117 385 115 364 115 C345 115 325 118 306 122 L292 1 C322 -5 349 -7 377 -7 C417 -7 493 -4 547 43 C590 81 615 143 615 207 C615 304 565 354 553 364 C523 391 472 415 385 415 C347 415 313 409 272 392 L290 537 L530 537 L546 667 Z " />
<glyph glyph-name="uni0495" unicode="&#x495;" horiz-adv-x="484" d="M56 0 L200 0 L216 128 L221 128 C246 128 270 121 285 108 C301 94 312 70 312 38 C312 5 299 -35 272 -61 C254 -79 226 -93 194 -96 L180 -208 C258 -206 335 -187 392 -126 C424 -92 458 -37 458 46 C458 112 435 156 408 183 C357 234 286 238 245 238 L229 238 L240 328 L396 328 L411 446 L111 446 L56 0 Z " />
<glyph glyph-name="uni0496" unicode="&#x496;" horiz-adv-x="942" d="M823 667 L591 381 L626 667 L472 667 L437 381 L275 667 L103 667 L293 354 L3 0 L189 0 L427 299 L390 0 L544 0 L581 299 L746 0 L788 0 L770 -150 L908 -150 L942 130 L852 130 L725 339 L1000 667 L823 667 Z " />
<glyph glyph-name="uni0497" unicode="&#x497;" horiz-adv-x="767" d="M368 446 L346 267 L241 446 L82 446 L210 239 L-3 0 L178 0 L337 193 L313 0 L453 0 L477 193 L586 0 L619 0 L604 -126 L732 -126 L761 116 L688 116 L616 233 L807 446 L638 446 L486 267 L508 446 L368 446 Z " />
<glyph glyph-name="uni0498" unicode="&#x498;" horiz-adv-x="590" d="M188 492 C204 505 228 521 248 530 C271 541 296 546 323 546 C330 546 366 546 387 532 C401 523 415 505 415 481 C415 460 408 436 377 421 C356 410 321 405 292 405 L254 405 L239 281 L281 281 C306 281 347 278 368 267 C393 254 405 234 405 205 C405 179 396 160 377 145 C361 132 335 121 292 121 C256 121 226 129 197 146 C174 160 147 184 129 205 L40 93 C118 9 199 -8 247 -12 L227 -166 L365 -166 L385 -10 C436 -1 475 23 505 53 C548 96 569 153 569 208 C569 243 560 279 534 309 C507 339 471 352 463 354 C495 366 521 387 538 409 C563 441 570 475 570 510 C570 550 560 592 526 626 C498 654 447 682 356 682 C329 682 274 679 219 658 C188 646 155 628 127 607 L188 492 Z " />
<glyph glyph-name="uni0499" unicode="&#x499;" horiz-adv-x="463" d="M129 311 C153 328 174 337 180 340 C201 349 220 353 245 353 C271 353 284 348 291 344 C302 338 309 330 309 316 C309 306 304 291 285 284 C279 281 266 278 233 278 L187 278 L175 180 L223 180 C238 180 264 177 275 173 C298 164 299 145 299 139 C299 127 293 114 278 106 C264 98 242 97 228 97 C199 97 177 102 151 114 C125 126 106 141 93 152 L26 59 C93 2 150 -8 182 -11 L165 -136 L293 -136 L310 -10 C361 -8 393 16 410 32 C442 62 451 96 451 132 C451 160 444 184 424 204 C410 218 390 228 373 232 C391 238 408 248 419 259 C434 274 449 298 449 334 C449 389 418 418 395 433 C383 440 346 461 270 461 C245 461 203 459 160 445 C133 436 105 422 82 407 L129 311 Z " />
<glyph glyph-name="uni049A" unicode="&#x49a;" horiz-adv-x="670" d="M306 667 L152 667 L70 0 L224 0 L261 302 L462 0 L499 0 L481 -150 L619 -150 L653 130 L563 130 L409 344 L700 667 L516 667 L272 388 L306 667 Z " />
<glyph glyph-name="uni049B" unicode="&#x49b;" horiz-adv-x="540" d="M56 0 L200 0 L224 198 L352 0 L383 0 L368 -126 L496 -126 L525 116 L452 116 L367 233 L580 446 L401 446 L233 269 L255 446 L111 446 L56 0 Z " />
<glyph glyph-name="uni049C" unicode="&#x49c;" horiz-adv-x="790" d="M152 667 L70 0 L224 0 L261 299 L320 299 L301 144 L405 144 L424 302 L593 0 L787 0 L571 344 L850 667 L666 667 L435 388 L455 551 L351 551 L332 401 L273 401 L306 667 L152 667 Z " />
<glyph glyph-name="uni049D" unicode="&#x49d;" horiz-adv-x="632" d="M56 0 L200 0 L223 188 L272 188 L259 74 L341 74 L355 193 L453 0 L616 0 L485 231 L672 446 L503 446 L364 268 L377 372 L295 372 L283 273 L233 273 L254 446 L110 446 L56 0 Z " />
<glyph glyph-name="uni04A0" unicode="&#x4a0;" horiz-adv-x="712" d="M383 667 L85 667 L69 537 L213 537 L147 0 L301 0 L337 302 L507 0 L701 0 L485 344 L764 667 L580 667 L348 388 L383 667 Z " />
<glyph glyph-name="uni04A1" unicode="&#x4a1;" horiz-adv-x="600" d="M116 0 L260 0 L284 198 L412 0 L598 0 L427 233 L640 446 L461 446 L293 269 L315 446 L65 446 L50 328 L158 328 L116 0 Z " />
<glyph glyph-name="uni04A2" unicode="&#x4a2;" horiz-adv-x="747" d="M306 667 L152 667 L70 0 L224 0 L259 287 L525 287 L490 0 L596 0 L578 -150 L716 -150 L750 130 L660 130 L726 667 L572 667 L541 417 L275 417 L306 667 Z " />
<glyph glyph-name="uni04A3" unicode="&#x4a3;" horiz-adv-x="584" d="M56 0 L200 0 L221 175 L382 175 L361 0 L450 0 L435 -126 L563 -126 L592 116 L519 116 L560 446 L416 446 L397 291 L236 291 L255 446 L111 446 L56 0 Z " />
<glyph glyph-name="uni04A4" unicode="&#x4a4;" horiz-adv-x="864" d="M931 667 L572 667 L541 413 L275 413 L306 667 L152 667 L70 0 L224 0 L259 283 L525 283 L490 0 L644 0 L710 537 L915 537 L931 667 Z " />
<glyph glyph-name="uni04A5" unicode="&#x4a5;" horiz-adv-x="655" d="M361 0 L505 0 L545 328 L687 328 L702 446 L416 446 L397 291 L236 291 L255 446 L111 446 L56 0 L200 0 L221 175 L382 175 L361 0 Z " />
<glyph glyph-name="uni04AA" unicode="&#x4aa;" horiz-adv-x="605" d="M587 187 C550 157 497 129 431 129 C370 129 320 151 290 181 C260 211 238 262 238 318 C238 371 257 431 298 475 C340 521 392 538 456 538 C545 538 596 498 623 471 L642 634 C618 648 556 682 453 682 C331 682 242 634 186 578 C123 515 80 421 80 305 C80 211 109 135 170 74 C231 14 298 -3 339 -9 L319 -166 L457 -166 L477 -9 C510 -3 540 7 567 21 L587 187 Z " />
<glyph glyph-name="uni04AB" unicode="&#x4ab;" horiz-adv-x="431" d="M445 432 C402 453 360 461 315 461 C222 461 165 425 130 390 C93 353 60 293 60 208 C60 152 75 106 104 66 C136 23 171 3 211 -6 L195 -136 L323 -136 L339 -8 C360 -5 378 2 393 11 L409 143 C388 124 357 107 318 107 C288 107 262 116 240 137 C222 154 208 180 208 216 C208 246 219 281 241 305 C251 315 278 339 328 339 C381 339 416 312 428 301 L445 432 Z " />
<glyph glyph-name="uni04AE" unicode="&#x4ae;" horiz-adv-x="632" d="M236 0 L390 0 L428 311 L711 667 L523 667 L364 460 L255 667 L79 667 L274 311 L236 0 Z " />
<glyph glyph-name="uni04AF" unicode="&#x4af;" horiz-adv-x="520" d="M57 446 L194 50 L160 -229 L304 -229 L338 51 L573 446 L416 446 L279 199 L204 446 L57 446 Z " />
<glyph glyph-name="uni04B0" unicode="&#x4b0;" horiz-adv-x="632" d="M236 0 L390 0 L412 179 L591 179 L606 299 L427 299 L428 311 L711 667 L523 667 L363 460 L255 667 L79 667 L274 311 L273 299 L94 299 L79 179 L258 179 L236 0 Z " />
<glyph glyph-name="uni04B1" unicode="&#x4b1;" horiz-adv-x="520" d="M57 446 L194 50 L191 21 L52 21 L39 -79 L178 -79 L160 -229 L304 -229 L322 -79 L462 -79 L475 21 L335 21 L338 51 L573 446 L417 446 L280 199 L205 446 L57 446 Z " />
<glyph glyph-name="uni04B2" unicode="&#x4b2;" horiz-adv-x="686" d="M7 0 L196 0 L373 231 L492 0 L533 0 L515 -150 L653 -150 L687 130 L597 130 L472 354 L717 667 L528 667 L395 477 L308 667 L127 667 L296 354 L7 0 Z " />
<glyph glyph-name="uni04B3" unicode="&#x4b3;" horiz-adv-x="620" d="M632 446 L440 446 L338 331 L261 446 L79 446 L237 241 L3 0 L195 0 L326 144 L428 0 L452 0 L437 -126 L565 -126 L594 116 L521 116 L426 241 L632 446 Z " />
<glyph glyph-name="uni04B6" unicode="&#x4b6;" horiz-adv-x="674" d="M498 667 L464 399 C435 394 403 390 378 390 C351 390 313 393 291 407 C261 425 258 453 258 472 C258 488 261 507 264 532 L281 667 L127 667 L108 517 C101 464 98 443 98 420 C98 367 118 327 158 298 C181 282 229 256 331 256 C382 256 424 262 449 266 L416 0 L523 0 L505 -150 L643 -150 L677 130 L587 130 L652 667 L498 667 Z " />
<glyph glyph-name="uni04B7" unicode="&#x4b7;" horiz-adv-x="539" d="M371 446 L349 269 C333 263 313 259 289 259 C274 259 252 261 236 274 C216 290 218 313 221 339 L235 446 L95 446 L81 329 C78 306 76 289 76 274 C76 247 81 213 109 185 C142 153 196 143 245 143 C276 143 303 146 335 156 L316 0 L405 0 L390 -126 L518 -126 L547 116 L474 116 L515 446 L371 446 Z " />
<glyph glyph-name="uni04B8" unicode="&#x4b8;" horiz-adv-x="688" d="M458 0 L612 0 L694 667 L540 667 L506 390 C483 385 459 383 434 384 L454 548 L350 548 L330 386 C310 385 286 392 274 402 C246 425 254 472 259 510 L278 667 L126 667 L106 515 C102 488 98 463 98 434 C98 383 109 340 154 305 C202 268 272 262 314 263 L298 132 L402 132 L419 265 C444 265 468 268 492 272 L458 0 Z " />
<glyph glyph-name="uni04B9" unicode="&#x4b9;" horiz-adv-x="573" d="M372 0 L516 0 L570 446 L426 446 L404 262 C386 257 368 254 349 254 L363 372 L281 372 L268 256 C253 254 238 259 230 266 C210 282 214 310 218 339 L231 446 L95 446 L81 335 C77 302 76 288 76 280 C76 236 93 210 105 197 C143 157 220 154 256 155 L245 74 L327 74 L337 157 C356 157 374 160 392 164 L372 0 Z " />
<glyph glyph-name="uni04BA" unicode="&#x4ba;" horiz-adv-x="656" d="M306 667 L152 667 L70 0 L224 0 L259 284 C273 286 315 292 343 292 C370 292 412 289 438 274 C467 258 472 237 472 209 C472 191 469 177 467 158 L448 0 L602 0 L625 185 C627 204 632 228 632 251 C632 313 603 352 574 374 C526 411 450 422 395 422 C360 422 316 419 275 412 L306 667 Z " />
<glyph glyph-name="uni04BB" unicode="&#x4bb;" horiz-adv-x="571" d="M150 729 L60 0 L204 0 L230 220 C233 244 239 288 265 314 C284 333 306 338 332 338 C345 338 367 335 383 319 C398 303 401 282 401 265 C401 258 401 239 395 193 L371 0 L515 0 L542 229 C548 277 549 299 549 314 C549 341 546 386 511 420 C477 453 433 458 398 458 C365 458 339 456 307 439 C292 431 272 418 252 397 L294 729 L150 729 Z " />
<glyph glyph-name="uni04C0" unicode="&#x4c0;" horiz-adv-x="306" d="M155 667 L73 0 L227 0 L309 667 L155 667 Z " />
<glyph glyph-name="uni04C1" unicode="&#x4c1;" horiz-adv-x="941" d="M390 0 L544 0 L581 299 L746 0 L928 0 L725 339 L999 667 L823 667 L591 381 L626 667 L472 667 L437 381 L275 667 L103 667 L293 354 L3 0 L189 0 L427 299 L390 0 Z M655 886 C649 870 638 852 625 841 C605 824 581 822 563 822 C545 822 522 825 502 840 C488 851 477 868 472 886 L361 840 C376 803 402 773 431 754 C471 728 515 724 558 724 C654 724 727 757 766 840 L655 886 Z " />
<glyph glyph-name="uni04C2" unicode="&#x4c2;" horiz-adv-x="762" d="M366 446 L344 267 L239 446 L80 446 L208 239 L-3 0 L178 0 L335 193 L311 0 L451 0 L475 193 L584 0 L755 0 L614 233 L802 446 L633 446 L484 267 L506 446 L366 446 Z M541 662 C536 644 524 626 511 616 C494 603 474 601 459 601 C439 601 423 604 406 618 C394 628 383 643 378 662 L277 626 C290 583 316 557 338 542 C377 516 418 513 453 513 C490 513 534 517 572 540 C596 554 626 581 642 626 L541 662 Z " />
<glyph glyph-name="uni04C3" unicode="&#x4c3;" horiz-adv-x="643" d="M306 667 L152 667 L70 0 L224 0 L258 279 C290 286 317 288 348 288 C388 288 421 282 444 266 C462 253 476 233 476 201 C476 174 466 151 451 136 C432 117 409 115 395 115 C374 115 359 120 346 128 L314 10 C349 -4 376 -7 414 -7 C466 -7 525 -3 577 50 C608 82 636 135 636 213 C636 252 627 303 587 342 C558 370 505 393 456 400 L714 667 L528 667 L272 389 L306 667 Z " />
<glyph glyph-name="uni04C4" unicode="&#x4c4;" horiz-adv-x="511" d="M56 0 L200 0 L216 128 L223 128 C251 128 282 126 305 109 C324 95 340 70 340 36 C340 1 324 -38 300 -61 C281 -79 254 -93 222 -96 L208 -208 C286 -206 363 -187 420 -126 C460 -84 486 -26 486 46 C486 77 480 123 448 163 C426 190 393 214 350 225 L564 446 L393 446 L233 269 L255 446 L111 446 L56 0 Z " />
<glyph glyph-name="uni04C7" unicode="&#x4c7;" horiz-adv-x="720" d="M306 667 L152 667 L70 0 L224 0 L259 283 L525 283 L485 -39 C483 -56 478 -82 463 -96 C449 -109 431 -111 419 -111 C402 -111 390 -108 379 -103 L365 -219 C393 -226 420 -229 453 -229 C499 -229 547 -223 586 -186 C624 -149 632 -100 637 -60 L726 667 L572 667 L541 413 L275 413 L306 667 Z " />
<glyph glyph-name="uni04C8" unicode="&#x4c8;" horiz-adv-x="563" d="M56 0 L200 0 L221 175 L382 175 L358 -22 C356 -38 350 -78 332 -95 C317 -110 297 -111 285 -111 C272 -111 261 -109 249 -105 L235 -219 C261 -226 287 -229 315 -229 C349 -229 406 -225 445 -187 C483 -150 494 -90 499 -50 L560 446 L416 446 L397 291 L236 291 L255 446 L111 446 L56 0 Z " />
<glyph glyph-name="uni04D0" unicode="&#x4d0;" horiz-adv-x="677" d="M517 0 L675 0 L496 667 L354 667 L2 0 L168 0 L231 126 L483 126 L517 0 Z M289 244 L401 479 L455 244 L289 244 Z M535 886 C529 870 518 852 505 841 C485 824 461 822 443 822 C425 822 402 825 382 840 C368 851 357 868 352 886 L241 840 C256 803 282 773 311 754 C351 728 395 724 438 724 C534 724 607 757 646 840 L535 886 Z " />
<glyph glyph-name="uni04D1" unicode="&#x4d1;" horiz-adv-x="598" d="M444 392 C424 420 400 436 383 444 C354 458 322 461 296 461 C234 461 178 443 132 396 C89 352 60 286 60 204 C60 127 87 75 120 40 C159 -1 203 -15 258 -15 C275 -15 310 -13 341 1 C365 12 388 32 404 51 L393 0 L537 0 L592 446 L448 446 L444 392 Z M327 337 C366 337 389 324 402 312 C421 295 433 267 433 235 C433 202 421 164 395 139 C380 125 354 109 313 109 C284 109 258 117 237 139 C223 154 208 178 208 215 C208 252 222 284 242 304 C264 326 291 337 327 337 L327 337 Z M468 662 C463 644 451 626 438 616 C421 603 401 601 386 601 C366 601 350 604 333 618 C321 628 310 643 305 662 L204 626 C217 583 243 557 265 542 C304 516 345 513 380 513 C417 513 461 517 499 540 C523 554 553 581 569 626 L468 662 Z " />
<glyph glyph-name="uni04D2" unicode="&#x4d2;" horiz-adv-x="677" d="M517 0 L675 0 L496 667 L354 667 L2 0 L168 0 L231 126 L483 126 L517 0 Z M289 244 L401 479 L455 244 L289 244 Z M247 811 C247 768 283 732 326 732 C369 732 405 768 405 811 C405 854 369 890 326 890 C283 890 247 854 247 811 L247 811 Z M465 811 C465 768 501 732 544 732 C587 732 623 768 623 811 C623 854 587 890 544 890 C501 890 465 854 465 811 L465 811 Z " />
<glyph glyph-name="uni04D3" unicode="&#x4d3;" horiz-adv-x="598" d="M444 392 C424 420 400 436 383 444 C354 458 322 461 296 461 C234 461 178 443 132 396 C89 352 60 286 60 204 C60 127 87 75 120 40 C159 -1 203 -15 258 -15 C275 -15 310 -13 341 1 C365 12 388 32 404 51 L393 0 L537 0 L592 446 L448 446 L444 392 Z M327 337 C366 337 389 324 402 312 C421 295 433 267 433 235 C433 202 421 164 395 139 C380 125 354 109 313 109 C284 109 258 117 237 139 C223 154 208 178 208 215 C208 252 222 284 242 304 C264 326 291 337 327 337 L327 337 Z M166 599 C166 556 202 520 245 520 C288 520 324 556 324 599 C324 642 288 678 245 678 C202 678 166 642 166 599 L166 599 Z M384 599 C384 556 420 520 463 520 C506 520 542 556 542 599 C542 642 506 678 463 678 C420 678 384 642 384 599 L384 599 Z " />
<glyph glyph-name="uni04D4" unicode="&#x4d4;" horiz-adv-x="920" d="M526 0 L914 0 L881 130 L649 130 L608 278 L839 278 L805 408 L575 408 L540 537 L772 537 L740 667 L361 667 L6 0 L170 0 L236 129 L491 129 L526 0 Z M295 247 L408 466 L463 247 L295 247 Z " />
<glyph glyph-name="uni04D5" unicode="&#x4d5;" horiz-adv-x="840" d="M683 141 C669 112 641 90 598 90 C561 90 538 103 526 117 C508 137 500 173 500 198 L830 198 C832 212 834 227 834 245 C834 324 806 374 775 405 C729 451 670 461 622 461 C522 461 471 412 448 384 C426 426 386 461 286 461 C234 461 191 452 159 443 L146 333 C204 353 242 355 261 355 C291 355 321 349 339 334 C357 320 371 294 365 252 C336 270 303 279 249 279 C211 279 155 276 112 247 C79 225 49 183 49 124 C49 80 68 43 96 21 C136 -11 198 -15 235 -15 C292 -15 323 -6 341 1 C365 11 393 29 416 60 C437 30 463 14 482 5 C511 -8 555 -15 595 -15 C622 -15 681 -12 730 19 C765 42 799 82 817 132 L683 141 Z M268 192 C288 192 317 187 334 172 C342 164 348 155 348 142 C348 127 341 113 330 103 C312 88 284 83 262 83 C231 83 213 92 202 102 C192 111 187 122 187 134 C187 145 191 158 201 168 C216 184 243 192 268 192 L268 192 Z M515 284 C522 305 534 325 549 338 C562 350 584 361 615 361 C641 361 663 352 676 340 C691 326 702 302 706 284 L515 284 Z " />
<glyph glyph-name="uni04D6" unicode="&#x4d6;" horiz-adv-x="502" d="M520 667 L152 667 L70 0 L442 0 L458 130 L236 130 L254 278 L464 278 L480 408 L270 408 L286 537 L504 537 L520 667 Z M455 886 C449 870 438 852 425 841 C405 824 381 822 363 822 C345 822 322 825 302 840 C288 851 277 868 272 886 L161 840 C176 803 202 773 231 754 C271 728 315 724 358 724 C454 724 527 757 566 840 L455 886 Z " />
<glyph glyph-name="uni04D7" unicode="&#x4d7;" horiz-adv-x="542" d="M218 283 C222 303 232 320 243 332 C255 344 276 359 311 359 C329 359 354 354 370 341 C386 328 397 304 399 283 L218 283 Z M537 195 C543 248 541 345 481 404 C447 437 390 461 314 461 C258 461 191 450 137 399 C100 364 60 299 60 201 C60 141 73 88 116 45 C169 -8 235 -15 290 -15 C331 -15 392 -11 443 27 C475 51 506 93 524 138 L379 150 C373 136 361 119 348 110 C330 98 308 97 291 97 C268 97 241 102 222 128 C210 145 203 173 204 195 L537 195 Z M433 662 C428 644 416 626 403 616 C386 603 366 601 351 601 C331 601 315 604 298 618 C286 628 275 643 270 662 L169 626 C182 583 208 557 230 542 C269 516 310 513 345 513 C382 513 426 517 464 540 C488 554 518 581 534 626 L433 662 Z " />
<glyph glyph-name="uni04D8" unicode="&#x4d8;" horiz-adv-x="765" d="M83 375 C70 267 103 146 178 71 C243 5 322 -15 413 -15 C495 -15 580 0 655 73 C711 127 762 221 762 357 C762 428 747 522 669 597 C592 671 498 682 425 682 C358 682 296 672 235 633 C191 606 148 562 116 507 L264 456 C283 487 307 506 325 516 C356 534 389 540 423 540 C487 540 528 517 553 489 C579 460 596 415 600 375 L83 375 Z M588 267 C579 222 554 181 523 157 C495 136 457 123 406 123 C350 123 315 141 295 157 C267 179 243 221 237 267 L588 267 Z " />
<glyph glyph-name="afii10846" unicode="&#x4d9;" horiz-adv-x="547" d="M61 255 C53 147 90 82 125 47 C176 -5 237 -15 292 -15 C347 -15 412 -8 468 49 C512 93 539 159 539 241 C539 279 532 348 477 401 C439 437 380 461 307 461 C249 461 203 447 167 424 C144 410 108 381 82 331 L219 303 C227 317 238 330 249 338 C262 347 279 354 304 354 C345 354 365 335 369 331 C387 313 395 280 395 255 L61 255 Z M385 166 C380 144 367 120 350 107 C328 90 298 89 287 89 C268 89 242 92 222 112 C209 124 199 144 196 166 L385 166 Z " />
<glyph glyph-name="uni04DA" unicode="&#x4da;" horiz-adv-x="765" d="M83 375 C70 267 103 146 178 71 C243 5 322 -15 413 -15 C495 -15 580 0 655 73 C711 127 762 221 762 357 C762 428 747 522 669 597 C592 671 498 682 425 682 C358 682 296 672 235 633 C191 606 148 562 116 507 L264 456 C283 487 307 506 325 516 C356 534 389 540 423 540 C487 540 528 517 553 489 C579 460 596 415 600 375 L83 375 Z M588 267 C579 222 554 181 523 157 C495 136 457 123 406 123 C350 123 315 141 295 157 C267 179 243 221 237 267 L588 267 Z M257 811 C257 768 293 732 336 732 C379 732 415 768 415 811 C415 854 379 890 336 890 C293 890 257 854 257 811 L257 811 Z M475 811 C475 768 511 732 554 732 C597 732 633 768 633 811 C633 854 597 890 554 890 C511 890 475 854 475 811 L475 811 Z " />
<glyph glyph-name="uni04DB" unicode="&#x4db;" horiz-adv-x="547" d="M61 255 C53 147 90 82 125 47 C176 -5 237 -15 292 -15 C347 -15 412 -8 468 49 C512 93 539 159 539 241 C539 279 532 348 477 401 C439 437 380 461 307 461 C249 461 203 447 167 424 C144 410 108 381 82 331 L219 303 C227 317 238 330 249 338 C262 347 279 354 304 354 C345 354 365 335 369 331 C387 313 395 280 395 255 L61 255 Z M385 166 C380 144 367 120 350 107 C328 90 298 89 287 89 C268 89 242 92 222 112 C209 124 199 144 196 166 L385 166 Z M141 599 C141 556 177 520 220 520 C263 520 299 556 299 599 C299 642 263 678 220 678 C177 678 141 642 141 599 L141 599 Z M359 599 C359 556 395 520 438 520 C481 520 517 556 517 599 C517 642 481 678 438 678 C395 678 359 642 359 599 L359 599 Z " />
<glyph glyph-name="uni04DC" unicode="&#x4dc;" horiz-adv-x="941" d="M390 0 L544 0 L581 299 L746 0 L928 0 L725 339 L999 667 L823 667 L591 381 L626 667 L472 667 L437 381 L275 667 L103 667 L293 354 L3 0 L189 0 L427 299 L390 0 Z M368 811 C368 768 404 732 447 732 C490 732 526 768 526 811 C526 854 490 890 447 890 C404 890 368 854 368 811 L368 811 Z M586 811 C586 768 622 732 665 732 C708 732 744 768 744 811 C744 854 708 890 665 890 C622 890 586 854 586 811 L586 811 Z " />
<glyph glyph-name="uni04DD" unicode="&#x4dd;" horiz-adv-x="762" d="M366 446 L344 267 L239 446 L80 446 L208 239 L-3 0 L178 0 L335 193 L311 0 L451 0 L475 193 L584 0 L755 0 L614 233 L802 446 L633 446 L484 267 L506 446 L366 446 Z M256 599 C256 556 292 520 335 520 C378 520 414 556 414 599 C414 642 378 678 335 678 C292 678 256 642 256 599 L256 599 Z M474 599 C474 556 510 520 553 520 C596 520 632 556 632 599 C632 642 596 678 553 678 C510 678 474 642 474 599 L474 599 Z " />
<glyph glyph-name="uni04DE" unicode="&#x4de;" horiz-adv-x="590" d="M188 492 C204 505 228 521 248 530 C271 541 296 546 323 546 C330 546 366 546 387 532 C401 523 415 505 415 481 C415 460 408 436 377 421 C356 410 321 405 292 405 L254 405 L239 281 L281 281 C306 281 347 278 368 267 C394 254 405 233 405 207 C405 179 395 159 377 145 C361 132 335 121 292 121 C256 121 226 129 197 146 C174 160 147 184 129 205 L40 93 C71 59 109 32 143 16 C200 -11 261 -15 308 -15 C374 -15 445 -7 505 53 C547 95 569 153 569 210 C569 243 561 279 534 309 C507 339 471 351 463 354 C495 366 521 387 538 409 C563 441 570 475 570 510 C570 550 560 592 526 626 C498 654 447 682 356 682 C329 682 274 679 219 658 C188 646 155 628 127 607 L188 492 Z M167 811 C167 768 203 732 246 732 C289 732 325 768 325 811 C325 854 289 890 246 890 C203 890 167 854 167 811 L167 811 Z M385 811 C385 768 421 732 464 732 C507 732 543 768 543 811 C543 854 507 890 464 890 C421 890 385 854 385 811 L385 811 Z " />
<glyph glyph-name="uni04DF" unicode="&#x4df;" horiz-adv-x="463" d="M129 311 C153 328 174 337 180 340 C201 349 220 353 245 353 C271 353 284 348 291 344 C302 338 309 330 309 316 C309 306 304 291 285 284 C279 281 266 278 233 278 L187 278 L175 180 L223 180 C238 180 264 177 275 173 C298 164 299 145 299 139 C299 127 293 114 278 106 C264 98 242 97 228 97 C199 97 177 102 151 114 C125 126 106 141 93 152 L26 59 C50 39 82 18 113 6 C155 -11 198 -15 246 -15 C292 -15 351 -11 395 20 C432 46 451 83 451 135 C451 161 447 182 424 204 C411 216 394 227 373 232 C391 238 408 248 419 259 C434 274 449 298 449 334 C449 389 418 418 395 433 C383 440 346 461 270 461 C245 461 203 459 160 445 C133 436 105 422 82 407 L129 311 Z M81 599 C81 556 117 520 160 520 C203 520 239 556 239 599 C239 642 203 678 160 678 C117 678 81 642 81 599 L81 599 Z M299 599 C299 556 335 520 378 520 C421 520 457 556 457 599 C457 642 421 678 378 678 C335 678 299 642 299 599 L299 599 Z " />
<glyph glyph-name="uni04E2" unicode="&#x4e2;" horiz-adv-x="743" d="M152 667 L70 0 L207 0 L567 433 L513 0 L667 0 L749 667 L613 667 L252 235 L306 667 L152 667 Z M266 753 L654 753 L666 845 L278 845 L266 753 Z " />
<glyph glyph-name="uni04E3" unicode="&#x4e3;" horiz-adv-x="580" d="M111 446 L56 0 L190 0 L410 257 L378 0 L522 0 L577 446 L443 446 L224 193 L255 446 L111 446 Z M159 543 L539 543 L550 633 L170 633 L159 543 Z " />
<glyph glyph-name="uni04E4" unicode="&#x4e4;" horiz-adv-x="743" d="M152 667 L70 0 L207 0 L567 433 L513 0 L667 0 L749 667 L613 667 L252 235 L306 667 L152 667 Z M280 811 C280 768 316 732 359 732 C402 732 438 768 438 811 C438 854 402 890 359 890 C316 890 280 854 280 811 L280 811 Z M498 811 C498 768 534 732 577 732 C620 732 656 768 656 811 C656 854 620 890 577 890 C534 890 498 854 498 811 L498 811 Z " />
<glyph glyph-name="uni04E5" unicode="&#x4e5;" horiz-adv-x="580" d="M111 446 L56 0 L190 0 L410 257 L378 0 L522 0 L577 446 L443 446 L224 193 L255 446 L111 446 Z M164 599 C164 556 200 520 243 520 C286 520 322 556 322 599 C322 642 286 678 243 678 C200 678 164 642 164 599 L164 599 Z M382 599 C382 556 418 520 461 520 C504 520 540 556 540 599 C540 642 504 678 461 678 C418 678 382 642 382 599 L382 599 Z " />
<glyph glyph-name="uni04E6" unicode="&#x4e6;" horiz-adv-x="810" d="M464 682 C378 682 275 662 190 581 C127 521 80 430 80 313 C80 204 128 127 174 80 C253 0 345 -15 428 -15 C515 -15 620 2 704 88 C774 160 807 263 807 358 C807 456 770 540 713 595 C669 637 592 682 464 682 L464 682 Z M458 540 C499 540 552 531 596 488 C640 445 649 391 649 348 C649 279 623 221 587 184 C538 134 483 127 438 127 C391 127 337 137 292 183 C261 214 238 262 238 323 C238 379 260 435 299 476 C339 518 392 540 458 540 L458 540 Z M297 811 C297 768 333 732 376 732 C419 732 455 768 455 811 C455 854 419 890 376 890 C333 890 297 854 297 811 L297 811 Z M515 811 C515 768 551 732 594 732 C637 732 673 768 673 811 C673 854 637 890 594 890 C551 890 515 854 515 811 L515 811 Z " />
<glyph glyph-name="uni04E7" unicode="&#x4e7;" horiz-adv-x="592" d="M337 461 C255 461 181 433 132 385 C84 339 60 274 60 209 C60 143 86 88 121 52 C178 -7 250 -15 307 -15 C372 -15 449 -6 512 58 C559 106 584 176 584 241 C584 306 558 358 524 392 C480 436 409 461 337 461 L337 461 Z M315 107 C276 107 251 122 237 137 C220 155 208 182 208 213 C208 247 221 284 248 308 C271 329 301 339 328 339 C355 339 387 329 406 311 C423 295 436 268 436 234 C436 200 424 163 399 139 C380 121 351 107 315 107 L315 107 Z M161 599 C161 556 197 520 240 520 C283 520 319 556 319 599 C319 642 283 678 240 678 C197 678 161 642 161 599 L161 599 Z M379 599 C379 556 415 520 458 520 C501 520 537 556 537 599 C537 642 501 678 458 678 C415 678 379 642 379 599 L379 599 Z " />
<glyph glyph-name="uni04E8" unicode="&#x4e8;" horiz-adv-x="810" d="M464 682 C378 682 275 662 190 581 C127 521 80 430 80 313 C80 204 128 127 174 80 C253 0 345 -15 428 -15 C515 -15 620 2 704 88 C774 160 807 263 807 358 C807 456 770 540 713 595 C669 637 592 682 464 682 L464 682 Z M255 399 C268 441 293 475 321 497 C362 530 410 540 456 540 C501 540 545 532 582 503 C628 468 639 423 642 399 L255 399 Z M637 269 C624 221 595 183 563 161 C529 137 483 127 435 127 C383 127 341 141 312 163 C284 184 257 220 247 269 L637 269 Z " />
<glyph glyph-name="uni04E9" unicode="&#x4e9;" horiz-adv-x="592" d="M337 461 C255 461 181 433 132 385 C84 339 60 274 60 209 C60 143 86 88 121 52 C178 -7 250 -15 307 -15 C372 -15 449 -6 512 58 C559 106 584 176 584 241 C584 306 558 358 524 392 C480 436 409 461 337 461 L337 461 Z M220 266 C227 289 240 306 253 318 C275 338 300 345 328 345 C351 345 379 339 398 323 C414 309 426 285 431 266 L220 266 Z M428 188 C421 162 406 137 386 122 C367 108 340 101 317 101 C289 101 262 111 244 127 C229 140 215 161 210 188 L428 188 Z " />
<glyph glyph-name="uni04EA" unicode="&#x4ea;" horiz-adv-x="810" d="M464 682 C378 682 275 662 190 581 C127 521 80 430 80 313 C80 204 128 127 174 80 C253 0 345 -15 428 -15 C515 -15 620 2 704 88 C774 160 807 263 807 358 C807 456 770 540 713 595 C669 637 592 682 464 682 L464 682 Z M255 399 C268 441 293 475 321 497 C362 530 410 540 456 540 C501 540 545 532 582 503 C628 468 639 423 642 399 L255 399 Z M637 269 C624 221 595 183 563 161 C529 137 483 127 435 127 C383 127 341 141 312 163 C284 184 257 220 247 269 L637 269 Z M297 811 C297 768 333 732 376 732 C419 732 455 768 455 811 C455 854 419 890 376 890 C333 890 297 854 297 811 L297 811 Z M515 811 C515 768 551 732 594 732 C637 732 673 768 673 811 C673 854 637 890 594 890 C551 890 515 854 515 811 L515 811 Z " />
<glyph glyph-name="uni04EB" unicode="&#x4eb;" horiz-adv-x="592" d="M337 461 C255 461 181 433 132 385 C84 339 60 274 60 209 C60 143 86 88 121 52 C178 -7 250 -15 307 -15 C372 -15 449 -6 512 58 C559 106 584 176 584 241 C584 306 558 358 524 392 C480 436 409 461 337 461 L337 461 Z M220 266 C227 289 240 306 253 318 C275 338 300 345 328 345 C351 345 379 339 398 323 C414 309 426 285 431 266 L220 266 Z M428 188 C421 162 406 137 386 122 C367 108 340 101 317 101 C289 101 262 111 244 127 C229 140 215 161 210 188 L428 188 Z M171 599 C171 556 207 520 250 520 C293 520 329 556 329 599 C329 642 293 678 250 678 C207 678 171 642 171 599 L171 599 Z M389 599 C389 556 425 520 468 520 C511 520 547 556 547 599 C547 642 511 678 468 678 C425 678 389 642 389 599 L389 599 Z " />
<glyph glyph-name="uni04EE" unicode="&#x4ee;" horiz-adv-x="622" d="M82 667 L258 196 L141 0 L307 0 L694 667 L524 667 L352 359 L250 667 L82 667 Z M193 753 L581 753 L593 845 L205 845 L193 753 Z " />
<glyph glyph-name="uni04EF" unicode="&#x4ef;" horiz-adv-x="583" d="M40 -229 L202 -229 L633 446 L464 446 L314 202 L215 446 L51 446 L224 57 L40 -229 Z M142 543 L522 543 L533 633 L153 633 L142 543 Z " />
<glyph glyph-name="uni04F0" unicode="&#x4f0;" horiz-adv-x="622" d="M82 667 L258 196 L141 0 L307 0 L694 667 L524 667 L352 359 L250 667 L82 667 Z M202 811 C202 768 238 732 281 732 C324 732 360 768 360 811 C360 854 324 890 281 890 C238 890 202 854 202 811 L202 811 Z M420 811 C420 768 456 732 499 732 C542 732 578 768 578 811 C578 854 542 890 499 890 C456 890 420 854 420 811 L420 811 Z " />
<glyph glyph-name="uni04F1" unicode="&#x4f1;" horiz-adv-x="583" d="M40 -229 L202 -229 L633 446 L464 446 L314 202 L215 446 L51 446 L224 57 L40 -229 Z M161 599 C161 556 197 520 240 520 C283 520 319 556 319 599 C319 642 283 678 240 678 C197 678 161 642 161 599 L161 599 Z M379 599 C379 556 415 520 458 520 C501 520 537 556 537 599 C537 642 501 678 458 678 C415 678 379 642 379 599 L379 599 Z " />
<glyph glyph-name="uni04F2" unicode="&#x4f2;" horiz-adv-x="622" d="M82 667 L258 196 L141 0 L307 0 L694 667 L524 667 L352 359 L250 667 L82 667 Z M360 925 L232 772 L281 724 L437 859 L360 925 Z M546 925 L418 772 L468 724 L624 859 L546 925 Z " />
<glyph glyph-name="uni04F3" unicode="&#x4f3;" horiz-adv-x="583" d="M40 -229 L202 -229 L633 446 L464 446 L314 202 L215 446 L51 446 L224 57 L40 -229 Z M307 710 L184 557 L230 509 L381 644 L307 710 Z M487 709 L364 557 L411 509 L562 644 L487 709 Z " />
</font>
</svg>
